M48
;Layer_Color=9474304
;FILE_FORMAT=2:4
INCH,TZ
;TYPE=PLATED
T1F00S00C0.0079
T2F00S00C0.0251
T3F00S00C0.0276
;TYPE=NON_PLATED
T4F00S00C0.0256
T5F00S00C0.0315
T6F00S00C0.0390
%
T01
X12047Y13386
X13386
X14724
X15615Y13769
X15394Y14724
X14055
X12717
X11378
X14055Y12047
X15394
X16063Y10709
X17402
X18740
X20079
X20748Y12047
X20079Y13386
X20050Y14450
X19550Y14150
X19042Y14718
X18739Y14780
X18541Y14972
X18343Y14780
X18071Y14724
X16732
X17402Y13386
X21417
X21709Y13321
X21986Y13474
X22307Y13675
X22303Y13157
X22624Y13358
X22165Y12658
X23425Y12047
X24094Y13386
X24764Y14724
X23425
X22087
X20618Y14841
X20816Y15050
X20631Y15815
X19765
X20157Y16406
X20031Y17065
X19839Y17920
X20036Y18113
X20233Y17920
X19642Y18113
X19052Y17920
X18855Y18113
X18658Y17920
X18461Y18113
X18152Y17906
X18679Y17049
X19132Y16800
X19291Y16436
X18914Y15977
X18850Y15650
X18500Y15850
X18544Y16143
X18301Y16590
X17750Y16600
X16645Y16715
X16621Y17796
X16486Y18472
X16298Y18695
X16003Y18693
X16493Y19112
X16300Y20145
X16311Y20438
X16029Y20330
X15862Y20617
X15808Y20077
X15862Y21443
X16310Y21424
X18085Y21542
X18855Y21580
X18204Y22407
X18540Y22900
X18668Y23468
X19243Y22893
X19407Y22565
X19696Y22437
X19855Y23474
X20079Y24094
X20748Y22756
X20946Y21772
X20607Y21581
X21160Y21423
X21441Y21424
X20997Y21110
X20958Y20717
X21802Y19793
X21800Y19330
X21910Y18621
X22756Y18740
X22765Y17941
X22307
X21571Y17684
X21571Y16736
X21889Y16406
X22755
X22536Y16915
X23424Y16766
X23609Y16550
X24033Y16138
X24335Y16950
X23744Y17406
X23500Y17724
X23252Y18119
X24122Y18080
X24155Y19263
X23336Y18981
X23425Y20079
X22714Y20633
X22732Y21550
X23073Y21740
X23200Y21350
X24094Y21417
X24388Y20792
X25138Y21779
X25359Y22100
X25794
X26200Y21900
X26459Y22500
X26131Y23839
X25028Y23753
X25050Y24300
X25550Y24450
X24502Y24797
X24460Y25245
X24108Y25191
X23675
Y25624
X24108
X24452Y25661
X24500Y26100
X23458Y26845
X23568Y27388
X23521Y27723
X23425Y28110
X23414Y28857
X22700Y27950
X22087Y28110
X20748
X19409
X18071
X18200Y27000
X18350Y26300
X17970Y26358
X17714Y26461
X17458Y26358
X17202Y26461
X16946Y26358
X16691Y26461
X16435Y26358
X16179Y26461
X16732Y28110
X17402Y29449
X18740
X20079
X20350Y30200
X20750
X21417Y29449
X20932Y26912
X20785Y26358
X20273
X19761
X22756Y26772
X23015Y27070
X22952Y25448
X22497Y25210
X22756Y24094
X22300Y23000
X22512Y22363
X23075Y22756
X23425Y22756
X24764
X26102Y20079
X25400Y18400
X25433Y16063
X23229Y15815
X22363
X21497
X21023Y16406
X21006Y18372
X20891Y18667
X20618Y18864
X17476Y22151
X17220Y22407
X16884Y22900
X17712
X17663Y24027
X18050Y24400
X16480Y24280
X16347Y24028
X16063Y16063
X17325Y15675
X14724Y16063
X13190Y16072
X12047Y16063
X10709
X11378Y17402
X12717
X14055
X15394
X15200Y18900
X15239Y19496
X15317Y19795
X15590Y19909
X14145Y19811
X14648Y19257
X13650Y18750
X13150
X12717Y20079
X13023Y21098
X13651Y21103
X14117Y21667
X14094Y21969
X14400Y21943
X15500Y21800
X15623Y23014
X14894Y23083
X13994Y23258
X13630Y23250
X13804Y23468
X14150Y23489
X14350Y24250
X14606Y24425
X14850Y24250
X15101Y24412
X15499Y24080
X15059Y25107
X13698Y24773
X13476Y24935
X13203Y24783
X13195Y24358
X12771
X12366Y24167
X13161Y23590
X13707Y24007
X13538Y24455
X13268Y22716
X13195Y22415
X11998Y22998
X11740Y23401
X11220Y23057
X11378Y22756
X10372Y22161
X10312Y21694
X12047Y21417
X14372Y20678
X14724Y26772
X14917Y27055
X15394Y28110
X13949Y27978
X12874Y28235
X13023Y26699
X11378Y25433
X14724Y29449
X20750Y31350
T02
X10997Y18165
X11497
Y18665
X10997
Y19165
X11497
Y19665
X10997
Y20165
X11497
T03
X15819Y29834
X16113Y30564
T04
X25141Y18027
Y20302
T05
X22183Y26592
X15293
T06
X10394Y20910
X11181
X10787Y22910
M30
