G04*
G04 #@! TF.GenerationSoftware,Altium Limited,Altium Designer,22.7.1 (60)*
G04*
G04 Layer_Color=16711935*
%FSLAX25Y25*%
%MOIN*%
G70*
G04*
G04 #@! TF.SameCoordinates,BCCB9F90-4AA1-44C7-A5C0-69E822051F84*
G04*
G04*
G04 #@! TF.FilePolarity,Negative*
G04*
G01*
G75*
%ADD24C,0.00600*%
%ADD25C,0.04537*%
%ADD26C,0.06112*%
%ADD70R,0.03000X0.02550*%
%ADD71R,0.01968X0.02962*%
G04:AMPARAMS|DCode=72|XSize=74.5mil|YSize=31.2mil|CornerRadius=0mil|HoleSize=0mil|Usage=FLASHONLY|Rotation=122.000|XOffset=0mil|YOffset=0mil|HoleType=Round|Shape=Rectangle|*
%AMROTATEDRECTD72*
4,1,4,0.03297,-0.02333,0.00651,-0.03986,-0.03297,0.02333,-0.00651,0.03986,0.03297,-0.02333,0.0*
%
%ADD72ROTATEDRECTD72*%

%ADD73R,0.06112X0.04931*%
%ADD74R,0.04537X0.07687*%
%ADD75R,0.01978X0.16348*%
%ADD76R,0.02962X0.01968*%
%ADD77R,0.08041X0.07805*%
%ADD78O,0.01781X0.05915*%
%ADD79R,0.02647X0.01781*%
%ADD80O,0.02962X0.06309*%
%ADD81R,0.04537X0.02765*%
%ADD82O,0.01781X0.06112*%
%ADD83O,0.06112X0.01781*%
%ADD84R,0.15600X0.08600*%
%ADD85R,0.02550X0.03000*%
G04:AMPARAMS|DCode=86|XSize=30mil|YSize=25.5mil|CornerRadius=0mil|HoleSize=0mil|Usage=FLASHONLY|Rotation=212.000|XOffset=0mil|YOffset=0mil|HoleType=Round|Shape=Rectangle|*
%AMROTATEDRECTD86*
4,1,4,0.00596,0.01876,0.01948,-0.00286,-0.00596,-0.01876,-0.01948,0.00286,0.00596,0.01876,0.0*
%
%ADD86ROTATEDRECTD86*%

G04:AMPARAMS|DCode=87|XSize=30mil|YSize=25.5mil|CornerRadius=0mil|HoleSize=0mil|Usage=FLASHONLY|Rotation=106.000|XOffset=0mil|YOffset=0mil|HoleType=Round|Shape=Rectangle|*
%AMROTATEDRECTD87*
4,1,4,0.01639,-0.01091,-0.00812,-0.01793,-0.01639,0.01091,0.00812,0.01793,0.01639,-0.01091,0.0*
%
%ADD87ROTATEDRECTD87*%

G04:AMPARAMS|DCode=88|XSize=30mil|YSize=25.5mil|CornerRadius=0mil|HoleSize=0mil|Usage=FLASHONLY|Rotation=101.500|XOffset=0mil|YOffset=0mil|HoleType=Round|Shape=Rectangle|*
%AMROTATEDRECTD88*
4,1,4,0.01549,-0.01216,-0.00950,-0.01724,-0.01549,0.01216,0.00950,0.01724,0.01549,-0.01216,0.0*
%
%ADD88ROTATEDRECTD88*%

%ADD89R,0.04143X0.03750*%
%ADD90R,0.06033X0.11309*%
%ADD91R,0.08474X0.09183*%
%ADD92R,0.05128X0.02962*%
%ADD93R,0.05128X0.01781*%
G04:AMPARAMS|DCode=94|XSize=41.43mil|YSize=49.31mil|CornerRadius=0mil|HoleSize=0mil|Usage=FLASHONLY|Rotation=196.000|XOffset=0mil|YOffset=0mil|HoleType=Round|Shape=Rectangle|*
%AMROTATEDRECTD94*
4,1,4,0.01312,0.02941,0.02671,-0.01799,-0.01312,-0.02941,-0.02671,0.01799,0.01312,0.02941,0.0*
%
%ADD94ROTATEDRECTD94*%

%ADD95R,0.03750X0.04537*%
%ADD96R,0.08474X0.04931*%
G04:AMPARAMS|DCode=97|XSize=41.43mil|YSize=49.31mil|CornerRadius=0mil|HoleSize=0mil|Usage=FLASHONLY|Rotation=191.500|XOffset=0mil|YOffset=0mil|HoleType=Round|Shape=Rectangle|*
%AMROTATEDRECTD97*
4,1,4,0.01539,0.02829,0.02522,-0.02003,-0.01539,-0.02829,-0.02522,0.02003,0.01539,0.02829,0.0*
%
%ADD97ROTATEDRECTD97*%

%ADD98R,0.03158X0.03277*%
G04:AMPARAMS|DCode=99|XSize=32.77mil|YSize=31.58mil|CornerRadius=0mil|HoleSize=0mil|Usage=FLASHONLY|Rotation=302.000|XOffset=0mil|YOffset=0mil|HoleType=Round|Shape=Rectangle|*
%AMROTATEDRECTD99*
4,1,4,-0.02207,0.00553,0.00471,0.02226,0.02207,-0.00553,-0.00471,-0.02226,-0.02207,0.00553,0.0*
%
%ADD99ROTATEDRECTD99*%

%ADD100R,0.06309X0.05521*%
%ADD101R,0.03277X0.03158*%
%ADD102R,0.05718X0.13986*%
D24*
X111811Y209095D02*
D03*
X103937D02*
D03*
X107874Y229095D02*
D03*
X152929Y265916D02*
D03*
X221827D02*
D03*
X251406Y180268D02*
D03*
Y203024D02*
D03*
D25*
X109968Y181646D02*
D03*
X114969D02*
D03*
X109968Y186646D02*
D03*
X114969D02*
D03*
X109968Y191646D02*
D03*
X114969D02*
D03*
X109968Y196646D02*
D03*
X114969D02*
D03*
X109968Y201646D02*
D03*
X114969D02*
D03*
D26*
X161135Y305641D02*
D03*
X158185Y298340D02*
D03*
D70*
X114816Y234514D02*
D03*
Y230564D02*
D03*
X236945Y236157D02*
D03*
Y240107D02*
D03*
X240882D02*
D03*
Y236157D02*
D03*
X195055Y238927D02*
D03*
Y242877D02*
D03*
X147612Y115361D02*
D03*
Y111411D02*
D03*
X128264Y248178D02*
D03*
Y252128D02*
D03*
X143894Y196522D02*
D03*
Y192572D02*
D03*
D71*
X122531Y238543D02*
D03*
X126469D02*
D03*
X124500D02*
D03*
X122531Y231457D02*
D03*
X124500D02*
D03*
X126469D02*
D03*
D72*
X230257Y127028D02*
D03*
X227085Y125046D02*
D03*
X233428Y129010D02*
D03*
X223913Y123064D02*
D03*
X220741Y121082D02*
D03*
X217569Y119100D02*
D03*
X214397Y117119D02*
D03*
D73*
X229689Y169153D02*
D03*
Y175453D02*
D03*
X221028Y169153D02*
D03*
Y175453D02*
D03*
D74*
X182043Y229004D02*
D03*
X172201D02*
D03*
D75*
X218087Y253318D02*
D03*
X215528D02*
D03*
X212968D02*
D03*
X210409D02*
D03*
X207850D02*
D03*
X205291D02*
D03*
X202732D02*
D03*
X200173D02*
D03*
X197614D02*
D03*
X195055D02*
D03*
X192496D02*
D03*
X189937D02*
D03*
X187378D02*
D03*
X184819D02*
D03*
X182260D02*
D03*
X179701D02*
D03*
X177142D02*
D03*
X174583D02*
D03*
X172024D02*
D03*
X169465D02*
D03*
X166905D02*
D03*
X164347D02*
D03*
X161787D02*
D03*
X159228D02*
D03*
X156669D02*
D03*
D76*
X119972Y237953D02*
D03*
Y235984D02*
D03*
Y234016D02*
D03*
Y232047D02*
D03*
X129028D02*
D03*
Y234016D02*
D03*
Y235984D02*
D03*
Y237953D02*
D03*
D77*
X238913Y254077D02*
D03*
D78*
X234976Y262837D02*
D03*
X236945D02*
D03*
X238913D02*
D03*
X240882D02*
D03*
X242850D02*
D03*
X234976Y245317D02*
D03*
X236945D02*
D03*
X238913D02*
D03*
X240882D02*
D03*
X242850D02*
D03*
D79*
X209201Y308968D02*
D03*
Y307000D02*
D03*
Y305031D02*
D03*
X201799Y308968D02*
D03*
Y307000D02*
D03*
Y305031D02*
D03*
D80*
X138724Y223583D02*
D03*
X143724D02*
D03*
X148724D02*
D03*
X153724D02*
D03*
X138724Y202126D02*
D03*
X143724D02*
D03*
X148724D02*
D03*
X153724D02*
D03*
D81*
X133185Y259310D02*
D03*
Y251829D02*
D03*
X143815D02*
D03*
Y255569D02*
D03*
Y259310D02*
D03*
D82*
X176736Y219941D02*
D03*
X178705D02*
D03*
X180673D02*
D03*
X182642D02*
D03*
X184610D02*
D03*
X186579D02*
D03*
X188547D02*
D03*
X190516D02*
D03*
X192484D02*
D03*
X194453D02*
D03*
X196421D02*
D03*
X198390D02*
D03*
X200358D02*
D03*
X202327D02*
D03*
X204295D02*
D03*
X206264D02*
D03*
Y175059D02*
D03*
X204295D02*
D03*
X202327D02*
D03*
X200358D02*
D03*
X198390D02*
D03*
X196421D02*
D03*
X194453D02*
D03*
X192484D02*
D03*
X190516D02*
D03*
X188547D02*
D03*
X186579D02*
D03*
X184610D02*
D03*
X182642D02*
D03*
X180673D02*
D03*
X178705D02*
D03*
X176736D02*
D03*
D83*
X213941Y212264D02*
D03*
Y210295D02*
D03*
Y208327D02*
D03*
Y206358D02*
D03*
Y204390D02*
D03*
Y202421D02*
D03*
Y200453D02*
D03*
Y198484D02*
D03*
Y196516D02*
D03*
Y194547D02*
D03*
Y192579D02*
D03*
Y190610D02*
D03*
Y188642D02*
D03*
Y186673D02*
D03*
Y184705D02*
D03*
Y182736D02*
D03*
X169059D02*
D03*
Y184705D02*
D03*
Y186673D02*
D03*
Y188642D02*
D03*
Y190610D02*
D03*
Y192579D02*
D03*
Y194547D02*
D03*
Y196516D02*
D03*
Y198484D02*
D03*
Y200453D02*
D03*
Y202421D02*
D03*
Y204390D02*
D03*
Y206358D02*
D03*
Y208327D02*
D03*
Y210295D02*
D03*
Y212264D02*
D03*
D84*
X223500Y294500D02*
D03*
D85*
X162569Y218110D02*
D03*
X158619D02*
D03*
X236938Y268447D02*
D03*
X240888D02*
D03*
X238391Y184756D02*
D03*
X242341D02*
D03*
X238391Y196567D02*
D03*
X242341D02*
D03*
X140545Y246707D02*
D03*
X144495D02*
D03*
X169863Y142717D02*
D03*
X165913D02*
D03*
X147631Y246707D02*
D03*
X151581D02*
D03*
X227136Y208917D02*
D03*
X223186D02*
D03*
Y212854D02*
D03*
X227136D02*
D03*
D86*
X231499Y139426D02*
D03*
X233592Y136076D02*
D03*
X220737Y128044D02*
D03*
X218644Y131393D02*
D03*
X228160Y137339D02*
D03*
X230253Y133990D02*
D03*
D87*
X256105Y241590D02*
D03*
X252308Y240501D02*
D03*
D88*
X259636Y228652D02*
D03*
X255765Y227865D02*
D03*
D89*
X160900Y113386D02*
D03*
X153026Y116929D02*
D03*
Y109843D02*
D03*
D90*
X135587Y268955D02*
D03*
X124878D02*
D03*
D91*
X264910Y171528D02*
D03*
X249437D02*
D03*
X264910Y211764D02*
D03*
X249437D02*
D03*
D92*
X247174Y179048D02*
D03*
Y182197D02*
D03*
Y204244D02*
D03*
Y201095D02*
D03*
D93*
Y184756D02*
D03*
Y186725D02*
D03*
Y188693D02*
D03*
Y190662D02*
D03*
Y192630D02*
D03*
Y194599D02*
D03*
Y196567D02*
D03*
Y198536D02*
D03*
D94*
X260230Y242178D02*
D03*
X262400Y234609D02*
D03*
D95*
X127161Y278798D02*
D03*
D96*
X134642D02*
D03*
D97*
X263806Y228858D02*
D03*
X265375Y221142D02*
D03*
D98*
X125382Y227028D02*
D03*
X129128D02*
D03*
X121648Y227028D02*
D03*
X117902D02*
D03*
X159706Y194547D02*
D03*
X163452D02*
D03*
X178989Y235106D02*
D03*
X182735D02*
D03*
X178345Y169350D02*
D03*
X174600D02*
D03*
X187659Y225650D02*
D03*
X191404D02*
D03*
X207152Y169410D02*
D03*
X203407D02*
D03*
X175255Y235106D02*
D03*
X171509D02*
D03*
D99*
X211007Y122436D02*
D03*
X214183Y124421D02*
D03*
X208921Y125775D02*
D03*
X212097Y127760D02*
D03*
D100*
X159228Y234405D02*
D03*
Y241098D02*
D03*
X222319Y234405D02*
D03*
Y241098D02*
D03*
X214445Y234405D02*
D03*
Y241098D02*
D03*
X143224Y274866D02*
D03*
Y281559D02*
D03*
X160408Y130709D02*
D03*
Y137402D02*
D03*
D101*
X247969Y254077D02*
D03*
Y250331D02*
D03*
X208539Y238832D02*
D03*
Y242578D02*
D03*
X204602Y238832D02*
D03*
Y242578D02*
D03*
X198079Y306111D02*
D03*
Y309857D02*
D03*
X212921Y306111D02*
D03*
Y309857D02*
D03*
X133429Y210981D02*
D03*
Y214727D02*
D03*
X128264Y255564D02*
D03*
Y259310D02*
D03*
X215713Y174176D02*
D03*
Y170430D02*
D03*
X219650Y212759D02*
D03*
Y209013D02*
D03*
X235004Y170430D02*
D03*
Y174176D02*
D03*
X155870Y192674D02*
D03*
Y196420D02*
D03*
X219650Y201533D02*
D03*
Y205278D02*
D03*
D102*
X202534Y121653D02*
D03*
X168282D02*
D03*
M02*
