G04*
G04 #@! TF.GenerationSoftware,Altium Limited,Altium Designer,22.7.1 (60)*
G04*
G04 Layer_Color=8388736*
%FSLAX25Y25*%
%MOIN*%
G70*
G04*
G04 #@! TF.SameCoordinates,BCCB9F90-4AA1-44C7-A5C0-69E822051F84*
G04*
G04*
G04 #@! TF.FilePolarity,Positive*
G04*
G01*
G75*
%ADD107C,0.00394*%
D107*
X148205Y275243D02*
X148468Y274259D01*
X149189Y273538D01*
X150173Y273275D01*
X150173Y277212D02*
X149189Y276948D01*
X148468Y276227D01*
X148205Y275243D01*
X226551Y275243D02*
X226287Y276227D01*
X225567Y276948D01*
X224583Y277212D01*
X224583Y273275D02*
X225567Y273538D01*
X226287Y274259D01*
X226551Y275243D01*
X265674Y151424D02*
X266059Y152319D01*
X266434Y153217D01*
X266799Y154120D01*
X267154Y155027D01*
X267499Y155937D01*
X267833Y156852D01*
X268158Y157770D01*
X268472Y158692D01*
X268776Y159617D01*
X269070Y160545D01*
X269354Y161477D01*
X269627Y162411D01*
X269889Y163349D01*
X270142Y164290D01*
X270383Y165233D01*
X270615Y166179D01*
X270835Y167127D01*
X265674Y151424D02*
X265330Y152346D01*
X264720Y153117D01*
X263901Y153662D01*
X262954Y153927D01*
X261971Y153888D01*
X261048Y153548D01*
X260276Y152939D01*
X259728Y152122D01*
X259460Y151175D01*
X259496Y150193D01*
X259834Y149269D01*
X260440Y148494D01*
X261256Y147945D01*
X262201Y147673D01*
X263184Y147707D01*
X264109Y148042D01*
X199187Y100000D02*
X200173Y100163D01*
X201157Y100337D01*
X202139Y100522D01*
X203119Y100719D01*
X204096Y100926D01*
X205071Y101145D01*
X206044Y101375D01*
X207014Y101616D01*
X207980Y101868D01*
X208945Y102131D01*
X209906Y102405D01*
X210863Y102690D01*
X211818Y102986D01*
X212769Y103292D01*
X213716Y103610D01*
X214660Y103938D01*
X215600Y104277D01*
X216536Y104627D01*
X217468Y104987D01*
X218396Y105358D01*
X219320Y105740D01*
X220239Y106132D01*
X221153Y106535D01*
X222063Y106947D01*
X222968Y107371D01*
X223869Y107804D01*
X224764Y108248D01*
X225654Y108702D01*
X226539Y109166D01*
X227418Y109641D01*
X228293Y110125D01*
X229161Y110619D01*
X230024Y111123D01*
X230881Y111637D01*
X231732Y112161D01*
X232577Y112694D01*
X233416Y113237D01*
X234249Y113789D01*
X235075Y114351D01*
X235895Y114922D01*
X236708Y115503D01*
X237515Y116093D01*
X238315Y116692D01*
X239108Y117300D01*
X239894Y117917D01*
X240673Y118543D01*
X241444Y119177D01*
X242209Y119821D01*
X242966Y120473D01*
X243715Y121134D01*
X244457Y121804D01*
X245191Y122481D01*
X245918Y123168D01*
X246637Y123862D01*
X247347Y124564D01*
X248050Y125275D01*
X248744Y125994D01*
X249430Y126720D01*
X250108Y127454D01*
X250778Y128196D01*
X251438Y128946D01*
X252091Y129702D01*
X252734Y130467D01*
X253369Y131238D01*
X253995Y132017D01*
X254612Y132803D01*
X255221Y133596D01*
X255820Y134396D01*
X256410Y135203D01*
X256990Y136016D01*
X257561Y136836D01*
X258123Y137662D01*
X258676Y138495D01*
X259219Y139334D01*
X259752Y140179D01*
X260276Y141030D01*
X260790Y141887D01*
X261294Y142750D01*
X261788Y143618D01*
X262272Y144492D01*
X262747Y145372D01*
X263211Y146256D01*
X263665Y147147D01*
X264109Y148042D01*
X106707D02*
X107151Y147146D01*
X107605Y146256D01*
X108069Y145371D01*
X108543Y144492D01*
X109028Y143618D01*
X109522Y142749D01*
X110026Y141887D01*
X110540Y141030D01*
X111063Y140179D01*
X111597Y139333D01*
X112140Y138495D01*
X112692Y137662D01*
X113254Y136836D01*
X113825Y136016D01*
X114406Y135203D01*
X114996Y134396D01*
X115595Y133596D01*
X116203Y132803D01*
X116820Y132017D01*
X117446Y131238D01*
X118081Y130467D01*
X118725Y129702D01*
X119377Y128946D01*
X120038Y128196D01*
X120707Y127454D01*
X121385Y126720D01*
X122071Y125994D01*
X122766Y125275D01*
X123468Y124564D01*
X124179Y123862D01*
X124898Y123168D01*
X125624Y122481D01*
X126358Y121804D01*
X127100Y121134D01*
X127850Y120473D01*
X128607Y119821D01*
X129371Y119177D01*
X130143Y118543D01*
X130922Y117917D01*
X131708Y117299D01*
X132501Y116692D01*
X133300Y116093D01*
X134107Y115503D01*
X134920Y114922D01*
X135740Y114351D01*
X136567Y113789D01*
X137399Y113237D01*
X138238Y112694D01*
X139083Y112161D01*
X139934Y111637D01*
X140791Y111123D01*
X141654Y110619D01*
X142523Y110125D01*
X143397Y109641D01*
X144276Y109166D01*
X145161Y108702D01*
X146052Y108248D01*
X146947Y107804D01*
X147847Y107371D01*
X148752Y106947D01*
X149662Y106534D01*
X150577Y106132D01*
X151496Y105740D01*
X152419Y105358D01*
X153347Y104987D01*
X154279Y104627D01*
X155215Y104277D01*
X156155Y103938D01*
X157099Y103610D01*
X158047Y103292D01*
X158998Y102985D01*
X159952Y102690D01*
X160910Y102405D01*
X161871Y102131D01*
X162835Y101868D01*
X163802Y101616D01*
X164772Y101375D01*
X165744Y101145D01*
X166719Y100926D01*
X167697Y100719D01*
X168676Y100522D01*
X169658Y100337D01*
X170642Y100163D01*
X171628Y100000D01*
X106707Y148042D02*
X107631Y147707D01*
X108615Y147673D01*
X109560Y147945D01*
X110375Y148494D01*
X110982Y149269D01*
X111319Y150193D01*
X111356Y151176D01*
X111087Y152122D01*
X110540Y152939D01*
X109767Y153548D01*
X108844Y153888D01*
X107862Y153927D01*
X106915Y153662D01*
X106096Y153117D01*
X105485Y152346D01*
X105142Y151424D01*
X99980Y167128D02*
X100201Y166179D01*
X100432Y165233D01*
X100674Y164290D01*
X100926Y163349D01*
X101189Y162412D01*
X101462Y161477D01*
X101745Y160545D01*
X102039Y159617D01*
X102343Y158692D01*
X102657Y157770D01*
X102982Y156852D01*
X103317Y155937D01*
X103662Y155027D01*
X104017Y154120D01*
X104382Y153217D01*
X104757Y152319D01*
X105142Y151424D01*
X182384Y319672D02*
X182259Y318710D01*
X182433Y317757D01*
X182888Y316901D01*
X183583Y316224D01*
X184450Y315791D01*
X185408Y315641D01*
X186366Y315791D01*
X187233Y316224D01*
X187927Y316901D01*
X188383Y317757D01*
X188556Y318710D01*
X188432Y319672D01*
X150173Y273275D02*
X224583D01*
X150173Y277212D02*
X224583D01*
X171628Y100000D02*
X199187D01*
X99980Y167128D02*
Y216340D01*
X100111Y217214D01*
X100245Y218086D01*
X100383Y218956D01*
X100525Y219826D01*
X100671Y220693D01*
X100821Y221559D01*
X100974Y222424D01*
X101131Y223287D01*
X101291Y224149D01*
X101456Y225008D01*
X101624Y225867D01*
X101796Y226723D01*
X101971Y227577D01*
X102150Y228430D01*
X102333Y229281D01*
X102520Y230130D01*
X102710Y230977D01*
X102904Y231822D01*
X103101Y232665D01*
X103302Y233506D01*
X103507Y234346D01*
X103716Y235182D01*
X103928Y236017D01*
X104143Y236850D01*
X104362Y237680D01*
X104585Y238508D01*
X104811Y239334D01*
X105041Y240157D01*
X105275Y240978D01*
X105511Y241797D01*
X105752Y242613D01*
X105996Y243427D01*
X106244Y244238D01*
X106495Y245047D01*
X106749Y245853D01*
X107007Y246656D01*
X107269Y247457D01*
X107533Y248255D01*
X107802Y249051D01*
X108073Y249843D01*
X108349Y250633D01*
X108627Y251420D01*
X108909Y252204D01*
X109195Y252986D01*
X109483Y253764D01*
X109775Y254539D01*
X110071Y255311D01*
X110370Y256081D01*
X110672Y256847D01*
X110977Y257610D01*
X111286Y258370D01*
X111598Y259127D01*
X111913Y259880D01*
X112231Y260631D01*
X112553Y261378D01*
X112878Y262122D01*
X113206Y262862D01*
X113537Y263599D01*
X113872Y264333D01*
X114209Y265063D01*
X114550Y265790D01*
X114894Y266513D01*
X115241Y267232D01*
X115591Y267949D01*
X115944Y268661D01*
X116300Y269370D01*
X116660Y270075D01*
X117022Y270777D01*
X117387Y271475D01*
X117756Y272168D01*
X118127Y272859D01*
X118502Y273545D01*
X118879Y274228D01*
X119259Y274907D01*
X119642Y275581D01*
X120028Y276252D01*
X120417Y276919D01*
X120809Y277582D01*
X121204Y278241D01*
X121601Y278896D01*
X122002Y279547D01*
X122405Y280193D01*
X122811Y280836D01*
X123219Y281474D01*
X123631Y282108D01*
X124045Y282738D01*
X124462Y283364D01*
X124881Y283986D01*
X125304Y284603D01*
X125728Y285215D01*
X126156Y285824D01*
X126586Y286428D01*
X127019Y287028D01*
X127454Y287623D01*
X127892Y288213D01*
X128332Y288800D01*
X128776Y289381D01*
X129221Y289959D01*
X129669Y290531D01*
X130119Y291099D01*
X130572Y291662D01*
X131027Y292221D01*
X131485Y292775D01*
X131945Y293324D01*
X132407Y293869D01*
X132872Y294409D01*
X133339Y294944D01*
X133809Y295475D01*
X134280Y296000D01*
X134754Y296521D01*
X135230Y297037D01*
X135709Y297547D01*
X136189Y298054D01*
X136672Y298555D01*
X137157Y299051D01*
X137644Y299542D01*
X138133Y300028D01*
X138624Y300509D01*
X139117Y300985D01*
X139613Y301456D01*
X140110Y301922D01*
X140609Y302383D01*
X141111Y302839D01*
X141614Y303290D01*
X142119Y303735D01*
X142626Y304176D01*
X143135Y304611D01*
X143646Y305041D01*
X144159Y305465D01*
X144674Y305885D01*
X145190Y306299D01*
X145708Y306708D01*
X146228Y307111D01*
X146750Y307509D01*
X147273Y307902D01*
X147798Y308290D01*
X148325Y308672D01*
X148853Y309049D01*
X149383Y309420D01*
X149914Y309786D01*
X150447Y310146D01*
X150982Y310501D01*
X151518Y310851D01*
X152056Y311194D01*
X152595Y311533D01*
X153136Y311866D01*
X153677Y312193D01*
X154221Y312515D01*
X154766Y312832D01*
X155312Y313142D01*
X155859Y313447D01*
X156408Y313747D01*
X156958Y314041D01*
X157509Y314329D01*
X158062Y314612D01*
X158616Y314889D01*
X159170Y315160D01*
X159727Y315425D01*
X160284Y315685D01*
X160842Y315940D01*
X161402Y316188D01*
X161962Y316431D01*
X162524Y316668D01*
X163086Y316899D01*
X163650Y317125D01*
X164214Y317344D01*
X164779Y317558D01*
X165346Y317766D01*
X165913Y317969D01*
X166481Y318165D01*
X167050Y318356D01*
X167620Y318541D01*
X168190Y318720D01*
X168761Y318893D01*
X169333Y319061D01*
X169906Y319222D01*
X170480Y319378D01*
X171054Y319528D01*
X171628Y319672D01*
X182384Y319672D01*
X188432D02*
X199187D01*
X199762Y319528D01*
X200336Y319378D01*
X200909Y319222D01*
X201482Y319061D01*
X202054Y318893D01*
X202625Y318720D01*
X203196Y318541D01*
X203766Y318356D01*
X204334Y318165D01*
X204903Y317969D01*
X205470Y317766D01*
X206036Y317558D01*
X206601Y317344D01*
X207166Y317125D01*
X207729Y316899D01*
X208292Y316668D01*
X208853Y316431D01*
X209414Y316188D01*
X209973Y315940D01*
X210532Y315685D01*
X211089Y315425D01*
X211645Y315160D01*
X212200Y314889D01*
X212754Y314612D01*
X213306Y314329D01*
X213857Y314041D01*
X214407Y313747D01*
X214956Y313447D01*
X215504Y313142D01*
X216050Y312831D01*
X216595Y312515D01*
X217138Y312193D01*
X217680Y311866D01*
X218220Y311533D01*
X218760Y311194D01*
X219297Y310851D01*
X219833Y310501D01*
X220368Y310146D01*
X220901Y309786D01*
X221433Y309420D01*
X221963Y309049D01*
X222491Y308672D01*
X223018Y308290D01*
X223542Y307902D01*
X224066Y307509D01*
X224587Y307111D01*
X225107Y306708D01*
X225625Y306299D01*
X226142Y305885D01*
X226656Y305465D01*
X227169Y305041D01*
X227680Y304611D01*
X228189Y304176D01*
X228696Y303735D01*
X229201Y303290D01*
X229705Y302839D01*
X230206Y302383D01*
X230705Y301922D01*
X231203Y301456D01*
X231698Y300985D01*
X232191Y300509D01*
X232682Y300028D01*
X233172Y299542D01*
X233659Y299051D01*
X234143Y298555D01*
X234626Y298054D01*
X235107Y297547D01*
X235585Y297037D01*
X236061Y296521D01*
X236535Y296000D01*
X237007Y295475D01*
X237476Y294944D01*
X237943Y294409D01*
X238408Y293869D01*
X238870Y293324D01*
X239330Y292775D01*
X239788Y292221D01*
X240243Y291662D01*
X240696Y291099D01*
X241147Y290531D01*
X241595Y289958D01*
X242040Y289381D01*
X242483Y288800D01*
X242923Y288213D01*
X243361Y287623D01*
X243796Y287028D01*
X244229Y286428D01*
X244659Y285824D01*
X245087Y285215D01*
X245512Y284603D01*
X245934Y283986D01*
X246354Y283364D01*
X246771Y282738D01*
X247185Y282108D01*
X247596Y281474D01*
X248005Y280836D01*
X248411Y280193D01*
X248814Y279547D01*
X249214Y278896D01*
X249612Y278241D01*
X250006Y277582D01*
X250398Y276919D01*
X250787Y276252D01*
X251173Y275581D01*
X251556Y274907D01*
X251937Y274228D01*
X252314Y273545D01*
X252688Y272859D01*
X253060Y272168D01*
X253428Y271474D01*
X253793Y270777D01*
X254156Y270075D01*
X254515Y269370D01*
X254871Y268661D01*
X255224Y267949D01*
X255574Y267232D01*
X255922Y266513D01*
X256265Y265790D01*
X256606Y265063D01*
X256944Y264333D01*
X257278Y263599D01*
X257610Y262862D01*
X257938Y262122D01*
X258262Y261378D01*
X258584Y260631D01*
X258903Y259880D01*
X259218Y259127D01*
X259530Y258370D01*
X259838Y257610D01*
X260144Y256847D01*
X260446Y256081D01*
X260745Y255311D01*
X261040Y254539D01*
X261332Y253764D01*
X261621Y252986D01*
X261906Y252204D01*
X262188Y251420D01*
X262467Y250633D01*
X262742Y249843D01*
X263014Y249051D01*
X263282Y248255D01*
X263547Y247457D01*
X263808Y246656D01*
X264066Y245853D01*
X264321Y245047D01*
X264572Y244238D01*
X264819Y243427D01*
X265063Y242613D01*
X265304Y241797D01*
X265541Y240978D01*
X265774Y240157D01*
X266004Y239334D01*
X266231Y238508D01*
X266453Y237680D01*
X266672Y236850D01*
X266888Y236017D01*
X267100Y235182D01*
X267308Y234346D01*
X267513Y233506D01*
X267714Y232665D01*
X267912Y231822D01*
X268106Y230977D01*
X268296Y230130D01*
X268482Y229281D01*
X268665Y228430D01*
X268844Y227577D01*
X269020Y226723D01*
X269192Y225867D01*
X269360Y225008D01*
X269524Y224149D01*
X269685Y223287D01*
X269842Y222424D01*
X269995Y221559D01*
X270144Y220693D01*
X270290Y219826D01*
X270432Y218956D01*
X270570Y218086D01*
X270705Y217214D01*
X270835Y216340D01*
X270835Y167128D02*
X270835Y216340D01*
M02*
