G04*
G04 #@! TF.GenerationSoftware,Altium Limited,Altium Designer,22.7.1 (60)*
G04*
G04 Layer_Physical_Order=2*
G04 Layer_Color=16711680*
%FSLAX25Y25*%
%MOIN*%
G70*
G04*
G04 #@! TF.SameCoordinates,BCCB9F90-4AA1-44C7-A5C0-69E822051F84*
G04*
G04*
G04 #@! TF.FilePolarity,Positive*
G04*
G01*
G75*
%ADD10C,0.01000*%
%ADD12C,0.02362*%
%ADD13C,0.00600*%
%ADD27C,0.01575*%
%ADD28C,0.01181*%
%ADD29C,0.01378*%
%ADD30C,0.03937*%
%ADD31C,0.05512*%
%ADD32C,0.01575*%
%ADD33R,0.02400X0.01950*%
%ADD34R,0.01369X0.02362*%
G04:AMPARAMS|DCode=35|XSize=68.5mil|YSize=25.2mil|CornerRadius=0mil|HoleSize=0mil|Usage=FLASHONLY|Rotation=122.000|XOffset=0mil|YOffset=0mil|HoleType=Round|Shape=Rectangle|*
%AMROTATEDRECTD35*
4,1,4,0.02884,-0.02237,0.00747,-0.03572,-0.02884,0.02237,-0.00747,0.03572,0.02884,-0.02237,0.0*
%
%ADD35ROTATEDRECTD35*%

%ADD36R,0.05512X0.04331*%
%ADD37R,0.03937X0.07087*%
%ADD38R,0.01378X0.15748*%
%ADD39R,0.02362X0.01369*%
%ADD40R,0.07441X0.07205*%
%ADD41O,0.01181X0.05315*%
%ADD42R,0.02047X0.01181*%
%ADD43O,0.02362X0.05709*%
%ADD44R,0.03937X0.02165*%
%ADD45O,0.01181X0.05512*%
%ADD46O,0.05512X0.01181*%
%ADD47R,0.15000X0.08000*%
%ADD48R,0.01950X0.02400*%
G04:AMPARAMS|DCode=49|XSize=24mil|YSize=19.5mil|CornerRadius=0mil|HoleSize=0mil|Usage=FLASHONLY|Rotation=212.000|XOffset=0mil|YOffset=0mil|HoleType=Round|Shape=Rectangle|*
%AMROTATEDRECTD49*
4,1,4,0.00501,0.01463,0.01534,-0.00191,-0.00501,-0.01463,-0.01534,0.00191,0.00501,0.01463,0.0*
%
%ADD49ROTATEDRECTD49*%

G04:AMPARAMS|DCode=50|XSize=24mil|YSize=19.5mil|CornerRadius=0mil|HoleSize=0mil|Usage=FLASHONLY|Rotation=106.000|XOffset=0mil|YOffset=0mil|HoleType=Round|Shape=Rectangle|*
%AMROTATEDRECTD50*
4,1,4,0.01268,-0.00885,-0.00607,-0.01422,-0.01268,0.00885,0.00607,0.01422,0.01268,-0.00885,0.0*
%
%ADD50ROTATEDRECTD50*%

G04:AMPARAMS|DCode=51|XSize=24mil|YSize=19.5mil|CornerRadius=0mil|HoleSize=0mil|Usage=FLASHONLY|Rotation=101.500|XOffset=0mil|YOffset=0mil|HoleType=Round|Shape=Rectangle|*
%AMROTATEDRECTD51*
4,1,4,0.01195,-0.00982,-0.00716,-0.01370,-0.01195,0.00982,0.00716,0.01370,0.01195,-0.00982,0.0*
%
%ADD51ROTATEDRECTD51*%

%ADD52R,0.03543X0.03150*%
%ADD53R,0.05433X0.10709*%
%ADD54R,0.07874X0.08583*%
%ADD55R,0.04528X0.02362*%
%ADD56R,0.04528X0.01181*%
G04:AMPARAMS|DCode=57|XSize=35.43mil|YSize=43.31mil|CornerRadius=0mil|HoleSize=0mil|Usage=FLASHONLY|Rotation=196.000|XOffset=0mil|YOffset=0mil|HoleType=Round|Shape=Rectangle|*
%AMROTATEDRECTD57*
4,1,4,0.01106,0.02570,0.02300,-0.01593,-0.01106,-0.02570,-0.02300,0.01593,0.01106,0.02570,0.0*
%
%ADD57ROTATEDRECTD57*%

%ADD58R,0.03150X0.03937*%
%ADD59R,0.07874X0.04331*%
G04:AMPARAMS|DCode=60|XSize=35.43mil|YSize=43.31mil|CornerRadius=0mil|HoleSize=0mil|Usage=FLASHONLY|Rotation=191.500|XOffset=0mil|YOffset=0mil|HoleType=Round|Shape=Rectangle|*
%AMROTATEDRECTD60*
4,1,4,0.01304,0.02475,0.02168,-0.01769,-0.01304,-0.02475,-0.02168,0.01769,0.01304,0.02475,0.0*
%
%ADD60ROTATEDRECTD60*%

%ADD61R,0.02558X0.02677*%
G04:AMPARAMS|DCode=62|XSize=26.77mil|YSize=25.58mil|CornerRadius=0mil|HoleSize=0mil|Usage=FLASHONLY|Rotation=302.000|XOffset=0mil|YOffset=0mil|HoleType=Round|Shape=Rectangle|*
%AMROTATEDRECTD62*
4,1,4,-0.01794,0.00458,0.00375,0.01813,0.01794,-0.00458,-0.00375,-0.01813,-0.01794,0.00458,0.0*
%
%ADD62ROTATEDRECTD62*%

%ADD63R,0.05709X0.04921*%
%ADD64R,0.02677X0.02558*%
%ADD65R,0.05118X0.13386*%
%ADD66C,0.02165*%
%ADD67C,0.01949*%
%ADD68C,0.01192*%
%ADD69C,0.02500*%
G36*
X206975Y315039D02*
X207521Y314815D01*
X208064Y314586D01*
X208608Y314350D01*
X209150Y314109D01*
X209691Y313863D01*
X210232Y313611D01*
X210772Y313353D01*
X211311Y313089D01*
X211847Y312821D01*
X212014Y312736D01*
X211869Y312136D01*
X210583D01*
Y310559D01*
X209701D01*
Y308968D01*
X209201D01*
Y308469D01*
X207177D01*
Y308378D01*
X206149D01*
Y314756D01*
X206750Y315129D01*
X206975Y315039D01*
D02*
G37*
G36*
X180400Y317665D02*
X180413Y317567D01*
X180732Y316652D01*
X180888Y316385D01*
X181022Y316106D01*
X181604Y315331D01*
X181834Y315125D01*
X182046Y314900D01*
X182836Y314338D01*
X183118Y314212D01*
X183389Y314062D01*
X184313Y313767D01*
X184620Y313732D01*
X184923Y313672D01*
X185892D01*
X186196Y313732D01*
X186503Y313767D01*
X187426Y314062D01*
X187697Y314212D01*
X187979Y314338D01*
X188769Y314900D01*
X188981Y315125D01*
X189211Y315331D01*
X189793Y316106D01*
X189927Y316385D01*
X190084Y316652D01*
X190402Y317567D01*
X190416Y317665D01*
X198940D01*
X199264Y317583D01*
X199820Y317438D01*
X200374Y317288D01*
X200928Y317132D01*
X201481Y316970D01*
X202034Y316802D01*
X202585Y316629D01*
X203136Y316450D01*
X203688Y316265D01*
X204237Y316075D01*
X204786Y315879D01*
X205335Y315678D01*
X205500Y315615D01*
Y308378D01*
Y304441D01*
X203823D01*
Y304532D01*
X201799D01*
Y305532D01*
X203823D01*
Y306622D01*
X203423D01*
Y307378D01*
X203823D01*
Y308469D01*
X201799D01*
Y308968D01*
X201299D01*
Y310559D01*
X200417D01*
Y312136D01*
X198579D01*
Y309857D01*
X198079D01*
Y309357D01*
X195740D01*
Y307984D01*
X171484D01*
X164297Y300797D01*
X160502D01*
X159852Y301286D01*
X159033Y301617D01*
X158156Y301725D01*
X157281Y301602D01*
X156467Y301256D01*
X155879Y300797D01*
X155823D01*
X155042Y301266D01*
X149781D01*
X130069Y281554D01*
X126388D01*
X126067Y282154D01*
X126129Y282246D01*
X126542Y282858D01*
X126956Y283463D01*
X127374Y284067D01*
X127794Y284665D01*
X128218Y285259D01*
X128642Y285847D01*
X129070Y286433D01*
X129501Y287013D01*
X129933Y287589D01*
X130368Y288160D01*
X130805Y288726D01*
X131245Y289289D01*
X131688Y289847D01*
X132132Y290400D01*
X132580Y290949D01*
X133028Y291492D01*
X133479Y292031D01*
X133933Y292565D01*
X134389Y293095D01*
X134847Y293619D01*
X135306Y294139D01*
X135768Y294653D01*
X136233Y295164D01*
X136700Y295669D01*
X137169Y296171D01*
X137639Y296666D01*
X138113Y297158D01*
X138587Y297643D01*
X139064Y298124D01*
X139543Y298600D01*
X140023Y299070D01*
X140506Y299536D01*
X140990Y299996D01*
X141478Y300453D01*
X141965Y300903D01*
X142455Y301349D01*
X142947Y301790D01*
X143441Y302225D01*
X143937Y302655D01*
X144433Y303080D01*
X144933Y303500D01*
X145434Y303915D01*
X145936Y304324D01*
X146439Y304728D01*
X146945Y305127D01*
X147452Y305521D01*
X147961Y305909D01*
X148472Y306293D01*
X148983Y306670D01*
X149496Y307042D01*
X150012Y307410D01*
X150528Y307771D01*
X151046Y308128D01*
X151564Y308478D01*
X152085Y308824D01*
X152607Y309165D01*
X153131Y309500D01*
X153654Y309828D01*
X154181Y310153D01*
X154708Y310471D01*
X155236Y310784D01*
X155765Y311091D01*
X156297Y311394D01*
X156829Y311690D01*
X157361Y311981D01*
X157896Y312266D01*
X158432Y312546D01*
X158967Y312820D01*
X159505Y313090D01*
X160044Y313353D01*
X160583Y313611D01*
X161123Y313862D01*
X161665Y314109D01*
X162208Y314350D01*
X162751Y314585D01*
X163295Y314815D01*
X163840Y315039D01*
X164386Y315258D01*
X164933Y315471D01*
X165481Y315678D01*
X166029Y315879D01*
X166579Y316075D01*
X167129Y316266D01*
X167679Y316450D01*
X168229Y316629D01*
X168782Y316802D01*
X169335Y316970D01*
X169888Y317132D01*
X170441Y317288D01*
X170995Y317438D01*
X171551Y317583D01*
X171876Y317665D01*
X180400Y317665D01*
D02*
G37*
G36*
X215579Y310784D02*
X216107Y310471D01*
X216635Y310152D01*
X217161Y309829D01*
X217685Y309499D01*
X218209Y309164D01*
X218730Y308824D01*
X219251Y308478D01*
X219770Y308128D01*
X220288Y307771D01*
X220804Y307410D01*
X221319Y307042D01*
X221833Y306670D01*
X222345Y306292D01*
X222855Y305909D01*
X223363Y305521D01*
X223870Y305127D01*
X224377Y304727D01*
X224880Y304324D01*
X225382Y303914D01*
X225882Y303500D01*
X226381Y303080D01*
X226879Y302655D01*
X227374Y302225D01*
X227869Y301789D01*
X228360Y301349D01*
X228851Y300903D01*
X229339Y300453D01*
X229715Y300100D01*
X229620Y299704D01*
X229477Y299500D01*
X224000D01*
Y295000D01*
X232000D01*
Y297018D01*
X232600Y297262D01*
X232703Y297157D01*
X233176Y296666D01*
X233646Y296171D01*
X234115Y295670D01*
X234581Y295165D01*
X235046Y294654D01*
X235508Y294140D01*
X235968Y293620D01*
X236426Y293095D01*
X236883Y292565D01*
X237336Y292031D01*
X237787Y291492D01*
X238236Y290949D01*
X238684Y290399D01*
X239127Y289847D01*
X239570Y289289D01*
X240009Y288727D01*
X240447Y288160D01*
X240882Y287589D01*
X241315Y287013D01*
X241745Y286433D01*
X242173Y285847D01*
X242598Y285258D01*
X243021Y284665D01*
X243441Y284067D01*
X243859Y283464D01*
X244274Y282857D01*
X244687Y282246D01*
X245097Y281630D01*
X245504Y281012D01*
X245909Y280387D01*
X246311Y279759D01*
X246710Y279127D01*
X247108Y278490D01*
X247501Y277850D01*
X247893Y277204D01*
X248281Y276556D01*
X248668Y275903D01*
X249050Y275246D01*
X249431Y274586D01*
X249809Y273919D01*
X250183Y273251D01*
X250554Y272580D01*
X250923Y271903D01*
X251290Y271221D01*
X251653Y270538D01*
X252013Y269850D01*
X252369Y269160D01*
X252724Y268463D01*
X253076Y267764D01*
X253424Y267061D01*
X253768Y266357D01*
X254110Y265648D01*
X254450Y264933D01*
X254786Y264216D01*
X255120Y263495D01*
X255450Y262771D01*
X255777Y262044D01*
X256100Y261314D01*
X256421Y260578D01*
X256739Y259842D01*
X257053Y259101D01*
X257364Y258357D01*
X257673Y257609D01*
X257977Y256860D01*
X258278Y256106D01*
X258577Y255349D01*
X258872Y254589D01*
X259164Y253826D01*
X259452Y253062D01*
X259737Y252292D01*
X260019Y251520D01*
X260298Y250746D01*
X260573Y249969D01*
X260845Y249189D01*
X261114Y248405D01*
X261379Y247619D01*
X261641Y246829D01*
X261899Y246038D01*
X261901Y246030D01*
X261470Y245411D01*
X257188Y244183D01*
Y244183D01*
X257122Y243755D01*
X254473Y242995D01*
X253164Y246595D01*
Y256821D01*
X253094Y257172D01*
X252895Y257470D01*
X251137Y259228D01*
X250839Y259427D01*
X250488Y259497D01*
X244098D01*
X244076Y259521D01*
X243833Y260097D01*
X243972Y260305D01*
X244064Y260770D01*
Y266123D01*
X244175Y266289D01*
X244268Y266754D01*
X244268Y266754D01*
Y270140D01*
X244175Y270605D01*
X243912Y270999D01*
X243912Y270999D01*
X240815Y274096D01*
X240421Y274359D01*
X239956Y274451D01*
X239956Y274451D01*
X236940D01*
X236853Y274663D01*
X236462Y275053D01*
X236043Y275227D01*
X224912Y286358D01*
X224518Y286621D01*
X224054Y286714D01*
X224053Y286714D01*
X216003D01*
X206714Y296003D01*
Y303635D01*
X206714Y303635D01*
X206622Y304100D01*
X206358Y304494D01*
X206358Y304494D01*
X206149Y304703D01*
Y307729D01*
X207177D01*
Y307500D01*
X209201D01*
Y306500D01*
X207177D01*
Y305410D01*
X207577D01*
Y303841D01*
X210583D01*
Y303833D01*
X212421D01*
Y306111D01*
X212921D01*
Y306611D01*
X215260D01*
Y308390D01*
X214860D01*
Y310508D01*
X215460Y310853D01*
X215579Y310784D01*
D02*
G37*
G36*
X195740Y306611D02*
X198079D01*
Y306111D01*
X198579D01*
Y303833D01*
X200417D01*
Y303841D01*
X201682D01*
X201799Y303818D01*
X203601D01*
X204286Y303133D01*
Y295500D01*
X204286Y295500D01*
X204379Y295036D01*
X204642Y294642D01*
X214642Y284642D01*
X215036Y284379D01*
X215500Y284286D01*
X215500Y284286D01*
X223551D01*
X234327Y273510D01*
X234428Y273265D01*
X234203Y272791D01*
X234078Y272665D01*
X233794D01*
X233443Y272595D01*
X233145Y272396D01*
X231037Y270288D01*
X230838Y269990D01*
X230768Y269639D01*
Y249976D01*
X230437Y249644D01*
X230238Y249347D01*
X230168Y248995D01*
Y235796D01*
X226728Y232355D01*
X226173Y232585D01*
Y233906D01*
X222819D01*
Y230945D01*
X224533D01*
X224763Y230391D01*
X213010Y218638D01*
X210507D01*
X210249Y218896D01*
X209739Y219107D01*
X209187D01*
X208672Y219543D01*
Y222780D01*
X208602Y223131D01*
X208403Y223428D01*
X195434Y236397D01*
X195664Y236952D01*
X197255D01*
Y238427D01*
X195055D01*
Y239427D01*
X197255D01*
Y240902D01*
X197255D01*
X196855Y241302D01*
Y243869D01*
X196925D01*
Y253318D01*
Y262767D01*
X195350D01*
Y261792D01*
X181015D01*
Y263130D01*
X181088Y263307D01*
Y263859D01*
X180877Y264369D01*
X180487Y264759D01*
X180464Y264769D01*
X180583Y265369D01*
X200050D01*
X200280Y264814D01*
X199524Y264059D01*
X199326Y263761D01*
X199256Y263410D01*
Y262767D01*
X198303D01*
Y253318D01*
Y243869D01*
X199878D01*
Y243869D01*
X200468D01*
Y243869D01*
X202664D01*
Y241111D01*
X202264D01*
Y239332D01*
X204602D01*
Y238832D01*
X205102D01*
Y236553D01*
X208039D01*
Y238832D01*
X209039D01*
Y236553D01*
X210591D01*
Y234906D01*
X214445D01*
Y234405D01*
X214945D01*
Y230945D01*
X218299D01*
Y230945D01*
X218465D01*
Y230945D01*
X221819D01*
Y234405D01*
X222319D01*
Y234906D01*
X226173D01*
Y237866D01*
X225773Y238038D01*
Y244159D01*
X220350D01*
Y252629D01*
X218087D01*
Y253318D01*
X217398D01*
Y262767D01*
X216092D01*
X215448Y263410D01*
X215022Y263695D01*
X214519Y263795D01*
X213041D01*
X210248Y266588D01*
X209822Y266873D01*
X209319Y266973D01*
X205834D01*
X205019Y267788D01*
X204592Y268073D01*
X204089Y268173D01*
X161104D01*
X160601Y268073D01*
X160486Y267997D01*
X156757D01*
X154041Y270713D01*
X154271Y271268D01*
X224583D01*
X224974Y271268D01*
X224974Y271268D01*
X224974Y271268D01*
X225331Y271338D01*
X225742Y271420D01*
X225742Y271420D01*
X225742Y271420D01*
X226466Y271720D01*
X227117Y272155D01*
X227671Y272709D01*
X228106Y273360D01*
X228405Y274083D01*
X228558Y274851D01*
X228558Y275243D01*
X228558Y275243D01*
Y275635D01*
X228405Y276403D01*
X228106Y277126D01*
X227671Y277777D01*
X227117Y278331D01*
X226466Y278766D01*
X225742Y279066D01*
X224974Y279219D01*
X224583D01*
X224583Y279219D01*
X150173Y279219D01*
X149782Y279219D01*
X149014Y279066D01*
X148290Y278766D01*
X147669Y278351D01*
X147210Y278332D01*
X146679Y278752D01*
Y284620D01*
X139770D01*
Y281598D01*
X135626D01*
X135450Y281563D01*
X131781D01*
X131551Y282117D01*
X150050Y300616D01*
X154446D01*
X154573Y300499D01*
X154672Y300299D01*
X158373Y298804D01*
X161854Y297397D01*
X161973Y298373D01*
X161836Y299352D01*
X161711Y299647D01*
X162042Y300147D01*
X164297D01*
X164756Y300337D01*
X171753Y307335D01*
X195740D01*
Y306611D01*
D02*
G37*
G36*
X130316Y272108D02*
Y268081D01*
X130955Y267442D01*
X131781D01*
X132270Y266953D01*
Y263001D01*
X136222D01*
X138500Y260723D01*
Y258227D01*
X136153D01*
Y258809D01*
X133185D01*
Y259310D01*
X132685D01*
Y261392D01*
X130602D01*
Y261588D01*
X128764D01*
Y259310D01*
X128264D01*
Y258809D01*
X125925D01*
Y258227D01*
X119320D01*
Y270834D01*
X119526Y271222D01*
X119892Y271903D01*
X120261Y272580D01*
X120561Y273123D01*
X121090Y273007D01*
X121161Y272968D01*
Y269455D01*
X124878D01*
X128595D01*
Y273045D01*
X129149Y273275D01*
X130316Y272108D01*
D02*
G37*
G36*
X234963Y269073D02*
Y268947D01*
X236938D01*
Y267947D01*
X234963D01*
X234963Y266247D01*
X234512Y266025D01*
X234407Y265955D01*
X233807Y266276D01*
Y268766D01*
X234363Y269322D01*
X234963Y269073D01*
D02*
G37*
G36*
X124587Y278765D02*
Y275829D01*
X126661D01*
Y278798D01*
X127661D01*
Y275829D01*
X129736D01*
Y275829D01*
X130252Y276032D01*
X134056D01*
X134139Y275909D01*
X133818Y275309D01*
X131870D01*
Y269455D01*
X135587D01*
X139303D01*
Y270413D01*
X139857Y270642D01*
X148000Y262500D01*
Y258227D01*
X146783D01*
Y258809D01*
X143815D01*
X140847D01*
Y258227D01*
X139149D01*
Y260723D01*
X138959Y261182D01*
X138095Y262047D01*
X138324Y262601D01*
X139303D01*
Y268455D01*
X135587D01*
X131870D01*
Y268151D01*
X131781Y268092D01*
X131224D01*
X130965Y268350D01*
Y272108D01*
X130775Y272567D01*
X129608Y273734D01*
X129489Y273783D01*
X129397Y273875D01*
X129268D01*
X129149Y273924D01*
X129029Y273875D01*
X128900D01*
X128795Y273831D01*
X128194Y274232D01*
Y274909D01*
X122238D01*
X121918Y275510D01*
X122148Y275903D01*
X122535Y276557D01*
X122923Y277205D01*
X123314Y277850D01*
X123708Y278490D01*
X123987Y278937D01*
X124587Y278765D01*
D02*
G37*
G36*
X143724Y271406D02*
X147079D01*
Y271406D01*
X147678Y271795D01*
X147920Y271146D01*
X147786Y270821D01*
Y270269D01*
X147997Y269759D01*
X148387Y269369D01*
X148897Y269158D01*
X149449D01*
X149626Y269231D01*
X151806D01*
X152391Y268646D01*
X152214Y267974D01*
X151697Y267760D01*
X151085Y267148D01*
X150754Y266349D01*
Y265484D01*
X151085Y264684D01*
X151697Y264073D01*
X152497Y263741D01*
X153362D01*
X154161Y264073D01*
X154773Y264684D01*
X154996Y265224D01*
X155595Y265476D01*
X155700Y265475D01*
X155710Y265469D01*
X156213Y265369D01*
X157598D01*
X157914Y264984D01*
Y262767D01*
X157358D01*
Y253318D01*
X156669D01*
Y252629D01*
X154405D01*
Y246300D01*
X153851Y246070D01*
X153156Y246765D01*
Y248507D01*
X150006D01*
Y245080D01*
X149831Y244905D01*
X149620Y244395D01*
Y243843D01*
X149831Y243333D01*
X150221Y242943D01*
X150731Y242732D01*
X151283D01*
X151639Y242879D01*
X153599Y240919D01*
Y240528D01*
X153810Y240018D01*
X154201Y239628D01*
X154711Y239417D01*
X155263D01*
X155774Y238979D01*
X155774Y238300D01*
X155374Y237866D01*
X155374Y237603D01*
Y234906D01*
X163083D01*
Y237603D01*
X163083Y237866D01*
X162984Y237974D01*
X163026Y238752D01*
X163194Y238896D01*
X163746D01*
X164256Y239107D01*
X164515Y239366D01*
X175575D01*
X175846Y239095D01*
X176356Y238884D01*
X176908D01*
X177418Y239095D01*
X177808Y239485D01*
X178019Y239995D01*
Y240547D01*
X177808Y241057D01*
X177418Y241447D01*
X176908Y241659D01*
X176356D01*
X175846Y241447D01*
X175600Y241201D01*
X164515D01*
X164256Y241460D01*
X163746Y241671D01*
X163194D01*
X162683Y242108D01*
Y244159D01*
X160543D01*
Y244844D01*
X181342D01*
Y244740D01*
X181412Y244389D01*
X181611Y244091D01*
X186778Y238924D01*
Y236067D01*
X186404D01*
X185894Y235856D01*
X185614Y235576D01*
X185095Y235712D01*
X185014Y235760D01*
Y236281D01*
Y237445D01*
X183235D01*
Y235106D01*
X182235D01*
Y237445D01*
X180456D01*
Y237045D01*
X177134D01*
Y237045D01*
X173788D01*
Y237445D01*
X172009D01*
Y235106D01*
X171509D01*
Y234606D01*
X169230D01*
Y232768D01*
X169632D01*
Y224861D01*
X173461D01*
X173579Y224837D01*
X173579Y224837D01*
X174651D01*
X175522Y223966D01*
Y223227D01*
X175034Y222901D01*
X174482D01*
X173972Y222690D01*
X173582Y222299D01*
X173371Y221789D01*
Y221237D01*
X173582Y220727D01*
X173972Y220337D01*
X174173Y220254D01*
X174246Y219636D01*
X173013Y218403D01*
X168720D01*
X163055Y224068D01*
X163055Y224068D01*
X160491Y226631D01*
X160193Y226830D01*
X159842Y226900D01*
X158311D01*
X146981Y238230D01*
Y243208D01*
X147239Y243467D01*
X147450Y243976D01*
Y244528D01*
X147703Y244907D01*
X149206D01*
Y246554D01*
X149237Y246707D01*
X149206Y246859D01*
Y248507D01*
X146100D01*
Y250147D01*
X146384D01*
Y253487D01*
X146783D01*
Y255069D01*
X143815D01*
X140847D01*
Y253487D01*
X141246D01*
Y250147D01*
X142889D01*
Y249354D01*
X142520Y248907D01*
X141045D01*
Y246707D01*
Y244507D01*
X142520D01*
Y244507D01*
X142954Y244907D01*
X144423D01*
X144676Y244528D01*
Y243976D01*
X144887Y243467D01*
X145145Y243208D01*
Y239153D01*
X144591Y238923D01*
X139607Y243907D01*
X139636Y244507D01*
X140045D01*
Y246707D01*
Y248907D01*
X139432D01*
X139319Y249076D01*
X136351Y252044D01*
X136053Y252243D01*
X135754Y252302D01*
Y253512D01*
X131108D01*
X130617Y253512D01*
X130602Y254106D01*
Y255064D01*
X125925D01*
Y253285D01*
X126464D01*
X126464Y250588D01*
X126064Y250153D01*
X126064Y250119D01*
Y248678D01*
X130464D01*
Y249610D01*
X130617Y250147D01*
X131051Y250147D01*
X132933D01*
X133368Y249629D01*
Y249077D01*
X133580Y248567D01*
X133652Y248495D01*
Y248284D01*
X131556Y246188D01*
X131247D01*
X131041Y246147D01*
X130649Y246366D01*
X130464Y246552D01*
Y247678D01*
X128764D01*
Y246203D01*
X130033D01*
X130282Y245603D01*
X129303Y244625D01*
X128631D01*
X128496Y244760D01*
X127986Y244971D01*
X127434D01*
X126924Y244760D01*
X126534Y244369D01*
X126323Y243859D01*
Y243307D01*
X126168Y243016D01*
X125972Y242744D01*
X125674Y242545D01*
X125513Y242384D01*
X124881Y242450D01*
X124785Y242504D01*
X124444Y242845D01*
X123934Y243057D01*
X123382D01*
X122872Y242845D01*
X122482Y242455D01*
X122271Y241945D01*
Y241797D01*
X122135Y241686D01*
X119650D01*
X119299Y241616D01*
X119001Y241417D01*
X117243Y239659D01*
X117044Y239361D01*
X116974Y239010D01*
Y237744D01*
X115319Y236089D01*
X113016D01*
Y232939D01*
X116337D01*
X116560Y232553D01*
X116493Y232233D01*
X116404Y232139D01*
X113017D01*
Y232139D01*
X112481Y231954D01*
X111929D01*
X111419Y231743D01*
X111029Y231353D01*
X110817Y230843D01*
Y230291D01*
X111029Y229781D01*
X111419Y229391D01*
X111929Y229180D01*
X112481D01*
X113017Y228989D01*
Y228989D01*
X115433D01*
X116023Y228966D01*
Y225089D01*
X119369D01*
Y224689D01*
X121148D01*
Y227028D01*
X122148D01*
Y224689D01*
X123103D01*
Y224689D01*
X124882D01*
Y227028D01*
X125882D01*
Y224689D01*
X127661D01*
Y225089D01*
X128438D01*
X130662Y222866D01*
X131251Y222472D01*
X131613Y222400D01*
Y216606D01*
X131491D01*
Y213260D01*
X131091D01*
Y211481D01*
X135768D01*
Y212232D01*
X136322Y212461D01*
X142375Y206409D01*
X142510Y206081D01*
Y205130D01*
X142440Y205083D01*
X142047Y204494D01*
X141908Y203799D01*
Y200453D01*
X141991Y200035D01*
X141921Y199894D01*
X141573Y199517D01*
X141533Y199496D01*
X141370D01*
X140944Y199880D01*
X140862Y200017D01*
X140948Y200453D01*
Y201626D01*
X136501D01*
Y200453D01*
X136670Y199602D01*
X137152Y198880D01*
X137624Y198565D01*
X137442Y197965D01*
X119947D01*
X117324Y200588D01*
X117362Y200655D01*
X117537Y201308D01*
Y201984D01*
X117362Y202637D01*
X117024Y203223D01*
X116546Y203701D01*
X115960Y204040D01*
X115886Y204059D01*
Y210363D01*
X115816Y210715D01*
X115617Y211012D01*
X105110Y221519D01*
Y221885D01*
X104899Y222395D01*
X104509Y222785D01*
X103999Y222996D01*
X103728D01*
X103263Y223450D01*
X103221Y223551D01*
X103263Y223776D01*
X103426Y224627D01*
X103593Y225477D01*
X103763Y226324D01*
X103936Y227168D01*
X104113Y228012D01*
X104294Y228853D01*
X104479Y229696D01*
X104667Y230533D01*
X104859Y231368D01*
X105054Y232204D01*
X105253Y233035D01*
X105456Y233867D01*
X105662Y234695D01*
X105872Y235519D01*
X106085Y236344D01*
X106301Y237162D01*
X106522Y237982D01*
X106746Y238799D01*
X106973Y239615D01*
X107204Y240425D01*
X107438Y241235D01*
X107676Y242041D01*
X107917Y242846D01*
X108161Y243647D01*
X108410Y244447D01*
X108662Y245245D01*
X108916Y246038D01*
X109175Y246830D01*
X109437Y247618D01*
X109702Y248405D01*
X109971Y249188D01*
X110242Y249968D01*
X110518Y250746D01*
X110796Y251520D01*
X111078Y252293D01*
X111363Y253061D01*
X111651Y253826D01*
X111944Y254590D01*
X112239Y255350D01*
X112537Y256106D01*
X112839Y256860D01*
X113143Y257610D01*
X113451Y258356D01*
X113763Y259102D01*
X114077Y259842D01*
X114394Y260578D01*
X114715Y261313D01*
X115039Y262044D01*
X115366Y262771D01*
X115695Y263494D01*
X116029Y264216D01*
X116364Y264931D01*
X116704Y265646D01*
X117046Y266355D01*
X117392Y267062D01*
X117740Y267764D01*
X118091Y268464D01*
X118671Y268279D01*
Y258227D01*
X118861Y257768D01*
X119320Y257577D01*
X125925D01*
Y256064D01*
X130602D01*
Y257594D01*
X133185D01*
X133351Y257627D01*
X135754D01*
Y257627D01*
X135861Y257699D01*
X136153Y257577D01*
X138500D01*
X138825Y257712D01*
X139149Y257577D01*
X140847D01*
Y256069D01*
X143815D01*
X146783D01*
Y257577D01*
X148000D01*
X148459Y257768D01*
X148649Y258227D01*
Y262500D01*
X148459Y262959D01*
X140613Y270806D01*
X140861Y271406D01*
X142724D01*
Y274866D01*
X143724D01*
Y271406D01*
D02*
G37*
G36*
X204037Y263367D02*
X203788Y262767D01*
X203421D01*
Y253318D01*
X202043D01*
Y262767D01*
X201676D01*
X201428Y263367D01*
X202413Y264352D01*
X203051D01*
X204037Y263367D01*
D02*
G37*
G36*
X251329Y256441D02*
Y246433D01*
X251360Y246277D01*
X251384Y246119D01*
X252555Y242901D01*
X252282Y242367D01*
X250298Y241798D01*
X250368Y241553D01*
X249909Y241371D01*
X249415Y241722D01*
Y248452D01*
X249907D01*
Y251798D01*
X250307D01*
Y253577D01*
X247969D01*
X245630D01*
Y251798D01*
X245135Y251545D01*
X244174D01*
X244174Y251545D01*
X243640Y252027D01*
X243634Y252049D01*
Y253577D01*
X238913D01*
Y254577D01*
X243634D01*
Y257662D01*
X250108D01*
X251329Y256441D01*
D02*
G37*
G36*
X254021Y239076D02*
X254037Y239064D01*
X254048Y239047D01*
X254477Y238619D01*
X254567Y238559D01*
X254646Y238485D01*
X259710Y235387D01*
X260778Y231661D01*
X260880Y231283D01*
X260665Y230843D01*
X260540Y230673D01*
X257733Y230102D01*
X258451Y226574D01*
X261127Y227119D01*
X261820Y226724D01*
X262033Y225675D01*
X266541Y226592D01*
X267074Y226218D01*
X267223Y225477D01*
X267345Y224851D01*
X267148Y224325D01*
X262500Y223379D01*
X262703Y222382D01*
X262323Y221918D01*
X258984D01*
X258726Y222176D01*
X258216Y222387D01*
X257664D01*
X257179Y222711D01*
Y226316D01*
X257667Y226415D01*
X256949Y229943D01*
X255928Y229735D01*
X255899Y229755D01*
X255870Y229760D01*
X249415Y236216D01*
Y238185D01*
X251188Y238693D01*
X251290Y238337D01*
X253998Y239114D01*
X254021Y239076D01*
D02*
G37*
G36*
X246030Y248452D02*
X246585D01*
Y239251D01*
Y235630D01*
X246693Y235088D01*
X247000Y234629D01*
X254182Y227447D01*
X254252Y227400D01*
X254350Y226918D01*
Y222711D01*
X253866Y222387D01*
X253314D01*
X252804Y222176D01*
X252546Y221918D01*
X236746D01*
X236395Y221848D01*
X236097Y221649D01*
X230483Y216035D01*
X229929Y216265D01*
Y227870D01*
X235335Y233276D01*
X235534Y233573D01*
X235603Y233925D01*
Y234182D01*
X236445D01*
Y236157D01*
X237445D01*
Y234182D01*
X240382D01*
Y236157D01*
X240882D01*
Y236657D01*
X243082D01*
Y238132D01*
X243082D01*
X242682Y238566D01*
Y241458D01*
X242772Y241767D01*
X243113Y242089D01*
X243315Y242129D01*
X243709Y242392D01*
X243972Y242786D01*
X244064Y243250D01*
Y248505D01*
X244677Y249117D01*
X246030D01*
Y248452D01*
D02*
G37*
G36*
X258433Y239839D02*
X258712Y238866D01*
X263075Y240117D01*
X263771Y239863D01*
X263843Y239612D01*
X264069Y238800D01*
X264165Y238451D01*
X263918Y237921D01*
X260627Y236977D01*
X256770Y239337D01*
X256851Y239932D01*
X257712Y240178D01*
X258433Y239839D01*
D02*
G37*
G36*
X136706Y246341D02*
X137258D01*
X137752Y246011D01*
Y243547D01*
X137822Y243196D01*
X138021Y242898D01*
X150330Y230588D01*
X150101Y230034D01*
X137497D01*
X136802Y229896D01*
X136213Y229502D01*
X132687Y225976D01*
X131007Y227657D01*
Y228966D01*
X128547D01*
X128380Y229133D01*
X128210Y229388D01*
X127753Y229845D01*
Y230763D01*
X130809D01*
Y231130D01*
X130950D01*
X131301Y231200D01*
X131599Y231398D01*
X132258Y232057D01*
X132457Y232355D01*
X132527Y232706D01*
Y234854D01*
X132785Y235112D01*
X132996Y235622D01*
Y236174D01*
X132960Y236261D01*
X133469Y236601D01*
X135378Y234692D01*
Y233541D01*
X135119Y233282D01*
X134908Y232772D01*
Y232220D01*
X135119Y231710D01*
X135510Y231320D01*
X136020Y231109D01*
X136571D01*
X137081Y231320D01*
X137472Y231710D01*
X137683Y232220D01*
Y232630D01*
X138118Y232894D01*
X138119Y232894D01*
X138555Y232545D01*
Y232306D01*
X138767Y231796D01*
X139157Y231406D01*
X139667Y231194D01*
X140219D01*
X140729Y231406D01*
X141119Y231796D01*
X141330Y232306D01*
Y232858D01*
X141314Y232898D01*
X141714Y233498D01*
X141777D01*
X142287Y233709D01*
X142677Y234099D01*
X142888Y234609D01*
Y235161D01*
X142677Y235671D01*
X142287Y236062D01*
X141865Y236236D01*
X141804Y236543D01*
X141605Y236841D01*
X138461Y239984D01*
Y240350D01*
X138250Y240860D01*
X137860Y241250D01*
X137350Y241461D01*
X136798D01*
X136288Y241250D01*
X135898Y240860D01*
X135315Y240744D01*
X133514Y242545D01*
X133217Y242744D01*
X133333Y243307D01*
Y243673D01*
X136208Y246548D01*
X136706Y246341D01*
D02*
G37*
G36*
X152915Y227852D02*
X152770Y227241D01*
X152152Y226828D01*
X151670Y226107D01*
X151530Y225405D01*
X150918D01*
X150779Y226107D01*
X150297Y226828D01*
X149575Y227310D01*
X149224Y227380D01*
Y223583D01*
Y219785D01*
X149575Y219855D01*
X150297Y220337D01*
X150779Y221058D01*
X150918Y221760D01*
X151530D01*
X151670Y221058D01*
X152152Y220337D01*
X152873Y219855D01*
X153724Y219686D01*
X154016Y219744D01*
X154214Y219176D01*
X153824Y218786D01*
X153613Y218276D01*
Y217724D01*
X153824Y217214D01*
X154214Y216824D01*
X154724Y216613D01*
X155276D01*
X155786Y216824D01*
X156176Y217214D01*
X156387Y217724D01*
X156445Y217749D01*
X157044Y217357D01*
Y216310D01*
X157701D01*
Y215470D01*
X157442Y215211D01*
X157231Y214701D01*
Y214149D01*
X157260Y214078D01*
X156859Y213478D01*
X151392D01*
X145391Y219478D01*
Y219704D01*
X145180Y220214D01*
X145009Y220625D01*
X145402Y221215D01*
X145540Y221909D01*
Y225256D01*
X145402Y225951D01*
X145009Y226540D01*
X144419Y226934D01*
X143724Y227072D01*
X143029Y226934D01*
X142440Y226540D01*
X142047Y225951D01*
X141908Y225256D01*
Y221909D01*
X142017Y221363D01*
X141641Y221002D01*
X141535Y220946D01*
X141312Y221039D01*
X140524Y221827D01*
X140540Y221909D01*
Y225256D01*
X140402Y225951D01*
X140008Y226540D01*
X139419Y226934D01*
X138724Y227072D01*
X138030Y226934D01*
X137440Y226540D01*
X137047Y225951D01*
X136908Y225256D01*
Y221909D01*
X137047Y221215D01*
X137440Y220625D01*
X138030Y220232D01*
X138724Y220093D01*
X138807Y220110D01*
X139595Y219322D01*
X139769Y218903D01*
X140159Y218513D01*
X140293Y218457D01*
X140342Y218122D01*
X140331Y217824D01*
X140303Y217765D01*
X139992Y217454D01*
X139781Y216944D01*
Y216392D01*
X139992Y215882D01*
X140382Y215492D01*
X140892Y215281D01*
X141444D01*
X141800Y215428D01*
X149550Y207678D01*
X149848Y207479D01*
X150038Y206829D01*
X148807Y205599D01*
X148724Y205615D01*
X148029Y205477D01*
X147440Y205083D01*
X147047Y204494D01*
X146908Y203799D01*
Y200453D01*
X147047Y199758D01*
X147440Y199169D01*
X148029Y198775D01*
X148724Y198637D01*
X149419Y198775D01*
X150008Y199169D01*
X150402Y199758D01*
X150540Y200453D01*
Y203799D01*
X150524Y203882D01*
X151706Y205064D01*
X152172Y204681D01*
X152047Y204494D01*
X151908Y203799D01*
Y200453D01*
X152047Y199758D01*
X152121Y199646D01*
X152380Y199122D01*
X151990Y198732D01*
X151779Y198222D01*
Y197856D01*
X151363Y197440D01*
X145694D01*
Y198097D01*
X145205D01*
X145023Y198697D01*
X145297Y198880D01*
X145779Y199602D01*
X145948Y200453D01*
Y201626D01*
X143724D01*
Y202626D01*
X145948D01*
Y203799D01*
X145779Y204650D01*
X145297Y205372D01*
X144575Y205854D01*
X143787Y206011D01*
Y206713D01*
X135944Y214556D01*
X135768D01*
Y217006D01*
X133550D01*
Y224271D01*
X137497Y228218D01*
X137497D01*
X137497Y228218D01*
X137497Y228218D01*
X152610Y228218D01*
X152915Y227852D01*
D02*
G37*
G36*
X185894Y233504D02*
X186404Y233293D01*
X186955D01*
X187311Y233440D01*
X191190Y229561D01*
X191042Y229206D01*
Y228654D01*
X191253Y228144D01*
X190961Y227588D01*
X189937D01*
Y227988D01*
X188159D01*
Y225650D01*
X187659D01*
Y225150D01*
X185380D01*
Y223681D01*
X185349D01*
X185337Y223661D01*
X184791Y223284D01*
X184610Y223320D01*
X184146Y223228D01*
X183752Y222965D01*
X183500D01*
X183106Y223228D01*
X182642Y223320D01*
X182177Y223228D01*
X181783Y222965D01*
X181532D01*
X181138Y223228D01*
X180673Y223320D01*
X180204Y223746D01*
X180167Y224215D01*
X180234Y224281D01*
X180642Y224689D01*
X180814Y224861D01*
X184612D01*
Y232768D01*
X185014D01*
Y233079D01*
Y233599D01*
X185095Y233648D01*
X185614Y233784D01*
X185894Y233504D01*
D02*
G37*
G36*
X177660Y232940D02*
X177776Y232643D01*
X177868Y232178D01*
X178131Y231785D01*
X178823Y231093D01*
X178823Y231093D01*
X179217Y230830D01*
X179475Y230778D01*
Y226940D01*
X179429Y226909D01*
X179429Y226909D01*
X178128Y225608D01*
X177720Y225393D01*
X177313Y225608D01*
X176012Y226909D01*
X175618Y227173D01*
X175154Y227265D01*
X174769Y227675D01*
Y230778D01*
X175027Y230830D01*
X175421Y231093D01*
X176113Y231785D01*
X176113Y231785D01*
X176376Y232178D01*
X176469Y232643D01*
X176594Y232966D01*
X177017Y233131D01*
X177660Y232940D01*
D02*
G37*
G36*
X198547Y223901D02*
X198464Y223594D01*
X198298Y223302D01*
X197925Y223228D01*
X197531Y222965D01*
X197280D01*
X196886Y223228D01*
X196421Y223320D01*
X195957Y223228D01*
X195563Y222965D01*
X195311D01*
X194917Y223228D01*
X194453Y223320D01*
X193988Y223228D01*
X193443Y223374D01*
X193351Y223790D01*
X193667Y224152D01*
X193797Y224262D01*
X194349D01*
X194859Y224473D01*
X195249Y224864D01*
X195460Y225374D01*
Y225926D01*
X195309Y226290D01*
X195818Y226630D01*
X198547Y223901D01*
D02*
G37*
G36*
X156785Y224134D02*
X157082Y223935D01*
X157434Y223865D01*
X158965D01*
X161965Y220865D01*
X161736Y220310D01*
X161158D01*
X161143Y220332D01*
X160616Y220859D01*
X160318Y221058D01*
X159967Y221128D01*
X157210D01*
X156859Y221058D01*
X156561Y220859D01*
X155977Y220274D01*
X155511Y220657D01*
X155779Y221058D01*
X155948Y221909D01*
Y223083D01*
X153724D01*
Y224083D01*
X155948D01*
Y224186D01*
X156503Y224416D01*
X156785Y224134D01*
D02*
G37*
G36*
X228094Y226948D02*
Y217327D01*
X228088Y217313D01*
X227979Y217168D01*
X227600Y216887D01*
X227461D01*
X227324Y216915D01*
X227187Y216887D01*
X227048D01*
X226919Y216834D01*
X226783Y216807D01*
X226667Y216729D01*
X226538Y216676D01*
X226440Y216578D01*
X226324Y216500D01*
X226246Y216384D01*
X226148Y216286D01*
X226095Y216157D01*
X226017Y216041D01*
X225990Y215905D01*
X225937Y215776D01*
Y215637D01*
X225909Y215500D01*
Y214654D01*
X225561D01*
Y211624D01*
X225499Y211544D01*
X225331Y211479D01*
X224761Y211900D01*
Y214654D01*
X221988D01*
Y215037D01*
X220150D01*
Y212759D01*
X219150D01*
Y215037D01*
X217311D01*
Y213601D01*
X216711Y213292D01*
X216571Y213385D01*
X216235Y213452D01*
X215798Y213967D01*
Y214519D01*
X215587Y215029D01*
X215489Y215127D01*
X227539Y227178D01*
X228094Y226948D01*
D02*
G37*
G36*
X227636Y206717D02*
X227903D01*
X228015Y206117D01*
X222543Y200645D01*
X221988Y200875D01*
Y201033D01*
X220150D01*
Y199254D01*
X220368D01*
X220597Y198700D01*
X219028Y197131D01*
X217301D01*
X217069Y197472D01*
X216986Y197658D01*
X217228Y198020D01*
X217320Y198484D01*
X217284Y198665D01*
X217661Y199211D01*
X217732Y199254D01*
X219150D01*
Y201533D01*
X219650D01*
Y202033D01*
X221988D01*
Y203811D01*
X221588D01*
Y206527D01*
X221611Y207117D01*
X222172Y207117D01*
X224727D01*
X225161Y206717D01*
Y206717D01*
X226636D01*
Y208917D01*
X227636D01*
Y206717D01*
D02*
G37*
G36*
X103249Y220303D02*
X103447Y220221D01*
X103813D01*
X111788Y212246D01*
X111540Y211646D01*
X111304D01*
X110366Y211258D01*
X109649Y210540D01*
X109260Y209603D01*
Y208588D01*
X109649Y207650D01*
X110366Y206933D01*
X111304Y206544D01*
X112318D01*
X113256Y206933D01*
X113451Y207128D01*
X114051Y206879D01*
Y204059D01*
X113977Y204040D01*
X113391Y203701D01*
X112913Y203223D01*
X112815Y203053D01*
X112122D01*
X112024Y203223D01*
X111546Y203701D01*
X110960Y204040D01*
X110307Y204215D01*
X109630D01*
X108977Y204040D01*
X108391Y203701D01*
X107913Y203223D01*
X107575Y202637D01*
X107400Y201984D01*
Y201308D01*
X107575Y200655D01*
X107913Y200069D01*
X108391Y199591D01*
X108562Y199492D01*
Y198800D01*
X108391Y198701D01*
X107913Y198223D01*
X107575Y197637D01*
X107400Y196984D01*
Y196308D01*
X107575Y195655D01*
X107913Y195069D01*
X108223Y194759D01*
X108217Y194063D01*
X108146Y194021D01*
X107593Y193469D01*
X107202Y192792D01*
X107029Y192146D01*
X109968D01*
Y191146D01*
X107029D01*
X107202Y190500D01*
X107593Y189823D01*
X107865Y189552D01*
X108080Y189146D01*
X107865Y188740D01*
X107593Y188469D01*
X107202Y187792D01*
X107029Y187146D01*
X109968D01*
Y186146D01*
X107029D01*
X107202Y185500D01*
X107593Y184823D01*
X108146Y184271D01*
X108217Y184229D01*
X108223Y183533D01*
X107913Y183223D01*
X107575Y182637D01*
X107400Y181984D01*
Y181308D01*
X107575Y180655D01*
X107913Y180069D01*
X108391Y179591D01*
X108977Y179253D01*
X109630Y179077D01*
X110307D01*
X110712Y179186D01*
X112466Y177432D01*
X112466Y177432D01*
X112860Y177169D01*
X113324Y177076D01*
X116358D01*
X116359Y177076D01*
X116823Y177169D01*
X117217Y177432D01*
X119183Y179398D01*
X119183Y179398D01*
X119446Y179791D01*
X119538Y180256D01*
Y183056D01*
X120383Y183900D01*
X120383Y183900D01*
X120646Y184294D01*
X120738Y184759D01*
X120738Y184759D01*
Y187559D01*
X121583Y188403D01*
X121583Y188403D01*
X121846Y188797D01*
X121938Y189262D01*
X121938Y189262D01*
Y191417D01*
X122464Y191943D01*
X140715D01*
X140831Y191827D01*
X140831Y191827D01*
X141224Y191564D01*
X141689Y191472D01*
X142094D01*
Y190997D01*
X145694D01*
Y190997D01*
X146207Y191185D01*
X146759D01*
X147269Y191396D01*
X147660Y191786D01*
X147871Y192296D01*
Y192848D01*
X147660Y193358D01*
X147269Y193748D01*
X147134Y193805D01*
X147253Y194405D01*
X151118D01*
X151212Y194177D01*
X151603Y193787D01*
X152113Y193576D01*
X152665D01*
X152931Y193686D01*
X153532Y193360D01*
Y193174D01*
X155870D01*
Y192674D01*
X156370D01*
Y190396D01*
X158209D01*
Y192209D01*
X159206D01*
Y194547D01*
X160206D01*
Y192209D01*
X161985D01*
Y192609D01*
X165247D01*
X165272Y192579D01*
X165395Y191958D01*
X165747Y191432D01*
X165929Y191310D01*
X165772Y191075D01*
X165680Y190610D01*
X165770Y190159D01*
X165772Y190145D01*
X165442Y189559D01*
X153270D01*
X153176Y189786D01*
X152786Y190176D01*
X152276Y190387D01*
X151724D01*
X151214Y190176D01*
X150824Y189786D01*
X150613Y189276D01*
Y188724D01*
X150824Y188214D01*
X151214Y187824D01*
X151724Y187613D01*
X152276D01*
X152570Y187734D01*
X152622Y187724D01*
X161266D01*
X161596Y187230D01*
Y186865D01*
X144864Y170132D01*
X144665Y169835D01*
X144595Y169483D01*
Y113286D01*
X144665Y112935D01*
X144864Y112637D01*
X145783Y111718D01*
X145742Y111117D01*
X145610Y111035D01*
X145212Y110902D01*
X140852Y113383D01*
X136555Y116181D01*
X132433Y119231D01*
X128502Y122522D01*
X124774Y126043D01*
X121264Y129780D01*
X117983Y133721D01*
X114945Y137852D01*
X112159Y142156D01*
X110216Y145593D01*
X110399Y146164D01*
X110837Y146369D01*
X111090Y146554D01*
X111357Y146719D01*
X112077Y147389D01*
X112260Y147644D01*
X112463Y147883D01*
X112941Y148742D01*
X113037Y149041D01*
X113156Y149331D01*
X113346Y150296D01*
X113345Y150610D01*
X113369Y150923D01*
X113251Y151899D01*
X113154Y152197D01*
X113080Y152502D01*
X112667Y153395D01*
X112483Y153648D01*
X112318Y153915D01*
X111650Y154637D01*
X111396Y154821D01*
X111158Y155025D01*
X110300Y155505D01*
X110001Y155602D01*
X109712Y155722D01*
X108747Y155915D01*
X108433Y155915D01*
X108121Y155940D01*
X107144Y155825D01*
X106846Y155728D01*
X106541Y155656D01*
X106113Y155459D01*
X105558Y155686D01*
X104728Y157859D01*
X103465Y161702D01*
X102385Y165600D01*
X101987Y167352D01*
Y206654D01*
X102587Y206893D01*
X103430Y206544D01*
X104444D01*
X105382Y206933D01*
X106099Y207650D01*
X106488Y208588D01*
Y209603D01*
X106099Y210540D01*
X105382Y211258D01*
X104444Y211646D01*
X103430D01*
X102587Y211297D01*
X101987Y211537D01*
Y216191D01*
X102095Y216913D01*
X102228Y217775D01*
X102365Y218638D01*
X102505Y219497D01*
X102586Y219978D01*
X102607Y220005D01*
X103217Y220306D01*
X103249Y220303D01*
D02*
G37*
G36*
X161723Y204654D02*
Y204102D01*
X161934Y203592D01*
X162237Y203289D01*
X162235Y202738D01*
X162214Y202630D01*
X161824Y202240D01*
X161613Y201730D01*
Y201178D01*
X161283Y200684D01*
X159466D01*
Y201050D01*
X159255Y201559D01*
X158865Y201950D01*
X158355Y202161D01*
X157803D01*
X157293Y201950D01*
X156903Y201559D01*
X156691Y201050D01*
Y200909D01*
X156200Y200494D01*
X155607Y200580D01*
X155540Y201028D01*
Y203799D01*
X155402Y204494D01*
X155369Y204544D01*
X155689Y205144D01*
X157677D01*
X157832Y204989D01*
X158342Y204778D01*
X158894D01*
X159404Y204989D01*
X159559Y205144D01*
X161395D01*
X161723Y204654D01*
D02*
G37*
G36*
X252804Y219824D02*
X253314Y219613D01*
X253866D01*
X254350Y219289D01*
Y204197D01*
X253826Y203673D01*
X253285D01*
X253148Y203731D01*
X252999Y204089D01*
X252470Y204617D01*
X251780Y204904D01*
X251032D01*
X250936Y204864D01*
X250437Y205197D01*
Y206426D01*
X247674D01*
Y204244D01*
X247174D01*
Y203745D01*
X243910D01*
Y202063D01*
X244310D01*
Y198804D01*
X243916Y198367D01*
X240800Y198367D01*
X240366Y198767D01*
X240332Y198767D01*
X238891D01*
Y196567D01*
Y194367D01*
X240366D01*
X240800Y194767D01*
X240966Y194767D01*
X242256D01*
X242586Y194184D01*
X242584Y194167D01*
X242494Y193716D01*
Y191793D01*
X237039D01*
X236572Y191700D01*
X236177Y191436D01*
X233345Y188605D01*
X233081Y188209D01*
X232988Y187742D01*
Y182292D01*
X233081Y181825D01*
X233345Y181430D01*
X238281Y176495D01*
Y166505D01*
X234995Y163220D01*
X192864D01*
X184948Y171135D01*
X185063Y171713D01*
X185126Y171806D01*
X185469Y172035D01*
X185720D01*
X186114Y171772D01*
X186579Y171680D01*
X187043Y171772D01*
X187437Y172035D01*
X187689D01*
X188083Y171772D01*
X188547Y171680D01*
X189012Y171772D01*
X189406Y172035D01*
X189657D01*
X190051Y171772D01*
X190516Y171680D01*
X190980Y171772D01*
X191374Y172035D01*
X191626D01*
X192020Y171772D01*
X192484Y171680D01*
X193125Y171231D01*
X193126Y171227D01*
X193163Y170963D01*
X191586Y169386D01*
X191049D01*
X190539Y169175D01*
X190148Y168785D01*
X189937Y168275D01*
Y167723D01*
X190148Y167213D01*
X190539Y166823D01*
X191049Y166612D01*
X191601D01*
X192111Y166823D01*
X192501Y167213D01*
X192712Y167723D01*
Y167917D01*
X195102Y170307D01*
X195300Y170605D01*
X195370Y170956D01*
Y171442D01*
X195956Y171772D01*
X195970Y171769D01*
X196421Y171680D01*
X196886Y171772D01*
X197280Y172035D01*
X197531D01*
X197925Y171772D01*
X198390Y171680D01*
X198854Y171772D01*
X199248Y172035D01*
X199500D01*
X199894Y171772D01*
X200358Y171680D01*
X200823Y171772D01*
X200986Y171881D01*
X201475Y171582D01*
X201542Y171466D01*
X201528Y171349D01*
X201528D01*
Y167472D01*
X204874D01*
Y167072D01*
X206652D01*
Y169410D01*
X207152D01*
Y169910D01*
X209431D01*
Y171749D01*
X208042D01*
X207858Y172093D01*
X207777Y172349D01*
X207886Y172894D01*
Y174559D01*
X206264D01*
Y175559D01*
X207886D01*
Y177224D01*
X207762Y177845D01*
X207411Y178371D01*
X206884Y178723D01*
X206814Y178737D01*
Y182102D01*
X208937Y184225D01*
X208984Y184272D01*
X209017Y184352D01*
X209086Y184405D01*
X209124Y184546D01*
X209174Y184731D01*
X209174Y184731D01*
X209372Y185365D01*
X209600Y185459D01*
X210181D01*
X210593Y184859D01*
X210562Y184705D01*
X210654Y184240D01*
X210917Y183846D01*
Y183595D01*
X210654Y183201D01*
X210562Y182736D01*
X210654Y182272D01*
X210917Y181878D01*
X211311Y181615D01*
X211776Y181522D01*
X216106D01*
X216571Y181615D01*
X216965Y181878D01*
X217176Y182195D01*
X221508D01*
X223839Y179864D01*
Y179399D01*
Y178453D01*
X223622Y178236D01*
X222893D01*
X222804Y178218D01*
X217672D01*
Y176646D01*
X217651Y176055D01*
X213774D01*
Y172709D01*
X213374D01*
Y170930D01*
X215713D01*
Y170430D01*
X216213D01*
Y168152D01*
X217272D01*
Y165988D01*
X220528D01*
Y169153D01*
X221028D01*
Y169653D01*
X224783D01*
Y170837D01*
X225075Y171002D01*
X225383Y171057D01*
X226070Y170370D01*
X226333Y170194D01*
Y166388D01*
X233045D01*
Y167960D01*
X233065Y168552D01*
X236943D01*
Y171897D01*
X237343D01*
Y173676D01*
X235004D01*
Y174176D01*
X234504D01*
Y176455D01*
X233445D01*
Y178618D01*
X230189D01*
Y175453D01*
X229189D01*
Y178618D01*
X226874D01*
Y179399D01*
Y180741D01*
X226804Y181092D01*
X226605Y181390D01*
X223034Y184961D01*
X222736Y185160D01*
X222385Y185230D01*
X217187D01*
X216965Y185563D01*
Y185815D01*
X217228Y186209D01*
X217320Y186673D01*
X217228Y187138D01*
X216965Y187531D01*
Y187783D01*
X217228Y188177D01*
X217320Y188642D01*
X217228Y189106D01*
X216965Y189500D01*
Y189752D01*
X217228Y190146D01*
X217320Y190610D01*
X217228Y191075D01*
X216965Y191469D01*
Y191720D01*
X217228Y192114D01*
X217320Y192579D01*
X217228Y193043D01*
X216965Y193437D01*
Y193605D01*
X217396Y194096D01*
X219905D01*
X220256Y194165D01*
X220554Y194364D01*
X230860Y204670D01*
X231059Y204968D01*
X231129Y205319D01*
Y214085D01*
X237126Y220082D01*
X252546D01*
X252804Y219824D01*
D02*
G37*
G36*
X254073Y201919D02*
X252617Y200464D01*
Y188754D01*
X250637Y186775D01*
X250037Y186845D01*
Y187535D01*
X250223Y187572D01*
X250619Y187837D01*
X251496Y188713D01*
X251760Y189109D01*
X251853Y189576D01*
Y191748D01*
X251760Y192215D01*
X251496Y192610D01*
X250619Y193487D01*
X250223Y193751D01*
X250037Y193788D01*
Y198914D01*
X250437D01*
Y200851D01*
X250936Y201184D01*
X251032Y201145D01*
X251780D01*
X252470Y201431D01*
X252999Y201959D01*
X253285Y202650D01*
Y203024D01*
X254073D01*
Y201919D01*
D02*
G37*
G36*
X165170Y197557D02*
X165378Y197049D01*
X165272Y196516D01*
X165247Y196486D01*
X158209D01*
Y197649D01*
X165121D01*
X165170Y197557D01*
D02*
G37*
G36*
X167194Y215636D02*
X167491Y215437D01*
X167842Y215367D01*
X179322D01*
X179460Y215254D01*
Y215148D01*
X179671Y214638D01*
X180062Y214248D01*
X180572Y214037D01*
X181123D01*
X181633Y214248D01*
X182011Y214626D01*
X182282Y214680D01*
X182579Y214879D01*
X183291Y215590D01*
X183373Y215713D01*
X183615Y215795D01*
X183910Y215820D01*
X184082Y215792D01*
X184725Y215149D01*
X185023Y214950D01*
X185374Y214880D01*
X187503D01*
X187761Y214621D01*
X188271Y214410D01*
X188823D01*
X189333Y214621D01*
X189723Y215012D01*
X189935Y215522D01*
Y215658D01*
X190500Y216157D01*
X190516Y216154D01*
X191136Y216277D01*
X191663Y216629D01*
X191784Y216811D01*
X192020Y216654D01*
X192484Y216562D01*
X192949Y216654D01*
X193343Y216917D01*
X193594D01*
X193988Y216654D01*
X194453Y216562D01*
X194917Y216654D01*
X195311Y216917D01*
X195563D01*
X195957Y216654D01*
X196421Y216562D01*
X196886Y216654D01*
X197531Y216367D01*
X198949Y214949D01*
X198949Y214949D01*
X199343Y214686D01*
X199808Y214594D01*
X199808Y214594D01*
X205372D01*
X205791Y214420D01*
X206343D01*
X206853Y214631D01*
X207186Y214965D01*
X209297Y212854D01*
X209181Y212272D01*
X208791Y211882D01*
X208579Y211372D01*
Y210820D01*
X208781Y210334D01*
Y209558D01*
X208781Y209558D01*
X208873Y209093D01*
X208904Y209046D01*
X208794Y208352D01*
X208715Y208272D01*
X208404Y207961D01*
X208193Y207451D01*
Y206899D01*
X208404Y206389D01*
X208794Y205998D01*
X209304Y205787D01*
X209357D01*
X209645Y205500D01*
X209645Y205500D01*
X209809Y205390D01*
X210048Y205196D01*
X210123Y204890D01*
X213941D01*
Y203890D01*
X210253D01*
X210277Y203769D01*
X210629Y203243D01*
X210811Y203121D01*
X210654Y202886D01*
X210562Y202421D01*
X210654Y201957D01*
X210917Y201563D01*
Y201311D01*
X210654Y200917D01*
X210562Y200453D01*
X210654Y199988D01*
X210917Y199594D01*
Y199343D01*
X210654Y198949D01*
X210562Y198484D01*
X210654Y198020D01*
X210917Y197626D01*
Y197374D01*
X210654Y196980D01*
X210562Y196516D01*
X210654Y196051D01*
X210917Y195657D01*
Y195406D01*
X210654Y195012D01*
X210562Y194547D01*
X210654Y194083D01*
X210917Y193689D01*
Y193437D01*
X210654Y193043D01*
X210562Y192579D01*
X210654Y192114D01*
X210917Y191720D01*
Y191469D01*
X210654Y191075D01*
X210562Y190610D01*
X210593Y190456D01*
X210181Y189856D01*
X209772D01*
X209725Y189865D01*
X209725Y189865D01*
X206853D01*
X206457Y190029D01*
X205905D01*
X205395Y189818D01*
X205005Y189428D01*
X204794Y188918D01*
Y188366D01*
X205005Y187856D01*
X205395Y187466D01*
X205905Y187254D01*
X206457D01*
X206899Y187437D01*
X207192D01*
X207518Y186949D01*
Y186397D01*
X207729Y185887D01*
X208120Y185497D01*
X208348Y185403D01*
X208525Y184731D01*
X206165Y182371D01*
Y178419D01*
X205799Y178346D01*
X205564Y178189D01*
X205442Y178371D01*
X204916Y178723D01*
X204295Y178846D01*
X204279Y178843D01*
X203714Y179342D01*
Y179481D01*
X203503Y179991D01*
X203113Y180381D01*
X202603Y180592D01*
X202285D01*
X201956Y180754D01*
X201746Y181115D01*
Y181410D01*
X201534Y181920D01*
X201144Y182310D01*
X200634Y182521D01*
X200082D01*
X199572Y182310D01*
X199182Y181920D01*
X198971Y181410D01*
Y181115D01*
X198760Y180754D01*
X198432Y180592D01*
X198348D01*
X198019Y180754D01*
X197809Y181115D01*
Y181410D01*
X197597Y181920D01*
X197207Y182310D01*
X196697Y182521D01*
X196145D01*
X195635Y182310D01*
X195245Y181920D01*
X195034Y181410D01*
Y180858D01*
X195245Y180348D01*
X195300Y180293D01*
Y178757D01*
X194700Y178389D01*
X194453Y178438D01*
X193988Y178346D01*
X193594Y178083D01*
X193343D01*
X192949Y178346D01*
X192484Y178438D01*
X192337Y178409D01*
X191903Y178929D01*
Y179481D01*
X191692Y179991D01*
X191302Y180381D01*
X190792Y180592D01*
X190474D01*
X190145Y180754D01*
X189935Y181115D01*
Y181410D01*
X189723Y181920D01*
X189333Y182310D01*
X188823Y182521D01*
X188271D01*
X187761Y182310D01*
X187371Y181920D01*
X187160Y181410D01*
Y181115D01*
X186949Y180754D01*
X186620Y180592D01*
X186537D01*
X186208Y180754D01*
X185998Y181115D01*
Y181410D01*
X185786Y181920D01*
X185396Y182310D01*
X184886Y182521D01*
X184334D01*
X183824Y182310D01*
X183434Y181920D01*
X183223Y181410D01*
Y181260D01*
X182774Y180745D01*
X182668Y180719D01*
X182642Y180713D01*
X182515Y180738D01*
X181659Y180568D01*
X181658Y180567D01*
X181656Y180568D01*
X180800Y180738D01*
X180673Y180713D01*
X180546Y180738D01*
X179690Y180568D01*
X179635Y180531D01*
X179568D01*
X179116Y180344D01*
X179069Y180297D01*
X179004Y180284D01*
X178523Y179962D01*
X178451Y179855D01*
X178344Y179783D01*
X178318Y179656D01*
X178247Y179549D01*
X178272Y179422D01*
X178247Y179296D01*
X178311Y178972D01*
X178287Y178763D01*
X177746Y178463D01*
X177357Y178723D01*
X177236Y178747D01*
Y175059D01*
X176736D01*
Y174559D01*
X175115D01*
Y172894D01*
X175115Y172894D01*
X173344D01*
Y178102D01*
X175645Y180402D01*
X175645Y180402D01*
X175908Y180796D01*
X176000Y181261D01*
X176000Y181261D01*
Y184212D01*
X176000Y184212D01*
X175908Y184676D01*
X175645Y185070D01*
X175645Y185070D01*
X173184Y187532D01*
X172805Y187784D01*
X172768Y187813D01*
X172362Y188163D01*
X172401Y188455D01*
X172438Y188642D01*
X172346Y189106D01*
X172083Y189500D01*
Y189752D01*
X172346Y190146D01*
X172438Y190610D01*
X172346Y191075D01*
X172083Y191469D01*
Y191720D01*
X172346Y192114D01*
X172438Y192579D01*
X172346Y193043D01*
X172083Y193437D01*
Y193689D01*
X172346Y194083D01*
X172438Y194547D01*
X172346Y195012D01*
X172189Y195247D01*
X172371Y195369D01*
X172723Y195895D01*
X172747Y196016D01*
X169059D01*
Y197016D01*
X172747D01*
X172723Y197136D01*
X172371Y197662D01*
X172189Y197784D01*
X172346Y198020D01*
X172438Y198484D01*
X172346Y198949D01*
X172083Y199343D01*
Y199594D01*
X172346Y199988D01*
X172438Y200453D01*
X172346Y200917D01*
X172083Y201311D01*
Y201563D01*
X172346Y201957D01*
X172438Y202421D01*
X172346Y202886D01*
X172083Y203280D01*
Y203531D01*
X172346Y203925D01*
X172438Y204390D01*
X172346Y204854D01*
X172083Y205248D01*
Y205500D01*
X172346Y205894D01*
X172438Y206358D01*
X172346Y206823D01*
X172083Y207217D01*
Y207468D01*
X172346Y207862D01*
X172438Y208327D01*
X172346Y208791D01*
X172083Y209185D01*
Y209437D01*
X172346Y209831D01*
X172438Y210295D01*
X172346Y210760D01*
X172083Y211154D01*
Y211405D01*
X172346Y211799D01*
X172438Y212264D01*
X172346Y212728D01*
X172083Y213122D01*
X171689Y213385D01*
X171224Y213478D01*
X164809D01*
X164483Y213966D01*
Y214518D01*
X164272Y215028D01*
X163989Y215310D01*
X164117Y215817D01*
X164173Y215910D01*
X164544D01*
Y217501D01*
X165099Y217731D01*
X167194Y215636D01*
D02*
G37*
G36*
X182957Y180102D02*
X183148Y180001D01*
X183489Y179933D01*
Y179760D01*
Y178757D01*
X182889Y178389D01*
X182642Y178438D01*
X182177Y178346D01*
X181783Y178083D01*
X181532D01*
X181138Y178346D01*
X180673Y178438D01*
X180209Y178346D01*
X179973Y178189D01*
X179851Y178371D01*
X179325Y178723D01*
X179040Y178779D01*
X179002Y178824D01*
X178884Y179422D01*
X179163Y179609D01*
D01*
X179365Y179744D01*
X179817Y179931D01*
X180245Y180016D01*
X180673Y180101D01*
D01*
D01*
X181530Y179931D01*
X181530Y179931D01*
X181531Y179931D01*
X181532Y179930D01*
X181659Y179956D01*
X181785Y179931D01*
X181785Y179931D01*
X181787Y179931D01*
D01*
X182214Y180016D01*
X182642Y180101D01*
X182768Y180076D01*
X182795Y180081D01*
X182810Y180091D01*
X182827Y180089D01*
X182889Y180104D01*
X182957Y180102D01*
D02*
G37*
G36*
X263603Y217959D02*
X267813Y218816D01*
X268040Y218752D01*
X268489Y218397D01*
X268587Y217775D01*
X268720Y216913D01*
X268828Y216191D01*
X268828Y167352D01*
X268431Y165600D01*
X267351Y161702D01*
X266088Y157859D01*
X265258Y155686D01*
X264702Y155459D01*
X264275Y155656D01*
X263970Y155728D01*
X263671Y155825D01*
X262695Y155940D01*
X262382Y155915D01*
X262068Y155915D01*
X261104Y155722D01*
X260814Y155602D01*
X260516Y155505D01*
X259658Y155025D01*
X259419Y154821D01*
X259165Y154637D01*
X258497Y153915D01*
X258333Y153648D01*
X258148Y153395D01*
X257735Y152502D01*
X257662Y152197D01*
X257564Y151899D01*
X257447Y150923D01*
X257470Y150610D01*
X257470Y150296D01*
X257659Y149331D01*
X257778Y149041D01*
X257874Y148742D01*
X258352Y147883D01*
X258555Y147644D01*
X258738Y147389D01*
X259458Y146719D01*
X259725Y146554D01*
X259978Y146369D01*
X260416Y146164D01*
X260599Y145593D01*
X258657Y142156D01*
X255871Y137852D01*
X252832Y133721D01*
X249552Y129780D01*
X246041Y126043D01*
X242314Y122522D01*
X238382Y119231D01*
X234260Y116181D01*
X229963Y113383D01*
X225507Y110847D01*
X220906Y108583D01*
X216179Y106598D01*
X211341Y104899D01*
X206410Y103493D01*
X201403Y102385D01*
X199028Y102007D01*
X171787D01*
X169412Y102385D01*
X164406Y103493D01*
X159475Y104899D01*
X154637Y106598D01*
X153489Y107080D01*
X153608Y107668D01*
X155397D01*
Y112017D01*
X152371D01*
X152119Y112269D01*
X151725Y112532D01*
X151261Y112625D01*
X151261Y112625D01*
X149900D01*
X149815Y112830D01*
X149812Y113386D01*
X149812Y113386D01*
X149812Y113386D01*
Y113972D01*
X150254Y114354D01*
X150412Y114354D01*
X152526D01*
Y116929D01*
Y119504D01*
X150254D01*
Y117718D01*
X149812Y117336D01*
X149654Y117336D01*
X148112D01*
Y115361D01*
X147112D01*
Y117336D01*
X146430D01*
Y169103D01*
X162893Y185567D01*
X163259D01*
X163769Y185778D01*
X164159Y186168D01*
X164371Y186678D01*
Y187230D01*
X164701Y187724D01*
X165442D01*
X165772Y187138D01*
X165770Y187124D01*
X165680Y186673D01*
X165772Y186209D01*
X166035Y185815D01*
Y185563D01*
X165772Y185169D01*
X165680Y184705D01*
X165731Y184448D01*
X165839Y183858D01*
X165445Y183595D01*
X165445Y183595D01*
X164573Y182723D01*
X164310Y182329D01*
X164218Y181865D01*
X164218Y181865D01*
Y180886D01*
X164218Y180886D01*
X164310Y180422D01*
X164573Y180028D01*
X165265Y179336D01*
X165265Y179336D01*
X165659Y179073D01*
X166123Y178981D01*
X166124Y178981D01*
X166871D01*
X167354Y178497D01*
Y164314D01*
X167354Y164314D01*
X167447Y163850D01*
X167710Y163456D01*
X182216Y148950D01*
Y148492D01*
X182042Y148071D01*
Y147519D01*
X182253Y147009D01*
X182643Y146619D01*
X183153Y146408D01*
X183705D01*
X184215Y146619D01*
X184605Y147009D01*
X184817Y147519D01*
Y147809D01*
X185040Y148177D01*
X185360Y148328D01*
X185456D01*
X185775Y148177D01*
X185999Y147809D01*
Y147519D01*
X186210Y147009D01*
X186600Y146619D01*
X187110Y146408D01*
X187662D01*
X188172Y146619D01*
X188562Y147009D01*
X188774Y147519D01*
Y148071D01*
X188600Y148490D01*
Y149338D01*
X189155Y149568D01*
X209266Y129456D01*
X209179Y128694D01*
X208105Y128023D01*
X209345Y126040D01*
X208921Y125775D01*
X209186Y125351D01*
X207253Y124144D01*
X207929Y123061D01*
X208227Y122584D01*
X208525Y122108D01*
X208809Y121653D01*
X210742Y122860D01*
X211272Y122012D01*
X209339Y120805D01*
X210314Y119246D01*
X210378Y119286D01*
X212216Y116345D01*
X214132Y117543D01*
X214397Y117119D01*
X214821Y117383D01*
X217166Y113631D01*
X218659Y114563D01*
X218447Y114902D01*
X220141Y115961D01*
X220832Y115737D01*
X220974Y115720D01*
X221115Y115692D01*
X221746D01*
X221821Y115707D01*
X221897Y115705D01*
X221995Y115742D01*
X222097Y115762D01*
X222161Y115805D01*
X222232Y115832D01*
X229865Y120601D01*
X229865Y120602D01*
X237362Y125286D01*
X237438Y125358D01*
X237525Y125416D01*
X237861Y125752D01*
X238060Y126049D01*
X238129Y126400D01*
Y127031D01*
X238123Y127065D01*
X238127Y127099D01*
X238088Y127239D01*
X238060Y127383D01*
X238040Y127411D01*
X238031Y127444D01*
X234374Y134707D01*
X235953Y135694D01*
X234283Y138365D01*
X231230Y136458D01*
X231230Y136458D01*
X228218Y134575D01*
X227694Y134755D01*
X227672Y135177D01*
X230521Y136958D01*
X230521Y136958D01*
X233860Y139044D01*
X232190Y141715D01*
X229137Y139807D01*
X229137Y139807D01*
X225799Y137721D01*
X225884Y137585D01*
X225014Y137042D01*
X224335Y137325D01*
X224249Y137534D01*
X223858Y137925D01*
X223348Y138136D01*
X222796D01*
X222559Y138038D01*
X220792D01*
X209450Y149379D01*
Y149987D01*
X209548Y150224D01*
Y150776D01*
X209337Y151286D01*
X208946Y151676D01*
X208437Y151887D01*
X207885D01*
X207375Y151676D01*
X206984Y151286D01*
X206773Y150776D01*
Y150318D01*
X206649Y150112D01*
X206300Y149799D01*
X205907D01*
X205397Y149587D01*
X205007Y149197D01*
X204795Y148687D01*
Y148135D01*
X205007Y147625D01*
X205397Y147235D01*
X205816Y147061D01*
X217820Y135057D01*
X217480Y134549D01*
X217367Y134596D01*
X216815D01*
X216305Y134384D01*
X215914Y133994D01*
X215703Y133484D01*
Y133382D01*
X214012Y131691D01*
X212154D01*
X187730Y156114D01*
Y159987D01*
X187660Y160339D01*
X187461Y160636D01*
X186828Y161270D01*
Y161702D01*
X186617Y162212D01*
X186226Y162602D01*
X185716Y162813D01*
X185164D01*
X185001Y162746D01*
X184654Y162602D01*
X184264Y162212D01*
X184053Y161702D01*
Y161150D01*
X184264Y160640D01*
X184654Y160250D01*
X185164Y160038D01*
X185464D01*
X185895Y159607D01*
Y157109D01*
X185295Y156861D01*
X175691Y166464D01*
X175978Y167026D01*
X176067Y167012D01*
Y167012D01*
X177845D01*
Y169350D01*
X178845D01*
Y167012D01*
X180624D01*
Y167123D01*
Y168692D01*
X181178Y168921D01*
X190754Y159345D01*
X191150Y159081D01*
X191617Y158988D01*
X236242D01*
X236709Y159081D01*
X237105Y159345D01*
X242155Y164395D01*
X242419Y164791D01*
X242512Y165258D01*
Y177742D01*
X242419Y178209D01*
X242155Y178605D01*
X238757Y182002D01*
X238987Y182556D01*
X240366D01*
Y182556D01*
X240766Y182956D01*
X243916D01*
X244310Y182519D01*
Y181229D01*
X243910D01*
Y179548D01*
X247174D01*
Y179048D01*
X247674D01*
Y176866D01*
X250437D01*
Y178095D01*
X250936Y178428D01*
X251032Y178389D01*
X251780D01*
X252470Y178675D01*
X252999Y179203D01*
X253285Y179894D01*
Y180642D01*
X252999Y181333D01*
X252470Y181861D01*
X252098Y182016D01*
X251974Y182277D01*
X251899Y182702D01*
X252132Y183050D01*
X252239Y183591D01*
Y186376D01*
X253617Y187754D01*
X253924Y188213D01*
X254032Y188754D01*
Y199878D01*
X256765Y202611D01*
X257072Y203070D01*
X257179Y203611D01*
Y219289D01*
X257664Y219613D01*
X258216D01*
X258726Y219824D01*
X258984Y220082D01*
X263171D01*
X263603Y217959D01*
D02*
G37*
%LPC*%
G36*
X208701Y310559D02*
X207177D01*
Y309469D01*
X208701D01*
Y310559D01*
D02*
G37*
G36*
X197579Y312136D02*
X195740D01*
Y310357D01*
X197579D01*
Y312136D01*
D02*
G37*
G36*
X203823Y310559D02*
X202299D01*
Y309469D01*
X203823D01*
Y310559D01*
D02*
G37*
G36*
X161102Y309429D02*
X160123Y309291D01*
X159212Y308905D01*
X158433Y308296D01*
X157841Y307511D01*
X160859Y306292D01*
X162078Y309309D01*
X161102Y309429D01*
D02*
G37*
G36*
X163005Y308934D02*
X161786Y305917D01*
X164803Y304698D01*
X164923Y305674D01*
X164785Y306653D01*
X164399Y307563D01*
X163790Y308343D01*
X163005Y308934D01*
D02*
G37*
G36*
X157467Y306583D02*
X157347Y305608D01*
X157484Y304628D01*
X157871Y303718D01*
X158480Y302939D01*
X159265Y302347D01*
X160484Y305364D01*
X157467Y306583D01*
D02*
G37*
G36*
X161411Y304990D02*
X160192Y301972D01*
X161168Y301852D01*
X162147Y301990D01*
X163058Y302377D01*
X163837Y302985D01*
X164429Y303771D01*
X161411Y304990D01*
D02*
G37*
G36*
X215260Y305611D02*
X213421D01*
Y303833D01*
X215260D01*
Y305611D01*
D02*
G37*
G36*
X223000Y299500D02*
X215000D01*
Y295000D01*
X223000D01*
Y299500D01*
D02*
G37*
G36*
X232000Y294000D02*
X224000D01*
Y289500D01*
X232000D01*
Y294000D01*
D02*
G37*
G36*
X223000D02*
X215000D01*
Y289500D01*
X223000D01*
Y294000D01*
D02*
G37*
G36*
X197579Y305611D02*
X195740D01*
Y303833D01*
X197579D01*
Y305611D01*
D02*
G37*
G36*
X154517Y299283D02*
X154397Y298307D01*
X154535Y297328D01*
X154921Y296417D01*
X155530Y295638D01*
X156315Y295046D01*
X157534Y298064D01*
X154517Y299283D01*
D02*
G37*
G36*
X158461Y297689D02*
X157242Y294672D01*
X158218Y294552D01*
X159198Y294689D01*
X160108Y295076D01*
X160887Y295685D01*
X161479Y296470D01*
X158461Y297689D01*
D02*
G37*
G36*
X222259Y268091D02*
X221394D01*
X220595Y267760D01*
X219983Y267148D01*
X219652Y266349D01*
Y265484D01*
X219983Y264684D01*
X220595Y264073D01*
X221394Y263741D01*
X222259D01*
X223059Y264073D01*
X223671Y264684D01*
X224002Y265484D01*
Y266349D01*
X223671Y267148D01*
X223059Y267760D01*
X222259Y268091D01*
D02*
G37*
G36*
X220350Y262767D02*
X218776D01*
Y254007D01*
X220350D01*
Y262767D01*
D02*
G37*
G36*
X204102Y238332D02*
X202264D01*
Y236553D01*
X204102D01*
Y238332D01*
D02*
G37*
G36*
X213945Y233906D02*
X210591D01*
Y230945D01*
X213945D01*
Y233906D01*
D02*
G37*
G36*
X128595Y268455D02*
X125378D01*
Y262601D01*
X128595D01*
Y268455D01*
D02*
G37*
G36*
X124378D02*
X121161D01*
Y262601D01*
X124378D01*
Y268455D01*
D02*
G37*
G36*
X136153Y261392D02*
X133685D01*
Y259809D01*
X136153D01*
Y261392D01*
D02*
G37*
G36*
X127764Y261588D02*
X125925D01*
Y259809D01*
X127764D01*
Y261588D01*
D02*
G37*
G36*
X146783Y261392D02*
X144315D01*
Y259809D01*
X146783D01*
Y261392D01*
D02*
G37*
G36*
X143315D02*
X140847D01*
Y259809D01*
X143315D01*
Y261392D01*
D02*
G37*
G36*
X155980Y262767D02*
X154405D01*
Y254007D01*
X155980D01*
Y262767D01*
D02*
G37*
G36*
X127764Y247678D02*
X126064D01*
Y246203D01*
X127764D01*
Y247678D01*
D02*
G37*
G36*
X171009Y237445D02*
X169230D01*
Y235606D01*
X171009D01*
Y237445D01*
D02*
G37*
G36*
X163083Y233906D02*
X159728D01*
Y230945D01*
X163083D01*
Y233906D01*
D02*
G37*
G36*
X158728D02*
X155374D01*
Y230945D01*
X158728D01*
Y233906D01*
D02*
G37*
G36*
X108381Y231646D02*
X107367D01*
X106429Y231258D01*
X105712Y230540D01*
X105323Y229603D01*
Y228588D01*
X105712Y227650D01*
X106429Y226933D01*
X107367Y226544D01*
X108381D01*
X109319Y226933D01*
X110036Y227650D01*
X110425Y228588D01*
Y229603D01*
X110036Y230540D01*
X109319Y231258D01*
X108381Y231646D01*
D02*
G37*
G36*
X135768Y210482D02*
X133929D01*
Y208703D01*
X135768D01*
Y210482D01*
D02*
G37*
G36*
X132929D02*
X131091D01*
Y208703D01*
X132929D01*
Y210482D01*
D02*
G37*
G36*
X139224Y205924D02*
Y202626D01*
X140948D01*
Y203799D01*
X140779Y204650D01*
X140297Y205372D01*
X139575Y205854D01*
X139224Y205924D01*
D02*
G37*
G36*
X138224D02*
X137873Y205854D01*
X137152Y205372D01*
X136670Y204650D01*
X136501Y203799D01*
Y202626D01*
X138224D01*
Y205924D01*
D02*
G37*
G36*
X250307Y256356D02*
X248468D01*
Y254577D01*
X250307D01*
Y256356D01*
D02*
G37*
G36*
X247468D02*
X245630D01*
Y254577D01*
X247468D01*
Y256356D01*
D02*
G37*
G36*
X243082Y235657D02*
X241382D01*
Y234182D01*
X243082D01*
Y235657D01*
D02*
G37*
G36*
X148224Y227380D02*
X147873Y227310D01*
X147152Y226828D01*
X146670Y226107D01*
X146501Y225256D01*
Y224083D01*
X148224D01*
Y227380D01*
D02*
G37*
G36*
Y223083D02*
X146501D01*
Y221909D01*
X146670Y221058D01*
X147152Y220337D01*
X147873Y219855D01*
X148224Y219785D01*
Y223083D01*
D02*
G37*
G36*
X187159Y227988D02*
X185380D01*
Y226150D01*
X187159D01*
Y227988D01*
D02*
G37*
G36*
X155370Y192174D02*
X153532D01*
Y190396D01*
X155370D01*
Y192174D01*
D02*
G37*
G36*
X246674Y206426D02*
X243910D01*
Y204745D01*
X246674D01*
Y206426D01*
D02*
G37*
G36*
X237891Y198767D02*
X236416D01*
Y197067D01*
X237891D01*
Y198767D01*
D02*
G37*
G36*
Y196067D02*
X236416D01*
Y194367D01*
X237891D01*
Y196067D01*
D02*
G37*
G36*
X237343Y176455D02*
X235504D01*
Y174676D01*
X237343D01*
Y176455D01*
D02*
G37*
G36*
X215213Y169930D02*
X213374D01*
Y168152D01*
X215213D01*
Y169930D01*
D02*
G37*
G36*
X209431Y168910D02*
X207652D01*
Y167072D01*
X209431D01*
Y168910D01*
D02*
G37*
G36*
X224783Y168654D02*
X221528D01*
Y165988D01*
X224783D01*
Y168654D01*
D02*
G37*
G36*
X176236Y178747D02*
X176116Y178723D01*
X175590Y178371D01*
X175238Y177845D01*
X175115Y177224D01*
Y175559D01*
X176236D01*
Y178747D01*
D02*
G37*
G36*
X246674Y178548D02*
X243910D01*
Y176866D01*
X246674D01*
Y178548D01*
D02*
G37*
G36*
X171438Y144517D02*
X168288D01*
Y142869D01*
X168258Y142717D01*
Y135448D01*
X167703Y135218D01*
X165743Y137178D01*
X165701Y137288D01*
X165749Y137977D01*
X165755Y137985D01*
X167048Y139277D01*
X167395Y139798D01*
X167518Y140412D01*
Y142714D01*
X167518Y142717D01*
X167488Y142869D01*
Y144517D01*
X164338D01*
Y142871D01*
X164307Y142716D01*
Y141077D01*
X163723Y140493D01*
X161894D01*
X161739Y140462D01*
X156953D01*
Y139104D01*
X156150D01*
X156013Y139076D01*
X155874D01*
X155745Y139023D01*
X155608Y138996D01*
X155492Y138918D01*
X155364Y138865D01*
X155265Y138767D01*
X155149Y138689D01*
X155072Y138573D01*
X154973Y138475D01*
X154920Y138346D01*
X154843Y138230D01*
X154816Y138094D01*
X154762Y137965D01*
Y137826D01*
X154735Y137689D01*
X154762Y137552D01*
Y137413D01*
X154816Y137284D01*
X154843Y137148D01*
X154920Y137032D01*
X154973Y136903D01*
X155072Y136805D01*
X155149Y136689D01*
X155265Y136611D01*
X155364Y136513D01*
X155492Y136460D01*
X155608Y136382D01*
X155745Y136355D01*
X155874Y136302D01*
X156013D01*
X156150Y136274D01*
X156953D01*
Y134341D01*
X156553Y134169D01*
Y131209D01*
X164262D01*
Y132129D01*
X164862Y132426D01*
X165086Y132256D01*
Y122963D01*
X165123Y122780D01*
Y114991D01*
X163271D01*
Y115561D01*
X158528D01*
Y111211D01*
X163271D01*
Y111781D01*
X171493D01*
X172107Y111903D01*
X172628Y112251D01*
X173550Y113173D01*
X173898Y113694D01*
X174020Y114309D01*
Y120048D01*
X199375D01*
Y114361D01*
X205693D01*
Y125508D01*
X206293Y125680D01*
X206723Y124992D01*
X208231Y125934D01*
X207257Y127493D01*
X206293Y126891D01*
X205693Y127223D01*
Y128946D01*
X199375D01*
Y123259D01*
X174020D01*
Y129085D01*
X173898Y129699D01*
X173550Y130220D01*
X171468Y132302D01*
Y142717D01*
X171438Y142869D01*
Y144517D01*
D02*
G37*
G36*
X164262Y130209D02*
X160908D01*
Y127248D01*
X164262D01*
Y130209D01*
D02*
G37*
G36*
X159908D02*
X156553D01*
Y127248D01*
X159908D01*
Y130209D01*
D02*
G37*
G36*
X155798Y119504D02*
X153526D01*
Y117429D01*
X155798D01*
Y119504D01*
D02*
G37*
G36*
Y116429D02*
X153526D01*
Y114354D01*
X155798D01*
Y116429D01*
D02*
G37*
G36*
X214238Y116429D02*
X212746Y115497D01*
X214826Y112168D01*
X216318Y113101D01*
X214238Y116429D01*
D02*
G37*
%LPD*%
D10*
X204294Y187860D02*
Y189424D01*
X204295Y189425D02*
Y201795D01*
X204294Y187860D02*
X204295Y187858D01*
X204294Y189424D02*
X204295Y189425D01*
Y175059D02*
Y187858D01*
X135587Y268955D02*
X139242D01*
X143815Y264382D01*
Y259310D02*
Y264382D01*
X225546Y127534D02*
X227085Y125046D01*
X228763Y129545D02*
X230257Y127028D01*
X242800Y179048D02*
X247174D01*
X238866Y182981D02*
Y184281D01*
Y182981D02*
X242800Y179048D01*
X238391Y184756D02*
X238866Y184281D01*
X190516Y215575D02*
X204295Y201795D01*
X190516Y215575D02*
Y219941D01*
X204295Y201795D02*
X206890Y204390D01*
X213941D01*
X190516Y175059D02*
Y179205D01*
X186579Y175059D02*
Y179205D01*
X196421Y175059D02*
Y181134D01*
X198390Y175059D02*
Y179205D01*
X188547Y175059D02*
Y181134D01*
X184610Y175059D02*
Y181134D01*
X202327Y175059D02*
Y179205D01*
X200358Y175059D02*
Y181134D01*
D12*
X133429Y214727D02*
Y224150D01*
X129128Y226968D02*
X131946Y224150D01*
X129128Y226968D02*
Y227028D01*
X131946Y224150D02*
X133429D01*
X139488Y279782D02*
X141054D01*
X135626D02*
X139488D01*
X133429Y224150D02*
X137497Y228218D01*
X151055D01*
X133429Y210981D02*
X133458Y210953D01*
X151055Y228218D02*
X153724Y225549D01*
Y223583D02*
Y225549D01*
X142831Y281559D02*
X143224D01*
X134642Y278798D02*
X135626Y279782D01*
X141054D02*
X142831Y281559D01*
D13*
X137074Y240074D02*
X140956Y236192D01*
Y235694D02*
Y236192D01*
Y235694D02*
X141501Y235149D01*
Y234885D02*
Y235149D01*
X155000Y218000D02*
X157210Y220210D01*
X159967D01*
X160494Y219683D01*
Y216737D02*
Y219683D01*
Y216737D02*
X162990Y214242D01*
X163095D01*
X122531Y240543D02*
X123658Y241669D01*
Y241669D01*
X122531Y240372D02*
Y240543D01*
X126323Y241896D02*
X132866D01*
X138399Y236363D01*
X138737D01*
X139726Y235374D01*
X124700Y240273D02*
X126323Y241896D01*
X139726Y235274D02*
X139756Y235244D01*
Y232768D02*
Y235244D01*
X139726Y235274D02*
Y235374D01*
X132369Y240696D02*
X137496Y235569D01*
X126820Y240696D02*
X132369D01*
X137496Y235482D02*
X138038Y234939D01*
Y234676D02*
Y234939D01*
X137496Y235482D02*
Y235569D01*
X133415Y237953D02*
X136295Y235072D01*
Y232496D02*
Y235072D01*
X129028Y237953D02*
X133415D01*
X114816Y234514D02*
X115041D01*
X117891Y237364D01*
Y239010D01*
X119650Y240768D01*
X122135D01*
X122531Y240372D01*
Y238543D02*
Y240372D01*
X112205Y230567D02*
X114814D01*
X114816Y230564D01*
X103723Y221609D02*
X114969Y210363D01*
Y201646D02*
Y210363D01*
X191496Y167999D02*
X194453Y170956D01*
X191325Y167999D02*
X191496D01*
X185440Y161360D02*
X186813Y159987D01*
Y155734D02*
Y159987D01*
X185440Y161360D02*
Y161426D01*
X186813Y155734D02*
X211773Y130773D01*
X194453Y170956D02*
Y175059D01*
X117896Y227034D02*
Y229976D01*
X117404Y234006D02*
X119963D01*
X114816Y230564D02*
X117896D01*
X230211Y214465D02*
X236746Y221000D01*
X253590D01*
X257940D02*
X265233D01*
X265375Y221142D01*
X192243Y229116D02*
Y229805D01*
X186866Y234493D02*
X187555D01*
X192243Y229116D02*
X192430Y228930D01*
X187555Y234493D02*
X192243Y229805D01*
X216827Y133208D02*
X217091D01*
X211773Y130773D02*
X214392D01*
X216827Y133208D01*
X214411Y214243D02*
X214452Y214284D01*
Y215388D02*
X233486Y234422D01*
X214452Y214284D02*
Y215388D01*
X233486Y234422D02*
Y248001D01*
X209463Y217720D02*
X213390D01*
X231086Y235416D01*
X234686Y233925D02*
Y241296D01*
X229011Y228250D02*
X234686Y233925D01*
X229011Y205816D02*
Y228250D01*
X252246Y246433D02*
X254697Y239696D01*
X250488Y258579D02*
X252246Y256821D01*
Y246433D02*
Y256821D01*
X239822Y258579D02*
X250488D01*
X238913Y259488D02*
X239822Y258579D01*
X238913Y259488D02*
Y269920D01*
X234090Y257849D02*
X234989Y258749D01*
X234090Y248605D02*
Y257849D01*
X236248Y258749D02*
X236945Y259445D01*
Y262837D01*
X234989Y258749D02*
X236248D01*
X231686Y249595D02*
Y269639D01*
X231086Y235416D02*
Y248995D01*
X231686Y249595D01*
Y269639D02*
X233794Y271747D01*
X211601Y214234D02*
X232286Y234919D01*
Y248498D01*
X232890Y249102D01*
Y269146D01*
X234291Y270547D01*
X233486Y248001D02*
X234090Y248605D01*
X234291Y270547D02*
X238286D01*
X233794Y271747D02*
X238783D01*
X240213Y270317D01*
Y269122D02*
X240888Y268447D01*
X240213Y269122D02*
Y270317D01*
X142044Y216482D02*
X150199Y208327D01*
X153252D01*
X141168Y216668D02*
X141355Y216482D01*
X142044D01*
X139756Y232768D02*
X139943Y232582D01*
X131936Y245271D02*
X134569Y247904D01*
Y249166D02*
X134756Y249353D01*
X134569Y247904D02*
Y249166D01*
X146063Y237850D02*
X157931Y225983D01*
X159842D01*
X146063Y237850D02*
Y244252D01*
X173393Y217485D02*
X175246Y219338D01*
X174758Y221250D02*
X175246Y220762D01*
X174758Y221250D02*
Y221513D01*
X175246Y219338D02*
Y220762D01*
X168340Y217485D02*
X173393D01*
X182642Y216239D02*
Y219941D01*
X181931Y215527D02*
X182642Y216239D01*
X180848Y215424D02*
X180951Y215527D01*
X181931D01*
X162406Y223419D02*
X168340Y217485D01*
X162406Y223419D02*
Y223419D01*
X159842Y225983D02*
X162406Y223419D01*
X131247Y245271D02*
X131936D01*
X129560Y243583D02*
X131247Y245271D01*
X127710Y243583D02*
X129560D01*
X184610Y216562D02*
Y219941D01*
Y216562D02*
X185374Y215798D01*
X188547D01*
X186679Y234680D02*
X186866Y234493D01*
X163470Y240283D02*
X176620D01*
X176632Y240271D01*
X154987Y240804D02*
Y240829D01*
X151883Y243933D02*
X152156Y243660D01*
X154987Y240829D01*
X151194Y243933D02*
X151883D01*
X151007Y244119D02*
X151194Y243933D01*
X131946Y243583D02*
X135904Y247542D01*
X136796D01*
X136982Y247728D01*
X129028Y232047D02*
X130950D01*
X131609Y232706D01*
Y235898D01*
X124500Y238543D02*
X124700Y238743D01*
Y240273D01*
X126469Y238543D02*
Y240345D01*
X126820Y240696D01*
X117896Y229976D02*
Y230564D01*
Y229976D02*
X119982D01*
X119972Y234016D02*
X119982Y234025D01*
X122531Y227911D02*
Y231457D01*
X126469Y229618D02*
Y231457D01*
Y229618D02*
X126820Y229266D01*
X117896Y231696D02*
X118247Y232047D01*
X117896Y230564D02*
Y231696D01*
X124500Y227910D02*
Y231457D01*
Y227910D02*
X125382Y227028D01*
X118247Y232047D02*
X119972D01*
X126820Y229266D02*
X127034D01*
X127561Y228739D01*
Y228654D02*
Y228739D01*
Y228654D02*
X129128Y227087D01*
Y227028D02*
Y227087D01*
X121648Y227028D02*
X122531Y227911D01*
X157434Y224783D02*
X159345D01*
X135702Y251395D02*
X138670Y248427D01*
Y243547D02*
Y248427D01*
Y243547D02*
X157434Y224783D01*
X158618Y214425D02*
Y218109D01*
X158619Y218110D01*
X167842Y216285D02*
X179322D01*
X159345Y224783D02*
X167842Y216285D01*
X162569Y218110D02*
Y219861D01*
X158848Y223583D02*
X162569Y219861D01*
X153724Y223583D02*
X158848D01*
X133619Y251395D02*
X135702D01*
X133185Y251829D02*
X133619Y251395D01*
X128563Y251829D02*
X133185D01*
X145512Y113286D02*
X147387Y111411D01*
X147612D01*
X145512Y113286D02*
Y169483D01*
X162983Y186954D01*
X163264Y201454D02*
X164231Y202421D01*
X169059D01*
X163000Y201454D02*
X163264D01*
X118034Y185376D02*
Y188679D01*
X119234Y189879D01*
Y192537D01*
X121344Y194647D01*
X114969Y181646D02*
Y182311D01*
X118034Y185376D01*
X121344Y194647D02*
X145466D01*
X118034Y193034D02*
X120847Y195847D01*
X114969Y187311D02*
X118034Y190376D01*
X114969Y186646D02*
Y187311D01*
X120847Y195847D02*
X141347D01*
X118034Y190376D02*
Y193034D01*
X114969Y201646D02*
X119567Y197047D01*
X140850D01*
X141262Y197459D02*
Y197923D01*
X141448Y198109D01*
X140850Y197047D02*
X141262Y197459D01*
X152264Y189000D02*
X152622Y188642D01*
X169059D01*
X152000Y189000D02*
X152264D01*
X221115Y116610D02*
X221746D01*
X220039Y116959D02*
X221115Y116610D01*
X221746D02*
X229379Y121380D01*
X217569Y119100D02*
X220039Y116959D01*
X229379Y121380D02*
X236876Y126064D01*
X237212Y126400D01*
Y127031D01*
X233186Y135026D02*
X237212Y127031D01*
X233186Y135026D02*
X233592Y136076D01*
X216820Y196213D02*
X219408D01*
X229011Y205816D01*
X216628Y196405D02*
X216820Y196213D01*
X214052Y196405D02*
X216628D01*
X219905Y195013D02*
X230211Y205319D01*
X213941Y194547D02*
X216264D01*
X216729Y195013D02*
X219905D01*
X216264Y194547D02*
X216729Y195013D01*
X213941Y196516D02*
X214052Y196405D01*
X230211Y205319D02*
Y214465D01*
X216656Y184312D02*
X222385D01*
X216264Y184705D02*
X216656Y184312D01*
X222385D02*
X225956Y180741D01*
X213941Y184705D02*
X216264D01*
Y182736D02*
X216640Y183112D01*
X221888D02*
X224756Y180244D01*
X216640Y183112D02*
X221888D01*
X213941Y182736D02*
X216264D01*
X179322Y216285D02*
X180673Y217636D01*
Y219941D01*
X141347Y195847D02*
X142022Y196522D01*
X151743D01*
X145466Y194647D02*
X146142Y195322D01*
X152125Y194963D02*
X152389D01*
X151766Y195322D02*
X152125Y194963D01*
X146142Y195322D02*
X151766D01*
X159085Y199767D02*
X166068D01*
X166754Y200453D02*
X169059D01*
X158079Y200774D02*
X159085Y199767D01*
X166068D02*
X166754Y200453D01*
X157581Y198599D02*
X157613Y198567D01*
X156163Y199086D02*
X156650Y198599D01*
X157613Y198567D02*
X168976D01*
X155899Y199086D02*
X156163D01*
X156650Y198599D02*
X157581D01*
X151743Y196522D02*
X153166Y197946D01*
X254697Y239696D02*
X255125Y239268D01*
X260471Y235997D01*
X262400Y234609D01*
X234686Y241296D02*
X234976Y241586D01*
X238286Y270547D02*
X238913Y269920D01*
X234976Y241586D02*
Y245317D01*
X128264Y252128D02*
X128563Y251829D01*
X225956Y171782D02*
Y180741D01*
X227824Y171019D02*
X229689Y169153D01*
X224756Y178073D02*
Y180244D01*
X226719Y171019D02*
X227824D01*
X225956Y171782D02*
X226719Y171019D01*
X224002Y177318D02*
X224756Y178073D01*
X222893Y177318D02*
X224002D01*
X221028Y175453D02*
X222893Y177318D01*
X168976Y198567D02*
X169059Y198484D01*
X190096Y237044D02*
X204295Y222845D01*
X187378Y243016D02*
X190096Y240298D01*
Y237044D02*
Y240298D01*
X184819Y243878D02*
X188896Y239801D01*
X184819Y243878D02*
Y253318D01*
X192496Y238038D02*
X207754Y222780D01*
X191296Y237541D02*
X206153Y222684D01*
X189937Y242154D02*
X191296Y240795D01*
X182260Y244740D02*
X187696Y239304D01*
X204295Y219941D02*
Y222845D01*
X202327Y219941D02*
Y223116D01*
X188896Y236547D02*
X202327Y223116D01*
X188896Y236547D02*
Y239801D01*
X211185Y212264D02*
X213941D01*
X207754Y215694D02*
X211185Y212264D01*
X207754Y215694D02*
Y222780D01*
X206153Y220052D02*
X206264Y219941D01*
X206153Y220052D02*
Y222684D01*
X200358Y219941D02*
Y223387D01*
X187696Y236050D02*
X200358Y223387D01*
X187696Y236050D02*
Y239304D01*
X182260Y244740D02*
Y253318D01*
X189937Y242154D02*
Y253318D01*
X191296Y237541D02*
Y240795D01*
X192496Y238038D02*
Y253318D01*
X187378Y243016D02*
Y253318D01*
X200173D02*
Y263410D01*
X202033Y265270D02*
X203431D01*
X200173Y263410D02*
X202033Y265270D01*
X205119Y263583D02*
X207850D01*
X203431Y265270D02*
X205119Y263583D01*
X218565Y244459D02*
X221925Y241098D01*
X222319D01*
X215886Y244459D02*
X218565D01*
X215528Y244818D02*
Y253318D01*
Y244818D02*
X215886Y244459D01*
D27*
X252510Y200357D02*
X255765Y203611D01*
Y227865D01*
X255358Y228448D02*
X255765Y228040D01*
X248000Y235630D02*
X255182Y228448D01*
X248000Y235630D02*
Y239251D01*
X255182Y228448D02*
X255358D01*
X220838Y127885D02*
X221654Y126579D01*
X222470Y125274D01*
X223026Y131567D02*
X225546Y127534D01*
X226243Y133577D02*
X228763Y129545D01*
X160120Y137689D02*
X160408Y137402D01*
X156150Y137689D02*
X160120D01*
X227324Y213042D02*
Y215500D01*
X227136Y212854D02*
X227324Y213042D01*
X228510Y137558D02*
X231149Y139207D01*
X228160Y137339D02*
X228510Y137558D01*
X231149Y139207D02*
X231499Y139426D01*
X215495Y129451D02*
X218283Y131193D01*
X212708Y127709D02*
X215495Y129451D01*
X219332Y123312D01*
X220741Y121082D01*
X218994Y131612D02*
X227810Y137121D01*
X218644Y131393D02*
X218994Y131612D01*
X227810Y137121D02*
X228160Y137339D01*
X212097Y127760D02*
X212708Y127709D01*
X218283Y131193D02*
X218644Y131393D01*
X230354Y133831D02*
X231986Y131219D01*
X233428Y129010D01*
X230253Y133990D02*
X230354Y133831D01*
X222470Y125274D02*
X223913Y123064D01*
X220737Y128044D02*
X220838Y127885D01*
X209213Y125308D02*
X210715Y122904D01*
X211007Y122436D01*
X208921Y125775D02*
X209213Y125308D01*
X211303Y121972D02*
X212955Y119328D01*
X214397Y117119D01*
X211007Y122436D02*
X211303Y121972D01*
X214479Y123956D02*
X216131Y121312D01*
X217569Y119100D01*
X214183Y124421D02*
X214479Y123956D01*
X227136Y206328D02*
Y208917D01*
X248000Y239251D02*
Y250300D01*
X247969Y250331D02*
X248000Y250300D01*
X252131Y240436D02*
X252308Y240501D01*
X248000Y239251D02*
X252131Y240436D01*
X250301Y200357D02*
X252510D01*
X247567Y200701D02*
X249957D01*
X247174Y201095D02*
X247567Y200701D01*
X249957D02*
X250301Y200357D01*
X252617Y188754D02*
Y200357D01*
X250825Y183591D02*
Y186962D01*
X252617Y188754D01*
X249385Y182591D02*
X249572Y182778D01*
X250012D02*
X250825Y183591D01*
X247567Y182591D02*
X249385D01*
X249572Y182778D02*
X250012D01*
X247174Y182197D02*
X247567Y182591D01*
D28*
X163110Y204378D02*
X163122Y204390D01*
X169059D01*
X199016Y196516D02*
X204295Y201795D01*
X209725Y188651D02*
X209734Y188642D01*
X206181D02*
X206190Y188651D01*
X209734Y188642D02*
X213941D01*
X206190Y188651D02*
X209725D01*
X208906Y186673D02*
X208906Y186673D01*
X213941D01*
X215500Y285500D02*
X224054D01*
X205500Y295500D02*
Y303635D01*
Y295500D02*
X215500Y285500D01*
X224054D02*
X235676Y273877D01*
X236316Y273237D01*
X209687Y207175D02*
X210503Y206358D01*
X213941D01*
X209580Y207175D02*
X209687D01*
X234577Y268447D02*
X236938D01*
X240882Y262837D02*
Y268441D01*
X240888Y268447D01*
X198390Y217225D02*
X199808Y215807D01*
X198390Y217225D02*
Y219941D01*
X199808Y215807D02*
X206067D01*
X140945Y219689D02*
X150339Y210295D01*
X138724Y221909D02*
X140945Y219689D01*
X143724Y219428D02*
X150889Y212264D01*
X143724Y219428D02*
Y223583D01*
X153252Y208327D02*
X169059D01*
X148724Y203799D02*
X153252Y208327D01*
X154363Y206358D02*
X169059D01*
X220289Y136824D02*
X222997D01*
X223072Y136749D01*
X208236Y148877D02*
X220289Y136824D01*
X208161Y150500D02*
X208236Y150425D01*
Y148877D02*
Y150425D01*
X206183Y148411D02*
X219855Y134738D01*
X166303Y182736D02*
X169059D01*
X165432Y181865D02*
X166303Y182736D01*
X165432Y180886D02*
X166123Y180194D01*
X165432Y180886D02*
Y181865D01*
X166123Y180194D02*
X167374D01*
X168568Y179000D01*
Y164314D02*
Y179000D01*
X184706Y155733D02*
X212097Y128342D01*
Y127760D02*
Y128342D01*
X184706Y155733D02*
Y155733D01*
X173911Y166528D02*
X184706Y155733D01*
X173911Y166528D02*
Y168662D01*
X174600Y169350D01*
X121962Y193157D02*
X141218D01*
X120724Y191920D02*
X121962Y193157D01*
X120724Y189262D02*
Y191920D01*
X119524Y184759D02*
Y188062D01*
X120724Y189262D01*
X118324Y180256D02*
Y183559D01*
X119524Y184759D01*
X176736Y196516D02*
X199016D01*
X169059D02*
X176736D01*
Y175059D02*
Y196516D01*
X204104Y305031D02*
X205500Y303635D01*
X236316Y273237D02*
X239956D01*
X243054Y270140D01*
X242850Y266550D02*
X243054Y266754D01*
Y270140D01*
X242850Y262837D02*
Y266550D01*
X201799Y305031D02*
X204104D01*
X211973Y308968D02*
X212861Y309857D01*
X209201Y308968D02*
X211973D01*
X191404Y225650D02*
X194073D01*
X133504Y214652D02*
X135847D01*
X143724Y206776D01*
X133429Y214727D02*
X133504Y214652D01*
X143724Y202126D02*
Y206776D01*
X148724Y202126D02*
Y203799D01*
X150889Y212264D02*
X169059D01*
X150339Y210295D02*
X169059D01*
X138724Y221909D02*
Y223583D01*
X153671Y202180D02*
X153724Y202126D01*
X153671Y202180D02*
Y205666D01*
X154363Y206358D01*
X143894Y192572D02*
X146484D01*
X172130Y178604D02*
X174787Y181261D01*
X169059Y186673D02*
X172325D01*
X172130Y165790D02*
Y178604D01*
X174787Y181261D02*
Y184212D01*
X172325Y186673D02*
X174787Y184212D01*
X170349Y179342D02*
X173005Y181999D01*
X170349Y165052D02*
Y179342D01*
X173005Y181999D02*
Y183474D01*
X169059Y184705D02*
X171775D01*
X173005Y183474D01*
X168568Y164314D02*
X183430Y149453D01*
X183429Y147795D02*
X183430Y147796D01*
Y149453D01*
X185211Y150019D02*
X185408Y149822D01*
X170349Y165052D02*
X185211Y150190D01*
X185408Y149715D02*
Y149822D01*
X185211Y150019D02*
Y150190D01*
X172130Y165790D02*
X187386Y150534D01*
Y147795D02*
Y150534D01*
X141218Y193157D02*
X141689Y192686D01*
X143780D02*
X143894Y192572D01*
X141689Y192686D02*
X143780D01*
X116359Y178290D02*
X118324Y180256D01*
X113324Y178290D02*
X116359D01*
X109968Y181646D02*
X113324Y178290D01*
X260024Y228671D02*
X262534Y229182D01*
X263806Y228858D01*
X259636Y228652D02*
X260024Y228671D01*
X238913Y245317D02*
Y254077D01*
X236938Y268447D02*
X236945Y268441D01*
X256422Y241908D02*
X259959D01*
X256105Y241590D02*
X256422Y241908D01*
X259959D02*
X260230Y242178D01*
X244174Y250331D02*
X247969D01*
X242850Y249007D02*
X244174Y250331D01*
X242850Y245317D02*
Y249007D01*
X238913Y254077D02*
X247969D01*
X236945Y240107D02*
Y245317D01*
X240882Y240107D02*
Y245317D01*
X230966Y170430D02*
X235004D01*
X230966Y174176D02*
X235004D01*
X229689Y169153D02*
X230966Y170430D01*
X229689Y175453D02*
X230966Y174176D01*
X215713Y170430D02*
X219751D01*
X215713Y174176D02*
X219751D01*
Y170430D02*
X221028Y169153D01*
X219751Y174176D02*
X221028Y175453D01*
X210620Y208932D02*
X211225Y208327D01*
X209995Y209558D02*
Y211068D01*
X209967Y211096D02*
X209995Y211068D01*
Y209558D02*
X210620Y208932D01*
X211225Y208327D02*
X213941D01*
X182043Y227429D02*
Y229004D01*
X180665Y226051D02*
X182043Y227429D01*
X180287Y226051D02*
X180665D01*
X178705Y224468D02*
X180287Y226051D01*
X174600Y169410D02*
X175876Y170687D01*
X218210Y202421D02*
X218410Y202221D01*
X218902D02*
X219590Y201533D01*
X218410Y202221D02*
X218902D01*
X213941Y202421D02*
X218210D01*
X218961Y209701D02*
X219650Y209013D01*
X218406Y209701D02*
X218961D01*
X213941Y210295D02*
X217812D01*
X218406Y209701D01*
X213941Y204390D02*
X218210D01*
X218410Y204590D01*
X218902D02*
X219590Y205278D01*
X218410Y204590D02*
X218902D01*
X178705Y169710D02*
Y175059D01*
X178345Y169350D02*
X178705Y169710D01*
X175876Y170687D02*
Y171182D01*
X176736Y172042D01*
Y175059D01*
X178705Y219941D02*
Y224468D01*
X190516Y219941D02*
Y224210D01*
X190716Y224410D01*
Y224902D01*
X191404Y225590D01*
X176736Y219941D02*
Y224468D01*
X175154Y226051D02*
X176736Y224468D01*
X173579Y226051D02*
X175154D01*
X172201Y227429D02*
X173579Y226051D01*
X172201Y227429D02*
Y229004D01*
X155870Y196420D02*
X156526Y197076D01*
X161680D01*
X161680Y197076D01*
X165224D01*
X165784Y196516D01*
X169059D01*
X187659Y225590D02*
X188347Y224902D01*
Y224410D02*
Y224902D01*
Y224410D02*
X188547Y224210D01*
Y219941D02*
Y224210D01*
X206264Y170790D02*
Y175059D01*
Y170790D02*
X206464Y170590D01*
Y170098D02*
Y170590D01*
Y170098D02*
X207152Y169410D01*
X163452Y194547D02*
X169059D01*
X163452Y194547D02*
Y194547D01*
X165784Y192579D02*
X169059D01*
X165224Y192018D02*
X165784Y192579D01*
X161086Y192018D02*
X165224D01*
X160394Y192710D02*
X161086Y192018D01*
X160394Y192710D02*
Y193859D01*
X159706Y194547D02*
X160394Y193859D01*
X204295Y170790D02*
Y175059D01*
X204095Y170590D02*
X204295Y170790D01*
X204095Y170098D02*
Y170590D01*
X203407Y169410D02*
X204095Y170098D01*
X179681Y231951D02*
X180665D01*
X178989Y232643D02*
X179681Y231951D01*
X178989Y232643D02*
Y235106D01*
X174600Y169350D02*
Y169410D01*
X175255Y232643D02*
Y235106D01*
X174563Y231951D02*
X175255Y232643D01*
X173579Y231951D02*
X174563D01*
X172201Y229004D02*
Y230573D01*
X182043Y229004D02*
Y230573D01*
X151261Y115361D02*
X152829Y116929D01*
X147612Y115361D02*
X151261D01*
X152829Y116929D02*
X153026D01*
X151261Y111411D02*
X152829Y109843D01*
X147612Y111411D02*
X151261D01*
X152829Y109843D02*
X153026D01*
X219697Y208965D02*
X223139D01*
X223186Y208917D01*
X219650Y209013D02*
X219697Y208965D01*
X223186Y208917D02*
Y212854D01*
X172201Y230573D02*
X173579Y231951D01*
X180665D02*
X182043Y230573D01*
X198139Y306111D02*
X199027Y307000D01*
X201799D01*
X211973D02*
X212861Y306111D01*
X209201Y307000D02*
X211973D01*
X212861Y306111D02*
X212921D01*
X157206Y193951D02*
X159109D01*
X155930Y192674D02*
X157206Y193951D01*
X159109D02*
X159706Y194547D01*
X242341Y184756D02*
X247174D01*
X242341Y196567D02*
X247174D01*
D29*
X151581Y246482D02*
X155193Y242870D01*
X157457D02*
X159228Y241098D01*
X151581Y246482D02*
Y246707D01*
X155193Y242870D02*
X157457D01*
X149173Y270545D02*
X152350D01*
X156213Y266683D01*
X214519Y262481D02*
X215528Y261472D01*
X209319Y265659D02*
X212497Y262481D01*
X214519D01*
X215528Y253318D02*
Y261472D01*
X205289Y265659D02*
X209319D01*
X204089Y266859D02*
X205289Y265659D01*
X201375Y266859D02*
X204089D01*
X161104D02*
X201375D01*
X160927Y266683D02*
X161104Y266859D01*
X159228Y264984D02*
X160927Y266683D01*
X201199D01*
X156213D02*
X160927D01*
X159228Y253318D02*
Y264984D01*
X201199Y266683D02*
X201375Y266859D01*
X172024Y253318D02*
Y264606D01*
X161787Y253318D02*
Y264606D01*
X164347Y253318D02*
Y263583D01*
X166905Y253318D02*
Y264606D01*
X169465Y253318D02*
Y263583D01*
X174583Y253318D02*
Y263583D01*
X179701Y253318D02*
Y263583D01*
X177142Y253318D02*
Y264606D01*
X207850Y253318D02*
Y263583D01*
Y244545D02*
Y253318D01*
X197614D02*
Y263583D01*
X202732Y253318D02*
Y263583D01*
X212968Y242575D02*
X214445Y241098D01*
X212968Y242575D02*
Y253318D01*
X159228Y241098D02*
Y253318D01*
X195055Y242877D02*
Y253318D01*
X204602Y242578D02*
X204662D01*
X205252Y243167D02*
Y244512D01*
X205310Y244569D02*
Y246115D01*
X205291Y246133D02*
Y253318D01*
X204662Y242578D02*
X205252Y243167D01*
Y244512D02*
X205310Y244569D01*
X205291Y246133D02*
X205310Y246115D01*
X207890Y243167D02*
X208479Y242578D01*
X207850Y244545D02*
X207890Y244506D01*
Y243167D02*
Y244506D01*
X208479Y242578D02*
X208539D01*
D30*
X109968Y181646D02*
D03*
X114969D02*
D03*
X109968Y186646D02*
D03*
X114969D02*
D03*
X109968Y191646D02*
D03*
X114969D02*
D03*
X109968Y196646D02*
D03*
X114969D02*
D03*
X109968Y201646D02*
D03*
X114969D02*
D03*
D31*
X161135Y305641D02*
D03*
X158185Y298340D02*
D03*
D32*
X166450Y167148D02*
D03*
X198555Y234745D02*
D03*
X132033Y247834D02*
D03*
X135378Y244549D02*
D03*
X132682Y227164D02*
D03*
X137074Y240074D02*
D03*
X155000Y218000D02*
D03*
X163095Y214242D02*
D03*
X163110Y204378D02*
D03*
X130227Y210978D02*
D03*
X123658Y241669D02*
D03*
X141501Y234885D02*
D03*
X112205Y230567D02*
D03*
X103723Y221609D02*
D03*
X103121Y216936D02*
D03*
X185000Y158500D02*
D03*
X261024Y200787D02*
D03*
X254331Y160630D02*
D03*
X247638Y227559D02*
D03*
X240945Y214173D02*
D03*
X247638Y147244D02*
D03*
X240945Y133858D02*
D03*
X234252Y281102D02*
D03*
X227559Y267717D02*
D03*
Y240945D02*
D03*
X234252Y227559D02*
D03*
Y200787D02*
D03*
X227559Y187402D02*
D03*
X234252Y147244D02*
D03*
Y120473D02*
D03*
X214173Y294488D02*
D03*
X220866Y281102D02*
D03*
Y147244D02*
D03*
X214173Y133858D02*
D03*
X200787Y294488D02*
D03*
X207480Y281102D02*
D03*
X200787Y240945D02*
D03*
X207480Y227559D02*
D03*
X200787Y133858D02*
D03*
X207480Y120473D02*
D03*
X200787Y107087D02*
D03*
X187402Y294488D02*
D03*
X194095Y281102D02*
D03*
X187402Y107087D02*
D03*
X174016Y294488D02*
D03*
X180709Y281102D02*
D03*
Y147244D02*
D03*
X174016Y133858D02*
D03*
Y107087D02*
D03*
X167323Y281102D02*
D03*
X160630Y160630D02*
D03*
X167323Y147244D02*
D03*
X160630Y107087D02*
D03*
X147244Y294488D02*
D03*
X153937Y281102D02*
D03*
X147244Y267717D02*
D03*
X153937Y174016D02*
D03*
X147244Y160630D02*
D03*
X153937Y147244D02*
D03*
X147244Y133858D02*
D03*
X153937Y120473D02*
D03*
X140551Y174016D02*
D03*
Y147244D02*
D03*
X133858Y133858D02*
D03*
X140551Y120473D02*
D03*
X120473Y214173D02*
D03*
X127165Y200787D02*
D03*
Y174016D02*
D03*
X120473Y160630D02*
D03*
X127165Y147244D02*
D03*
X120473Y133858D02*
D03*
X113779Y254331D02*
D03*
Y227559D02*
D03*
Y174016D02*
D03*
X107087Y160630D02*
D03*
X113779Y147244D02*
D03*
X191325Y167999D02*
D03*
X185440Y161426D02*
D03*
X117404Y234006D02*
D03*
X254000Y184000D02*
D03*
X243876Y207920D02*
D03*
X251385Y217795D02*
D03*
X234139Y288565D02*
D03*
X227000Y279500D02*
D03*
X235208Y277233D02*
D03*
X230147Y270701D02*
D03*
X262000Y219000D02*
D03*
X257940Y221000D02*
D03*
X253590D02*
D03*
X196957Y224367D02*
D03*
X160294Y203299D02*
D03*
X136500Y187500D02*
D03*
X131500D02*
D03*
X195500Y141500D02*
D03*
X200500Y144500D02*
D03*
X177500Y166000D02*
D03*
X188500Y156500D02*
D03*
X217091Y133208D02*
D03*
X221654Y126579D02*
D03*
X236748Y256242D02*
D03*
Y251911D02*
D03*
X241079Y256242D02*
D03*
Y251911D02*
D03*
X166212Y177961D02*
D03*
X200309Y170649D02*
D03*
X131905Y160717D02*
D03*
X214411Y214243D02*
D03*
X164927Y191124D02*
D03*
X164804Y242796D02*
D03*
X160027Y186926D02*
D03*
X164857Y184724D02*
D03*
X173252Y156755D02*
D03*
X190420Y147178D02*
D03*
X250279Y237534D02*
D03*
X217997Y193296D02*
D03*
X218021Y197934D02*
D03*
X230729Y217397D02*
D03*
X230747Y227560D02*
D03*
X225121Y223629D02*
D03*
X209463Y217720D02*
D03*
X209580Y207175D02*
D03*
X250500Y243000D02*
D03*
X234577Y268447D02*
D03*
X206067Y215807D02*
D03*
X156227Y230140D02*
D03*
X148940Y230827D02*
D03*
X241215Y180799D02*
D03*
X245000Y261000D02*
D03*
X255500Y244500D02*
D03*
X232000Y213500D02*
D03*
X223000Y230000D02*
D03*
X224975Y252104D02*
D03*
X229517Y254475D02*
D03*
X244599Y252454D02*
D03*
X244524Y256613D02*
D03*
X245016Y247974D02*
D03*
X183500Y263000D02*
D03*
X180500Y244000D02*
D03*
X143500Y242500D02*
D03*
X134756Y249353D02*
D03*
X180848Y215424D02*
D03*
X174758Y221513D02*
D03*
X146063Y244252D02*
D03*
X127710Y243583D02*
D03*
X188547Y215798D02*
D03*
X192430Y228930D02*
D03*
X186679Y234680D02*
D03*
X176632Y240271D02*
D03*
X163470Y240283D02*
D03*
X154987Y240804D02*
D03*
X151007Y244119D02*
D03*
X136982Y247728D02*
D03*
X131946Y243583D02*
D03*
X131609Y235898D02*
D03*
X136513Y211031D02*
D03*
X139943Y232582D02*
D03*
X138038Y234676D02*
D03*
X136295Y232496D02*
D03*
X141168Y216668D02*
D03*
X144004Y219428D02*
D03*
X140945Y219689D02*
D03*
X131946Y224150D02*
D03*
X119982Y229976D02*
D03*
X241545Y192633D02*
D03*
X233359Y189806D02*
D03*
X232518Y181186D02*
D03*
X237440Y174059D02*
D03*
X236090Y165504D02*
D03*
X227550Y164060D02*
D03*
X218889D02*
D03*
X210227D02*
D03*
X201566D02*
D03*
X192910Y164362D02*
D03*
X186785Y170487D02*
D03*
X183014Y165897D02*
D03*
X189139Y159773D02*
D03*
X197646Y158148D02*
D03*
X206308D02*
D03*
X214969D02*
D03*
X223631D02*
D03*
X232292D02*
D03*
X240328Y161380D02*
D03*
X243352Y169497D02*
D03*
X158618Y214425D02*
D03*
Y206165D02*
D03*
X209323Y269120D02*
D03*
X182000Y270000D02*
D03*
X148500Y242500D02*
D03*
X150587Y251075D02*
D03*
X149173Y270545D02*
D03*
X181515Y179056D02*
D03*
X162983Y186954D02*
D03*
X163000Y201454D02*
D03*
X203500Y302000D02*
D03*
X207500D02*
D03*
X223072Y136749D02*
D03*
X208161Y150500D02*
D03*
X206181Y188642D02*
D03*
X219855Y134738D02*
D03*
X206183Y148411D02*
D03*
X208906Y186673D02*
D03*
X223026Y131567D02*
D03*
X226243Y133577D02*
D03*
X156150Y137689D02*
D03*
X227324Y215500D02*
D03*
X235676Y273877D02*
D03*
X264591Y225000D02*
D03*
X261315Y238394D02*
D03*
X139488Y279782D02*
D03*
X141448Y198109D02*
D03*
X152000Y189000D02*
D03*
X227136Y206328D02*
D03*
X207500Y313500D02*
D03*
X194073Y225650D02*
D03*
X143724Y206776D02*
D03*
X146484Y192572D02*
D03*
X130232Y266987D02*
D03*
X128736Y282354D02*
D03*
X187386Y147795D02*
D03*
X183429D02*
D03*
X185408Y149715D02*
D03*
X152389Y194963D02*
D03*
X158079Y200774D02*
D03*
X234245Y167663D02*
D03*
X235004Y177244D02*
D03*
X215713Y176845D02*
D03*
X225358Y169153D02*
D03*
X227650Y179409D02*
D03*
X223066D02*
D03*
X215713Y167362D02*
D03*
X211601Y214234D02*
D03*
X209967Y211096D02*
D03*
X153166Y197946D02*
D03*
X155899Y199086D02*
D03*
X219102Y186208D02*
D03*
X210059Y183721D02*
D03*
X186579Y179205D02*
D03*
X184610Y181134D02*
D03*
X190516Y179205D02*
D03*
X188547Y181134D02*
D03*
X198390Y179205D02*
D03*
X196421Y181134D02*
D03*
X200358D02*
D03*
X202327Y179205D02*
D03*
X164347Y263583D02*
D03*
X161787Y264606D02*
D03*
X169465Y263583D02*
D03*
X166905Y264606D02*
D03*
X174583Y263583D02*
D03*
X172024Y264606D02*
D03*
X177142D02*
D03*
X179701Y263583D02*
D03*
X207850D02*
D03*
X197614D02*
D03*
X202732D02*
D03*
X172201Y224071D02*
D03*
X182043D02*
D03*
X185402Y229004D02*
D03*
X168842D02*
D03*
X177122D02*
D03*
D33*
X114816Y234514D02*
D03*
Y230564D02*
D03*
X236945Y236157D02*
D03*
Y240107D02*
D03*
X240882D02*
D03*
Y236157D02*
D03*
X195055Y238927D02*
D03*
Y242877D02*
D03*
X147612Y115361D02*
D03*
Y111411D02*
D03*
X128264Y248178D02*
D03*
Y252128D02*
D03*
X143894Y196522D02*
D03*
Y192572D02*
D03*
D34*
X122531Y238543D02*
D03*
X126469D02*
D03*
X124500D02*
D03*
X122531Y231457D02*
D03*
X124500D02*
D03*
X126469D02*
D03*
D35*
X230257Y127028D02*
D03*
X227085Y125046D02*
D03*
X233428Y129010D02*
D03*
X223913Y123064D02*
D03*
X220741Y121082D02*
D03*
X217569Y119100D02*
D03*
X214397Y117119D02*
D03*
D36*
X229689Y169153D02*
D03*
Y175453D02*
D03*
X221028Y169153D02*
D03*
Y175453D02*
D03*
D37*
X182043Y229004D02*
D03*
X172201D02*
D03*
D38*
X218087Y253318D02*
D03*
X215528D02*
D03*
X212968D02*
D03*
X210409D02*
D03*
X207850D02*
D03*
X205291D02*
D03*
X202732D02*
D03*
X200173D02*
D03*
X197614D02*
D03*
X195055D02*
D03*
X192496D02*
D03*
X189937D02*
D03*
X187378D02*
D03*
X184819D02*
D03*
X182260D02*
D03*
X179701D02*
D03*
X177142D02*
D03*
X174583D02*
D03*
X172024D02*
D03*
X169465D02*
D03*
X166905D02*
D03*
X164347D02*
D03*
X161787D02*
D03*
X159228D02*
D03*
X156669D02*
D03*
D39*
X119972Y237953D02*
D03*
Y235984D02*
D03*
Y234016D02*
D03*
Y232047D02*
D03*
X129028D02*
D03*
Y234016D02*
D03*
Y235984D02*
D03*
Y237953D02*
D03*
D40*
X238913Y254077D02*
D03*
D41*
X234976Y262837D02*
D03*
X236945D02*
D03*
X238913D02*
D03*
X240882D02*
D03*
X242850D02*
D03*
X234976Y245317D02*
D03*
X236945D02*
D03*
X238913D02*
D03*
X240882D02*
D03*
X242850D02*
D03*
D42*
X209201Y308968D02*
D03*
Y307000D02*
D03*
Y305031D02*
D03*
X201799Y308968D02*
D03*
Y307000D02*
D03*
Y305031D02*
D03*
D43*
X138724Y223583D02*
D03*
X143724D02*
D03*
X148724D02*
D03*
X153724D02*
D03*
X138724Y202126D02*
D03*
X143724D02*
D03*
X148724D02*
D03*
X153724D02*
D03*
D44*
X133185Y259310D02*
D03*
Y251829D02*
D03*
X143815D02*
D03*
Y255569D02*
D03*
Y259310D02*
D03*
D45*
X176736Y219941D02*
D03*
X178705D02*
D03*
X180673D02*
D03*
X182642D02*
D03*
X184610D02*
D03*
X186579D02*
D03*
X188547D02*
D03*
X190516D02*
D03*
X192484D02*
D03*
X194453D02*
D03*
X196421D02*
D03*
X198390D02*
D03*
X200358D02*
D03*
X202327D02*
D03*
X204295D02*
D03*
X206264D02*
D03*
Y175059D02*
D03*
X204295D02*
D03*
X202327D02*
D03*
X200358D02*
D03*
X198390D02*
D03*
X196421D02*
D03*
X194453D02*
D03*
X192484D02*
D03*
X190516D02*
D03*
X188547D02*
D03*
X186579D02*
D03*
X184610D02*
D03*
X182642D02*
D03*
X180673D02*
D03*
X178705D02*
D03*
X176736D02*
D03*
D46*
X213941Y212264D02*
D03*
Y210295D02*
D03*
Y208327D02*
D03*
Y206358D02*
D03*
Y204390D02*
D03*
Y202421D02*
D03*
Y200453D02*
D03*
Y198484D02*
D03*
Y196516D02*
D03*
Y194547D02*
D03*
Y192579D02*
D03*
Y190610D02*
D03*
Y188642D02*
D03*
Y186673D02*
D03*
Y184705D02*
D03*
Y182736D02*
D03*
X169059D02*
D03*
Y184705D02*
D03*
Y186673D02*
D03*
Y188642D02*
D03*
Y190610D02*
D03*
Y192579D02*
D03*
Y194547D02*
D03*
Y196516D02*
D03*
Y198484D02*
D03*
Y200453D02*
D03*
Y202421D02*
D03*
Y204390D02*
D03*
Y206358D02*
D03*
Y208327D02*
D03*
Y210295D02*
D03*
Y212264D02*
D03*
D47*
X223500Y294500D02*
D03*
D48*
X162569Y218110D02*
D03*
X158619D02*
D03*
X236938Y268447D02*
D03*
X240888D02*
D03*
X238391Y184756D02*
D03*
X242341D02*
D03*
X238391Y196567D02*
D03*
X242341D02*
D03*
X140545Y246707D02*
D03*
X144495D02*
D03*
X169863Y142717D02*
D03*
X165913D02*
D03*
X147631Y246707D02*
D03*
X151581D02*
D03*
X227136Y208917D02*
D03*
X223186D02*
D03*
Y212854D02*
D03*
X227136D02*
D03*
D49*
X231499Y139426D02*
D03*
X233592Y136076D02*
D03*
X220737Y128044D02*
D03*
X218644Y131393D02*
D03*
X228160Y137339D02*
D03*
X230253Y133990D02*
D03*
D50*
X256105Y241590D02*
D03*
X252308Y240501D02*
D03*
D51*
X259636Y228652D02*
D03*
X255765Y227865D02*
D03*
D52*
X160900Y113386D02*
D03*
X153026Y116929D02*
D03*
Y109843D02*
D03*
D53*
X135587Y268955D02*
D03*
X124878D02*
D03*
D54*
X264910Y171528D02*
D03*
X249437D02*
D03*
X264910Y211764D02*
D03*
X249437D02*
D03*
D55*
X247174Y179048D02*
D03*
Y182197D02*
D03*
Y204244D02*
D03*
Y201095D02*
D03*
D56*
Y184756D02*
D03*
Y186725D02*
D03*
Y188693D02*
D03*
Y190662D02*
D03*
Y192630D02*
D03*
Y194599D02*
D03*
Y196567D02*
D03*
Y198536D02*
D03*
D57*
X260230Y242178D02*
D03*
X262400Y234609D02*
D03*
D58*
X127161Y278798D02*
D03*
D59*
X134642D02*
D03*
D60*
X263806Y228858D02*
D03*
X265375Y221142D02*
D03*
D61*
X125382Y227028D02*
D03*
X129128D02*
D03*
X121648Y227028D02*
D03*
X117902D02*
D03*
X159706Y194547D02*
D03*
X163452D02*
D03*
X178989Y235106D02*
D03*
X182735D02*
D03*
X178345Y169350D02*
D03*
X174600D02*
D03*
X187659Y225650D02*
D03*
X191404D02*
D03*
X207152Y169410D02*
D03*
X203407D02*
D03*
X175255Y235106D02*
D03*
X171509D02*
D03*
D62*
X211007Y122436D02*
D03*
X214183Y124421D02*
D03*
X208921Y125775D02*
D03*
X212097Y127760D02*
D03*
D63*
X159228Y234405D02*
D03*
Y241098D02*
D03*
X222319Y234405D02*
D03*
Y241098D02*
D03*
X214445Y234405D02*
D03*
Y241098D02*
D03*
X143224Y274866D02*
D03*
Y281559D02*
D03*
X160408Y130709D02*
D03*
Y137402D02*
D03*
D64*
X247969Y254077D02*
D03*
Y250331D02*
D03*
X208539Y238832D02*
D03*
Y242578D02*
D03*
X204602Y238832D02*
D03*
Y242578D02*
D03*
X198079Y306111D02*
D03*
Y309857D02*
D03*
X212921Y306111D02*
D03*
Y309857D02*
D03*
X133429Y210981D02*
D03*
Y214727D02*
D03*
X128264Y255564D02*
D03*
Y259310D02*
D03*
X215713Y174176D02*
D03*
Y170430D02*
D03*
X219650Y212759D02*
D03*
Y209013D02*
D03*
X235004Y170430D02*
D03*
Y174176D02*
D03*
X155870Y192674D02*
D03*
Y196420D02*
D03*
X219650Y201533D02*
D03*
Y205278D02*
D03*
D65*
X202534Y121653D02*
D03*
X168282D02*
D03*
D66*
X128264Y259310D02*
X133185D01*
X128264Y255564D02*
X128269Y255569D01*
X143815D01*
D67*
X144495Y246707D02*
Y251721D01*
X144386Y251829D02*
X144495Y251721D01*
X143815Y251829D02*
X144386D01*
X144495Y246707D02*
X147631D01*
X165912Y140412D02*
Y142716D01*
X161894Y138888D02*
X164388D01*
X165912Y140412D01*
Y142716D02*
X165913Y142717D01*
X160408Y137402D02*
X161894Y138888D01*
X172415Y121653D02*
Y129085D01*
Y114309D02*
Y121653D01*
X171493Y113386D02*
X172415Y114309D01*
X160900Y113386D02*
X171493D01*
X172415Y121653D02*
X202534D01*
X169863Y131637D02*
X172415Y129085D01*
X169863Y131637D02*
Y142717D01*
D68*
X235500Y162000D02*
X239500Y166000D01*
X236242Y160208D02*
X241292Y165258D01*
X180761Y171063D02*
X191617Y160208D01*
X236242D01*
X182554Y171805D02*
X192359Y162000D01*
X235500D01*
X241292Y165258D02*
Y177742D01*
X239500Y166000D02*
Y177000D01*
X236000Y183035D02*
Y187000D01*
Y183035D02*
X241292Y177742D01*
X234208Y182292D02*
X239500Y177000D01*
X236000Y187000D02*
X237781Y188781D01*
X234208Y187742D02*
X237039Y190574D01*
X234208Y182292D02*
Y187742D01*
X237039Y190574D02*
X244591D01*
Y190667D02*
X245423D01*
X247168D01*
X237781Y188781D02*
X245423D01*
X180673Y172905D02*
X180761Y172817D01*
Y171063D02*
Y172817D01*
X180673Y172905D02*
Y175059D01*
X182554Y172817D02*
X182642Y172905D01*
X182554Y171805D02*
Y172817D01*
X182642Y172905D02*
Y175059D01*
X245423Y188781D02*
X245512Y188693D01*
X247174D01*
X247168Y190667D02*
X247174Y190662D01*
X243714Y191544D02*
X244591Y190667D01*
X244591Y194593D02*
X247168D01*
X243714Y191544D02*
Y193716D01*
X247168Y194593D02*
X247174Y194599D01*
X243714Y193716D02*
X244591Y194593D01*
X247179Y192625D02*
X249757D01*
X247174Y192630D02*
X247179Y192625D01*
X249757D02*
X250633Y191748D01*
X247179Y188699D02*
X249757D01*
X250633Y189576D02*
Y191748D01*
X247174Y188693D02*
X247179Y188699D01*
X249757D02*
X250633Y189576D01*
D69*
X153351Y117254D02*
X155346D01*
X160408Y122315D02*
Y130709D01*
X153026Y116929D02*
X153351Y117254D01*
X155346D02*
X160408Y122315D01*
X164063Y136191D02*
X166973Y133281D01*
X161618Y136191D02*
X164063D01*
X166973Y122963D02*
Y133281D01*
Y122963D02*
X168282Y121653D01*
X160408Y137402D02*
X161618Y136191D01*
M02*
