G04*
G04 #@! TF.GenerationSoftware,Altium Limited,Altium Designer,22.7.1 (60)*
G04*
G04 Layer_Physical_Order=1*
G04 Layer_Color=255*
%FSLAX25Y25*%
%MOIN*%
G70*
G04*
G04 #@! TF.SameCoordinates,BCCB9F90-4AA1-44C7-A5C0-69E822051F84*
G04*
G04*
G04 #@! TF.FilePolarity,Positive*
G04*
G01*
G75*
%ADD13C,0.00600*%
%ADD16C,0.03098*%
G04:AMPARAMS|DCode=17|XSize=27.56mil|YSize=29.53mil|CornerRadius=0mil|HoleSize=0mil|Usage=FLASHONLY|Rotation=25.601|XOffset=0mil|YOffset=0mil|HoleType=Round|Shape=Rectangle|*
%AMROTATEDRECTD17*
4,1,4,-0.00605,-0.01927,-0.01881,0.00736,0.00605,0.01927,0.01881,-0.00736,-0.00605,-0.01927,0.0*
%
%ADD17ROTATEDRECTD17*%

%ADD18R,0.02756X0.02953*%
G04:AMPARAMS|DCode=19|XSize=27.56mil|YSize=29.53mil|CornerRadius=0mil|HoleSize=0mil|Usage=FLASHONLY|Rotation=334.399|XOffset=0mil|YOffset=0mil|HoleType=Round|Shape=Rectangle|*
%AMROTATEDRECTD19*
4,1,4,-0.01881,-0.00736,-0.00605,0.01927,0.01881,0.00736,0.00605,-0.01927,-0.01881,-0.00736,0.0*
%
%ADD19ROTATEDRECTD19*%

%ADD27C,0.01575*%
%ADD28C,0.01181*%
%ADD29C,0.01378*%
%ADD30C,0.03937*%
%ADD31C,0.05512*%
%ADD32C,0.01575*%
G36*
X205335Y315678D02*
X205882Y315471D01*
X206429Y315258D01*
X206975Y315039D01*
X207521Y314815D01*
X208064Y314586D01*
X208608Y314350D01*
X209150Y314109D01*
X209691Y313863D01*
X210232Y313611D01*
X210772Y313353D01*
X211311Y313089D01*
X211847Y312821D01*
X212384Y312546D01*
X212920Y312266D01*
X213454Y311981D01*
X213986Y311690D01*
X214519Y311393D01*
X215050Y311091D01*
X215579Y310784D01*
X216107Y310471D01*
X216635Y310152D01*
X217161Y309829D01*
X217685Y309499D01*
X218209Y309164D01*
X218730Y308824D01*
X219251Y308478D01*
X219770Y308128D01*
X220288Y307771D01*
X220804Y307410D01*
X221319Y307042D01*
X221833Y306670D01*
X222345Y306292D01*
X222855Y305909D01*
X223363Y305521D01*
X223870Y305127D01*
X224377Y304727D01*
X224880Y304324D01*
X225382Y303914D01*
X225882Y303500D01*
X226381Y303080D01*
X226879Y302655D01*
X227374Y302225D01*
X227869Y301789D01*
X228360Y301349D01*
X228851Y300903D01*
X229339Y300453D01*
X229825Y299996D01*
X230309Y299536D01*
X230792Y299071D01*
X231273Y298600D01*
X231751Y298124D01*
X232228Y297643D01*
X232689Y297172D01*
Y275334D01*
X228610Y271268D01*
X224288Y266960D01*
X223700Y267077D01*
X223671Y267148D01*
X223059Y267760D01*
X222259Y268091D01*
X221394D01*
X220595Y267760D01*
X219983Y267148D01*
X219652Y266349D01*
Y265484D01*
X219983Y264684D01*
X220569Y264099D01*
X220677Y263952D01*
X220775Y263458D01*
X210423Y253137D01*
Y239899D01*
X194658Y224134D01*
X193290D01*
X192739Y224685D01*
Y226471D01*
X206000Y239733D01*
X206000Y264999D01*
X208826Y267825D01*
X209047Y267733D01*
X209599D01*
X210109Y267944D01*
X210499Y268334D01*
X210710Y268844D01*
Y269396D01*
X210619Y269618D01*
X212269Y271268D01*
X224583D01*
X224974Y271268D01*
X224974Y271268D01*
X224974Y271268D01*
X225331Y271338D01*
X225742Y271420D01*
X225742Y271420D01*
X225742Y271420D01*
X226466Y271720D01*
X227117Y272155D01*
X227671Y272709D01*
X228106Y273360D01*
X228405Y274083D01*
X228558Y274851D01*
X228558Y275243D01*
X228558Y275243D01*
Y275635D01*
X228532Y275765D01*
Y290091D01*
X204500Y314124D01*
Y315389D01*
X205100Y315764D01*
X205335Y315678D01*
D02*
G37*
G36*
X103225Y219376D02*
Y218668D01*
X103552Y217878D01*
X104157Y217273D01*
X104487Y217136D01*
X104487Y216487D01*
X103930Y216256D01*
X103213Y215539D01*
X102825Y214602D01*
Y214595D01*
X105374D01*
Y213595D01*
X102825D01*
Y213588D01*
X103213Y212651D01*
X103618Y212246D01*
X103430Y211646D01*
X102587Y211297D01*
X101987Y211537D01*
Y216191D01*
X102095Y216913D01*
X102228Y217775D01*
X102365Y218638D01*
X102477Y219321D01*
X102481Y219326D01*
X102894Y219501D01*
X103115Y219503D01*
X103225Y219376D01*
D02*
G37*
G36*
X180400Y317665D02*
X180413Y317567D01*
X180732Y316652D01*
X180888Y316385D01*
X181022Y316106D01*
X181604Y315331D01*
X181834Y315125D01*
X182046Y314900D01*
X182836Y314338D01*
X183118Y314212D01*
X183389Y314062D01*
X184313Y313767D01*
X184620Y313732D01*
X184923Y313672D01*
X185892D01*
X186196Y313732D01*
X186503Y313767D01*
X187426Y314062D01*
X187697Y314212D01*
X187979Y314338D01*
X188769Y314900D01*
X188981Y315125D01*
X189211Y315331D01*
X189793Y316106D01*
X189927Y316385D01*
X190084Y316652D01*
X190402Y317567D01*
X190416Y317665D01*
X198940D01*
X199264Y317583D01*
X199820Y317438D01*
X200374Y317288D01*
X200928Y317132D01*
X201481Y316970D01*
X202034Y316802D01*
X202585Y316629D01*
X203136Y316450D01*
X203677Y316269D01*
X203702Y316236D01*
X203832Y315968D01*
X203886Y315562D01*
X203867Y315535D01*
X203880Y315460D01*
X203851Y315389D01*
Y314124D01*
X204041Y313665D01*
X227883Y289823D01*
Y278414D01*
X227283Y278165D01*
X227117Y278331D01*
X226466Y278766D01*
X225742Y279066D01*
X224974Y279219D01*
X224583D01*
X224583Y279219D01*
X150173Y279219D01*
X149782Y279219D01*
X149014Y279066D01*
X148290Y278766D01*
X147639Y278331D01*
X147639Y278331D01*
X147085Y277777D01*
X146650Y277126D01*
X146350Y276403D01*
X146350Y276403D01*
X146350Y276403D01*
X146281Y276051D01*
X146198Y275635D01*
X146198Y275635D01*
X146198Y275635D01*
X146198Y275243D01*
X146198Y274852D01*
X146350Y274083D01*
X146650Y273360D01*
X147085Y272709D01*
X147234Y272560D01*
X146985Y271960D01*
X140997D01*
X140903Y272054D01*
Y279782D01*
X140876Y279919D01*
Y280058D01*
X140822Y280187D01*
X140795Y280323D01*
X140718Y280439D01*
X140664Y280568D01*
X140566Y280666D01*
X140488Y280782D01*
X140373Y280860D01*
X140274Y280958D01*
X140145Y281012D01*
X140030Y281089D01*
X139893Y281116D01*
X139764Y281169D01*
X139625D01*
X139488Y281196D01*
X139351Y281169D01*
X139212D01*
X139084Y281116D01*
X138947Y281089D01*
X138831Y281012D01*
X138702Y280958D01*
X138604Y280860D01*
X138488Y280782D01*
X138410Y280666D01*
X138312Y280568D01*
X138259Y280439D01*
X138181Y280323D01*
X138154Y280187D01*
X138101Y280058D01*
Y279919D01*
X138074Y279782D01*
Y271468D01*
X138181Y270927D01*
X138488Y270468D01*
X139410Y269545D01*
X139869Y269238D01*
X140411Y269131D01*
X149173D01*
X149310Y269158D01*
X149449D01*
X149578Y269211D01*
X149715Y269238D01*
X149830Y269316D01*
X149959Y269369D01*
X150058Y269468D01*
X150173Y269545D01*
X150251Y269661D01*
X150349Y269759D01*
X150403Y269888D01*
X150480Y270004D01*
X150507Y270141D01*
X150561Y270269D01*
Y270409D01*
X150588Y270545D01*
X150564Y270668D01*
X150561Y270684D01*
Y270821D01*
X150906Y271194D01*
X151026Y271268D01*
X210566D01*
X210796Y270713D01*
X210159Y270077D01*
X210110Y269957D01*
X210019Y269866D01*
Y269737D01*
X209969Y269618D01*
X210019Y269498D01*
Y269369D01*
X210061Y269267D01*
Y268973D01*
X209948Y268702D01*
X209741Y268495D01*
X209470Y268382D01*
X209176D01*
X209074Y268425D01*
X208945D01*
X208826Y268474D01*
X208706Y268425D01*
X208577D01*
X208486Y268333D01*
X208366Y268284D01*
X205541Y265458D01*
X205351Y264999D01*
X205351Y240002D01*
X194417Y229068D01*
X194112Y229138D01*
X193784Y229284D01*
X193606Y229716D01*
X193216Y230106D01*
X192706Y230317D01*
X192154D01*
X191644Y230106D01*
X191253Y229716D01*
X191042Y229206D01*
Y228840D01*
X187898Y225696D01*
X187699Y225398D01*
X187630Y225047D01*
Y216842D01*
X187371Y216583D01*
X187160Y216074D01*
Y215522D01*
X187371Y215012D01*
X187761Y214621D01*
X188271Y214410D01*
X188823D01*
X189333Y214621D01*
X189723Y215012D01*
X189935Y215522D01*
Y216074D01*
X189723Y216583D01*
X189465Y216842D01*
Y224667D01*
X191560Y226763D01*
X192010Y226515D01*
X192089Y226443D01*
Y224685D01*
X192279Y224226D01*
X192831Y223674D01*
X193290Y223484D01*
X194658D01*
X195117Y223674D01*
X210882Y239440D01*
X211072Y239899D01*
Y252868D01*
X221234Y262998D01*
X221259Y263059D01*
X221315Y263096D01*
X221352Y263282D01*
X221425Y263457D01*
X221919Y263721D01*
X221993Y263741D01*
X222259D01*
X223059Y264073D01*
X223671Y264684D01*
X224002Y265484D01*
Y265743D01*
X224022Y265817D01*
X224287Y266310D01*
X224463Y266383D01*
X224649Y266419D01*
X224686Y266474D01*
X224747Y266500D01*
X229068Y270808D01*
X233147Y274874D01*
X233148Y274874D01*
X233148Y274874D01*
X233243Y275104D01*
X233338Y275333D01*
X233338Y275333D01*
X233338Y275334D01*
Y295622D01*
X233938Y295859D01*
X234115Y295670D01*
X234581Y295165D01*
X235046Y294654D01*
X235508Y294140D01*
X235968Y293620D01*
X236426Y293095D01*
X236883Y292565D01*
X237336Y292031D01*
X237787Y291492D01*
X238236Y290949D01*
X238684Y290399D01*
X239127Y289847D01*
X239570Y289289D01*
X240009Y288727D01*
X240447Y288160D01*
X240882Y287589D01*
X241315Y287013D01*
X241745Y286433D01*
X242173Y285847D01*
X242598Y285258D01*
X243021Y284665D01*
X243441Y284067D01*
X243859Y283464D01*
X244274Y282857D01*
X244687Y282246D01*
X245097Y281630D01*
X245504Y281012D01*
X245909Y280387D01*
X246311Y279759D01*
X246710Y279127D01*
X247108Y278490D01*
X247501Y277850D01*
X247893Y277204D01*
X248281Y276556D01*
X248668Y275903D01*
X249050Y275246D01*
X249431Y274586D01*
X249809Y273919D01*
X250183Y273251D01*
X250554Y272580D01*
X250923Y271903D01*
X251290Y271221D01*
X251653Y270538D01*
X252013Y269850D01*
X252369Y269160D01*
X252724Y268463D01*
X253076Y267764D01*
X253424Y267061D01*
X253768Y266357D01*
X254110Y265648D01*
X254450Y264933D01*
X254786Y264216D01*
X255120Y263495D01*
X255450Y262771D01*
X255777Y262044D01*
X256100Y261314D01*
X256421Y260578D01*
X256739Y259842D01*
X257053Y259101D01*
X257364Y258357D01*
X257673Y257609D01*
X257977Y256860D01*
X258278Y256106D01*
X258577Y255349D01*
X258872Y254589D01*
X259164Y253826D01*
X259452Y253062D01*
X259737Y252292D01*
X260019Y251520D01*
X260298Y250746D01*
X260573Y249969D01*
X260845Y249189D01*
X261114Y248405D01*
X261379Y247619D01*
X261641Y246829D01*
X261899Y246038D01*
X262154Y245244D01*
X262405Y244448D01*
X262654Y243648D01*
X262898Y242846D01*
X263140Y242041D01*
X263377Y241236D01*
X263612Y240424D01*
X263843Y239612D01*
X264069Y238800D01*
X264294Y237982D01*
X264514Y237164D01*
X264730Y236344D01*
X264944Y235517D01*
X265153Y234694D01*
X265360Y233864D01*
X265562Y233035D01*
X265761Y232203D01*
X265956Y231369D01*
X266148Y230535D01*
X266337Y229694D01*
X266521Y228855D01*
X266702Y228012D01*
X266879Y227169D01*
X267053Y226324D01*
X267223Y225477D01*
X267389Y224626D01*
X267552Y223777D01*
X267711Y222922D01*
X267866Y222070D01*
X268018Y221213D01*
X268166Y220357D01*
X268310Y219497D01*
X268451Y218636D01*
X268587Y217775D01*
X268720Y216913D01*
X268828Y216191D01*
X268828Y167352D01*
X268431Y165600D01*
X267351Y161702D01*
X266088Y157859D01*
X265258Y155686D01*
X264702Y155459D01*
X264275Y155656D01*
X263970Y155728D01*
X263671Y155825D01*
X262695Y155940D01*
X262382Y155915D01*
X262068Y155915D01*
X261104Y155722D01*
X260814Y155602D01*
X260516Y155505D01*
X259658Y155025D01*
X259419Y154821D01*
X259165Y154637D01*
X258497Y153915D01*
X258333Y153648D01*
X258148Y153395D01*
X257735Y152502D01*
X257662Y152197D01*
X257564Y151899D01*
X257447Y150923D01*
X257470Y150610D01*
X257470Y150296D01*
X257659Y149331D01*
X257778Y149041D01*
X257874Y148742D01*
X258352Y147883D01*
X258555Y147644D01*
X258738Y147389D01*
X259458Y146719D01*
X259725Y146554D01*
X259978Y146369D01*
X260416Y146164D01*
X260599Y145593D01*
X258657Y142156D01*
X255871Y137852D01*
X252832Y133721D01*
X249552Y129780D01*
X246041Y126043D01*
X242314Y122522D01*
X238382Y119231D01*
X234260Y116181D01*
X230424Y113683D01*
X229847Y113845D01*
X229303Y114980D01*
X227159Y113952D01*
X225014Y112925D01*
X225868Y111142D01*
X225416Y110803D01*
X220906Y108583D01*
X218817Y107706D01*
X218795Y107754D01*
X218536Y108295D01*
X217941Y109536D01*
X215797Y108508D01*
X213652Y107481D01*
X214184Y106371D01*
X213954Y105817D01*
X211341Y104899D01*
X206410Y103493D01*
X201403Y102385D01*
X199028Y102007D01*
X194085D01*
Y103035D01*
X189329D01*
Y102007D01*
X181486D01*
Y103035D01*
X176731D01*
Y102007D01*
X171787D01*
X169412Y102385D01*
X164406Y103493D01*
X159475Y104899D01*
X156864Y105816D01*
X156634Y106370D01*
X157166Y107481D01*
X155022Y108508D01*
X152877Y109536D01*
X152283Y108295D01*
X152023Y107754D01*
X152001Y107704D01*
X149909Y108583D01*
X145401Y110802D01*
X144951Y111142D01*
X145805Y112925D01*
X143660Y113952D01*
X141516Y114980D01*
X140971Y113843D01*
X140394Y113681D01*
X136555Y116181D01*
X132433Y119231D01*
X128502Y122522D01*
X124774Y126043D01*
X121264Y129780D01*
X117983Y133721D01*
X114945Y137852D01*
X112159Y142156D01*
X110216Y145593D01*
X110399Y146164D01*
X110837Y146369D01*
X111090Y146554D01*
X111357Y146719D01*
X112077Y147389D01*
X112260Y147644D01*
X112463Y147883D01*
X112941Y148742D01*
X113037Y149041D01*
X113156Y149331D01*
X113346Y150296D01*
X113345Y150610D01*
X113369Y150923D01*
X113251Y151899D01*
X113154Y152197D01*
X113080Y152502D01*
X112667Y153395D01*
X112483Y153648D01*
X112318Y153915D01*
X111650Y154637D01*
X111396Y154821D01*
X111158Y155025D01*
X110300Y155505D01*
X110001Y155602D01*
X109712Y155722D01*
X108747Y155915D01*
X108433Y155915D01*
X108121Y155940D01*
X107144Y155825D01*
X106846Y155728D01*
X106541Y155656D01*
X106113Y155459D01*
X105558Y155686D01*
X104728Y157859D01*
X103465Y161702D01*
X102385Y165600D01*
X101987Y167352D01*
Y206654D01*
X102587Y206893D01*
X103430Y206544D01*
X104444D01*
X105382Y206933D01*
X106099Y207650D01*
X106488Y208588D01*
Y209603D01*
X106099Y210540D01*
X105694Y210946D01*
X105881Y211546D01*
X106818Y211934D01*
X107535Y212651D01*
X107766Y213208D01*
X108415Y213208D01*
X108552Y212878D01*
X109157Y212273D01*
X109947Y211946D01*
X110460D01*
X110579Y211346D01*
X110366Y211258D01*
X109649Y210540D01*
X109260Y209603D01*
Y208588D01*
X109649Y207650D01*
X110366Y206933D01*
X111304Y206544D01*
X112318D01*
X113256Y206933D01*
X113973Y207650D01*
X114362Y208588D01*
Y209603D01*
X113973Y210540D01*
X113256Y211258D01*
X112318Y211646D01*
X111645D01*
X111526Y212246D01*
X111591Y212273D01*
X112196Y212878D01*
X112523Y213668D01*
Y214523D01*
X112327Y214996D01*
X112836Y215335D01*
X116919Y211252D01*
Y204125D01*
X116319Y203832D01*
X115960Y204040D01*
X115307Y204215D01*
X114630D01*
X113977Y204040D01*
X113391Y203701D01*
X112913Y203223D01*
X112815Y203053D01*
X112122D01*
X112024Y203223D01*
X111546Y203701D01*
X110960Y204040D01*
X110307Y204215D01*
X109630D01*
X108977Y204040D01*
X108391Y203701D01*
X107913Y203223D01*
X107575Y202637D01*
X107400Y201984D01*
Y201308D01*
X107575Y200655D01*
X107913Y200069D01*
X108391Y199591D01*
X108562Y199492D01*
Y198800D01*
X108391Y198701D01*
X107913Y198223D01*
X107575Y197637D01*
X107400Y196984D01*
Y196308D01*
X107575Y195655D01*
X107913Y195069D01*
X108223Y194759D01*
X108217Y194063D01*
X108146Y194021D01*
X107593Y193469D01*
X107202Y192792D01*
X107029Y192146D01*
X109968D01*
Y191146D01*
X107029D01*
X107202Y190500D01*
X107593Y189823D01*
X107865Y189552D01*
X108080Y189146D01*
X107865Y188740D01*
X107593Y188469D01*
X107202Y187792D01*
X107029Y187146D01*
X109968D01*
Y186146D01*
X107029D01*
X107202Y185500D01*
X107593Y184823D01*
X108146Y184271D01*
X108217Y184229D01*
X108223Y183533D01*
X107913Y183223D01*
X107575Y182637D01*
X107400Y181984D01*
Y181308D01*
X107575Y180655D01*
X107913Y180069D01*
X108391Y179591D01*
X108977Y179253D01*
X109630Y179077D01*
X110307D01*
X110960Y179253D01*
X111546Y179591D01*
X112024Y180069D01*
X112122Y180239D01*
X112815D01*
X112913Y180069D01*
X113391Y179591D01*
X113977Y179253D01*
X114630Y179077D01*
X115307D01*
X115960Y179253D01*
X116546Y179591D01*
X117024Y180069D01*
X117362Y180655D01*
X117537Y181308D01*
Y181984D01*
X117362Y182637D01*
X117324Y182703D01*
X119686Y185066D01*
X119885Y185363D01*
X119955Y185714D01*
Y212129D01*
X119885Y212480D01*
X119686Y212778D01*
X113741Y218723D01*
Y221646D01*
X113671Y221997D01*
X113472Y222295D01*
X112399Y223368D01*
X112523Y223668D01*
Y224523D01*
X112196Y225313D01*
X111591Y225917D01*
X111084Y226127D01*
X110907Y226799D01*
X111374Y227266D01*
X111573Y227563D01*
X111642Y227914D01*
Y228707D01*
X112115Y229180D01*
X112481D01*
X112991Y229391D01*
X113152Y229375D01*
X113379Y229034D01*
X132706Y209708D01*
Y159718D01*
X132814Y159177D01*
X133120Y158718D01*
X155149Y136689D01*
X155265Y136611D01*
X155364Y136513D01*
X155492Y136460D01*
X155608Y136382D01*
X155745Y136355D01*
X155874Y136302D01*
X156013D01*
X156150Y136274D01*
X156286Y136302D01*
X156426D01*
X156554Y136355D01*
X156691Y136382D01*
X156807Y136460D01*
X156936Y136513D01*
X157034Y136611D01*
X157150Y136689D01*
X157227Y136805D01*
X157326Y136903D01*
X157379Y137032D01*
X157457Y137148D01*
X157484Y137284D01*
X157537Y137413D01*
Y137552D01*
X157564Y137689D01*
X157537Y137826D01*
Y137965D01*
X157484Y138094D01*
X157457Y138230D01*
X157379Y138346D01*
X157326Y138475D01*
X157227Y138573D01*
X157150Y138689D01*
X135535Y160304D01*
Y210294D01*
X135427Y210835D01*
X135121Y211294D01*
X115794Y230621D01*
Y231468D01*
X115687Y232009D01*
X115380Y232468D01*
X114850Y232998D01*
Y245076D01*
X131233Y261459D01*
X131539Y261918D01*
X131647Y262459D01*
Y266987D01*
X131639Y267026D01*
Y280866D01*
X131531Y281407D01*
X131225Y281866D01*
X129736Y283355D01*
X129736Y283355D01*
X129621Y283432D01*
X129522Y283530D01*
X129393Y283584D01*
X129278Y283661D01*
X129141Y283688D01*
X129012Y283742D01*
X128873D01*
X128736Y283769D01*
X128600Y283742D01*
X128460D01*
X128331Y283688D01*
X128195Y283661D01*
X128079Y283584D01*
X127950Y283530D01*
X127852Y283432D01*
X127736Y283355D01*
X127659Y283239D01*
X127560Y283140D01*
X127507Y283012D01*
X127429Y282896D01*
X127402Y282759D01*
X127349Y282630D01*
Y282491D01*
X127322Y282354D01*
X127349Y282218D01*
Y282078D01*
X127402Y281950D01*
X127429Y281813D01*
X127507Y281697D01*
X127560Y281568D01*
X127658Y281470D01*
X127736Y281354D01*
X128810Y280280D01*
Y266995D01*
X128818Y266955D01*
Y263045D01*
X112435Y246662D01*
X112128Y246204D01*
X112021Y245662D01*
Y232412D01*
X112076Y232134D01*
X111929Y231954D01*
X111419Y231743D01*
X111029Y231353D01*
X110817Y230843D01*
X110622Y230695D01*
X110036Y230540D01*
X109319Y231258D01*
X108381Y231646D01*
X107367D01*
X106429Y231258D01*
X105712Y230540D01*
X105323Y229603D01*
Y228588D01*
X105712Y227650D01*
X106429Y226933D01*
X106509Y226529D01*
X106101Y226120D01*
X105801Y226244D01*
X104946D01*
X104305Y225979D01*
X103881Y226231D01*
X103770Y226357D01*
X103936Y227168D01*
X104113Y228012D01*
X104294Y228853D01*
X104479Y229696D01*
X104667Y230533D01*
X104859Y231368D01*
X105054Y232204D01*
X105253Y233035D01*
X105456Y233867D01*
X105662Y234695D01*
X105872Y235519D01*
X106085Y236344D01*
X106301Y237162D01*
X106522Y237982D01*
X106746Y238799D01*
X106973Y239615D01*
X107204Y240425D01*
X107438Y241235D01*
X107676Y242041D01*
X107917Y242846D01*
X108161Y243647D01*
X108410Y244447D01*
X108662Y245245D01*
X108916Y246038D01*
X109175Y246830D01*
X109437Y247618D01*
X109702Y248405D01*
X109971Y249188D01*
X110242Y249968D01*
X110518Y250746D01*
X110796Y251520D01*
X111078Y252293D01*
X111363Y253061D01*
X111651Y253826D01*
X111944Y254590D01*
X112239Y255350D01*
X112537Y256106D01*
X112839Y256860D01*
X113143Y257610D01*
X113451Y258356D01*
X113763Y259102D01*
X114077Y259842D01*
X114394Y260578D01*
X114715Y261313D01*
X115039Y262044D01*
X115366Y262771D01*
X115695Y263494D01*
X116029Y264216D01*
X116364Y264931D01*
X116704Y265646D01*
X117046Y266355D01*
X117392Y267062D01*
X117740Y267764D01*
X118091Y268464D01*
X118446Y269159D01*
X118802Y269850D01*
X119163Y270538D01*
X119526Y271222D01*
X119892Y271903D01*
X120261Y272580D01*
X120633Y273253D01*
X121007Y273920D01*
X121385Y274586D01*
X121765Y275247D01*
X122148Y275903D01*
X122535Y276557D01*
X122923Y277205D01*
X123314Y277850D01*
X123708Y278490D01*
X124105Y279127D01*
X124504Y279759D01*
X124906Y280387D01*
X125311Y281011D01*
X125719Y281631D01*
X126129Y282246D01*
X126542Y282858D01*
X126956Y283463D01*
X127374Y284067D01*
X127794Y284665D01*
X128218Y285259D01*
X128642Y285847D01*
X129070Y286433D01*
X129501Y287013D01*
X129933Y287589D01*
X130368Y288160D01*
X130805Y288726D01*
X131245Y289289D01*
X131688Y289847D01*
X132132Y290400D01*
X132580Y290949D01*
X133028Y291492D01*
X133479Y292031D01*
X133933Y292565D01*
X134389Y293095D01*
X134847Y293619D01*
X135306Y294139D01*
X135768Y294653D01*
X136233Y295164D01*
X136700Y295669D01*
X137169Y296171D01*
X137639Y296666D01*
X138113Y297158D01*
X138587Y297643D01*
X139064Y298124D01*
X139543Y298600D01*
X140023Y299070D01*
X140506Y299536D01*
X140990Y299996D01*
X141478Y300453D01*
X141965Y300903D01*
X142455Y301349D01*
X142947Y301790D01*
X143441Y302225D01*
X143937Y302655D01*
X144433Y303080D01*
X144933Y303500D01*
X145434Y303915D01*
X145936Y304324D01*
X146439Y304728D01*
X146945Y305127D01*
X147452Y305521D01*
X147961Y305909D01*
X148472Y306293D01*
X148983Y306670D01*
X149496Y307042D01*
X150012Y307410D01*
X150528Y307771D01*
X151046Y308128D01*
X151564Y308478D01*
X152085Y308824D01*
X152607Y309165D01*
X153131Y309500D01*
X153654Y309828D01*
X154181Y310153D01*
X154708Y310471D01*
X155236Y310784D01*
X155765Y311091D01*
X156297Y311394D01*
X156829Y311690D01*
X157361Y311981D01*
X157896Y312266D01*
X158432Y312546D01*
X158967Y312820D01*
X159505Y313090D01*
X160044Y313353D01*
X160583Y313611D01*
X161123Y313862D01*
X161665Y314109D01*
X162208Y314350D01*
X162751Y314585D01*
X163295Y314815D01*
X163840Y315039D01*
X164386Y315258D01*
X164933Y315471D01*
X165481Y315678D01*
X166029Y315879D01*
X166579Y316075D01*
X167129Y316266D01*
X167679Y316450D01*
X168229Y316629D01*
X168782Y316802D01*
X169335Y316970D01*
X169888Y317132D01*
X170441Y317288D01*
X170995Y317438D01*
X171551Y317583D01*
X171876Y317665D01*
X180400Y317665D01*
D02*
G37*
%LPC*%
G36*
X161105Y309025D02*
X160230Y308902D01*
X159417Y308557D01*
X158721Y308013D01*
X158189Y307308D01*
X157858Y306488D01*
X157750Y305611D01*
X157873Y304736D01*
X158218Y303923D01*
X158762Y303226D01*
X159468Y302695D01*
X160287Y302364D01*
X161164Y302256D01*
X162039Y302379D01*
X162853Y302724D01*
X163549Y303268D01*
X164081Y303974D01*
X164412Y304793D01*
X164520Y305670D01*
X164397Y306545D01*
X164051Y307359D01*
X163507Y308055D01*
X162802Y308587D01*
X161982Y308918D01*
X161105Y309025D01*
D02*
G37*
G36*
X158152Y302128D02*
X157173Y301991D01*
X156263Y301604D01*
X155483Y300995D01*
X154892Y300210D01*
X157909Y298991D01*
X159128Y302008D01*
X158152Y302128D01*
D02*
G37*
G36*
X160055Y301634D02*
X158836Y298616D01*
X161854Y297397D01*
X161973Y298373D01*
X161836Y299352D01*
X161449Y300263D01*
X160840Y301042D01*
X160055Y301634D01*
D02*
G37*
G36*
X154517Y299283D02*
X154397Y298307D01*
X154535Y297328D01*
X154921Y296417D01*
X155530Y295638D01*
X156315Y295046D01*
X157534Y298064D01*
X154517Y299283D01*
D02*
G37*
G36*
X158461Y297689D02*
X157242Y294672D01*
X158218Y294552D01*
X159198Y294689D01*
X160108Y295076D01*
X160887Y295685D01*
X161479Y296470D01*
X158461Y297689D01*
D02*
G37*
G36*
X177418Y265994D02*
X176866D01*
X176356Y265782D01*
X175966Y265392D01*
X175854Y265122D01*
X175515Y264868D01*
X175154Y264848D01*
X174859Y264970D01*
X174307D01*
X174011Y264848D01*
X173651Y264868D01*
X173312Y265122D01*
X173200Y265392D01*
X172810Y265782D01*
X172300Y265994D01*
X171748D01*
X171238Y265782D01*
X170847Y265392D01*
X170736Y265122D01*
X170397Y264868D01*
X170036Y264848D01*
X169740Y264970D01*
X169189D01*
X168893Y264848D01*
X168532Y264868D01*
X168193Y265122D01*
X168082Y265392D01*
X167691Y265782D01*
X167182Y265994D01*
X166630D01*
X166120Y265782D01*
X165729Y265392D01*
X165618Y265122D01*
X165279Y264868D01*
X164918Y264848D01*
X164622Y264970D01*
X164070D01*
X163775Y264848D01*
X163414Y264868D01*
X163075Y265122D01*
X162964Y265392D01*
X162573Y265782D01*
X162063Y265994D01*
X161511D01*
X161002Y265782D01*
X160611Y265392D01*
X160400Y264882D01*
Y264330D01*
X160611Y263820D01*
X161002Y263430D01*
X161511Y263219D01*
X161741D01*
Y262884D01*
X161811Y262533D01*
X162010Y262235D01*
X162999Y261246D01*
X163296Y261048D01*
X163647Y260978D01*
X164991D01*
X165627Y260342D01*
Y241354D01*
X165188Y240962D01*
X164646Y241069D01*
X164256Y241460D01*
X163746Y241671D01*
X163194D01*
X163079Y241623D01*
X163037Y241652D01*
X162686Y241722D01*
X156031D01*
X155772Y241980D01*
X155263Y242191D01*
X154711D01*
X154201Y241980D01*
X153810Y241590D01*
X153599Y241080D01*
Y240528D01*
X153810Y240018D01*
X154201Y239628D01*
X154711Y239417D01*
X155263D01*
X155772Y239628D01*
X156031Y239886D01*
X162133D01*
X162294Y239498D01*
X162684Y239107D01*
X162800Y238525D01*
X158106Y233831D01*
X157907Y233533D01*
X157837Y233182D01*
Y223251D01*
X157907Y222900D01*
X158106Y222602D01*
X184461Y196247D01*
Y182521D01*
X184334D01*
X183824Y182310D01*
X183434Y181920D01*
X183223Y181410D01*
Y180858D01*
X183434Y180348D01*
X183824Y179958D01*
X184334Y179746D01*
X184652D01*
X184981Y179585D01*
X185191Y179223D01*
Y178929D01*
X185403Y178419D01*
X185793Y178029D01*
X186303Y177817D01*
X186855D01*
X187365Y178029D01*
X187755Y178419D01*
X187966Y178929D01*
Y179223D01*
X188177Y179585D01*
X188505Y179746D01*
X188589D01*
X188918Y179585D01*
X189128Y179223D01*
Y178929D01*
X189340Y178419D01*
X189730Y178029D01*
X190240Y177817D01*
X190792D01*
X191302Y178029D01*
X191692Y178419D01*
X191903Y178929D01*
Y179481D01*
X191692Y179991D01*
X191433Y180249D01*
Y181552D01*
X191364Y181903D01*
X191165Y182201D01*
X189918Y183448D01*
Y196795D01*
X190472Y197025D01*
X196272Y191224D01*
Y182521D01*
X196145D01*
X195635Y182310D01*
X195245Y181920D01*
X195034Y181410D01*
Y180858D01*
X195245Y180348D01*
X195635Y179958D01*
X196145Y179746D01*
X196463D01*
X196792Y179585D01*
X197002Y179223D01*
Y178929D01*
X197214Y178419D01*
X197604Y178029D01*
X198114Y177817D01*
X198666D01*
X199176Y178029D01*
X199566Y178419D01*
X199777Y178929D01*
Y179223D01*
X199988Y179585D01*
X200317Y179746D01*
X200400D01*
X200729Y179585D01*
X200939Y179223D01*
Y178929D01*
X201151Y178419D01*
X201541Y178029D01*
X202051Y177817D01*
X202603D01*
X203113Y178029D01*
X203503Y178419D01*
X203714Y178929D01*
Y179481D01*
X203503Y179991D01*
X203244Y180249D01*
Y181552D01*
X203175Y181903D01*
X202976Y182201D01*
X201707Y183469D01*
Y193096D01*
X201638Y193447D01*
X201439Y193744D01*
X200239Y194944D01*
X200239Y194944D01*
X181518Y213666D01*
X181633Y214248D01*
X182024Y214638D01*
X182235Y215148D01*
Y215700D01*
X182024Y216210D01*
X181633Y216600D01*
X181123Y216811D01*
X180758D01*
X178856Y218713D01*
X178558Y218912D01*
X178207Y218982D01*
X177898D01*
X175998Y220882D01*
X176146Y221237D01*
Y221789D01*
X175935Y222299D01*
X175544Y222690D01*
X175034Y222901D01*
X174482D01*
X173972Y222690D01*
X173582Y222299D01*
X173000Y222183D01*
X168073Y227110D01*
Y229323D01*
X175593Y236843D01*
X175792Y237141D01*
X175862Y237492D01*
Y238554D01*
X176356Y238884D01*
X176722D01*
X181574Y234031D01*
X181872Y233832D01*
X182223Y233762D01*
X185635D01*
X185894Y233504D01*
X186404Y233293D01*
X186955D01*
X187465Y233504D01*
X187856Y233894D01*
X188067Y234404D01*
Y234956D01*
X187856Y235466D01*
X187465Y235856D01*
X186955Y236067D01*
X186404D01*
X185894Y235856D01*
X185635Y235597D01*
X182603D01*
X178019Y240181D01*
Y240547D01*
X177808Y241057D01*
X177418Y241447D01*
X176908Y241659D01*
X176356D01*
X175862Y241988D01*
Y259481D01*
X178851Y262470D01*
X178915Y262406D01*
X179425Y262195D01*
X179977D01*
X180487Y262406D01*
X180877Y262797D01*
X181088Y263307D01*
Y263859D01*
X180877Y264369D01*
X180487Y264759D01*
X179977Y264970D01*
X179425D01*
X179129Y264848D01*
X178769Y264868D01*
X178430Y265122D01*
X178318Y265392D01*
X177928Y265782D01*
X177418Y265994D01*
D02*
G37*
G36*
X153362Y268091D02*
X152497D01*
X151697Y267760D01*
X151085Y267148D01*
X150754Y266349D01*
Y265484D01*
X151085Y264684D01*
X151697Y264073D01*
X152497Y263741D01*
X153362D01*
X154161Y264073D01*
X154773Y264684D01*
X155104Y265484D01*
Y266349D01*
X154773Y267148D01*
X154161Y267760D01*
X153362Y268091D01*
D02*
G37*
G36*
X132645Y246188D02*
X131247D01*
X130896Y246119D01*
X130598Y245920D01*
X129359Y244681D01*
X129357Y244679D01*
X128733Y244633D01*
X128577Y244679D01*
X128496Y244760D01*
X127986Y244971D01*
X127434D01*
X126924Y244760D01*
X126665Y244501D01*
X123186D01*
X122835Y244431D01*
X122537Y244232D01*
X116755Y238451D01*
X116556Y238153D01*
X116486Y237802D01*
Y235051D01*
X116228Y234792D01*
X116016Y234282D01*
Y233730D01*
X116228Y233220D01*
X116618Y232830D01*
X117128Y232619D01*
X117680D01*
X118190Y232830D01*
X118580Y233220D01*
X118791Y233730D01*
Y234282D01*
X118580Y234792D01*
X118322Y235051D01*
Y237421D01*
X121899Y240999D01*
X122482Y240883D01*
X122872Y240493D01*
X123382Y240282D01*
X123934D01*
X124444Y240493D01*
X124834Y240883D01*
X124873Y240978D01*
X128409D01*
X128760Y241048D01*
X129058Y241247D01*
X130297Y242486D01*
X130520Y242633D01*
X131028Y242374D01*
Y237159D01*
X130823Y237074D01*
X130433Y236684D01*
X130222Y236174D01*
Y235622D01*
X130433Y235112D01*
X130823Y234722D01*
X131333Y234511D01*
X131885D01*
X132395Y234722D01*
X132785Y235112D01*
X132996Y235622D01*
Y236174D01*
X132831Y236573D01*
X132863Y236737D01*
Y242138D01*
X133464Y242387D01*
X135687Y240164D01*
Y239798D01*
X135898Y239288D01*
X136288Y238898D01*
X136798Y238686D01*
X137350D01*
X137860Y238898D01*
X138250Y239288D01*
X138461Y239798D01*
Y240350D01*
X138250Y240860D01*
X137860Y241250D01*
X137350Y241461D01*
X136984D01*
X134551Y243895D01*
Y244282D01*
X134481Y244634D01*
X134282Y244931D01*
X133294Y245920D01*
X132996Y246119D01*
X132645Y246188D01*
D02*
G37*
G36*
X135032Y250740D02*
X134480D01*
X133970Y250529D01*
X133580Y250139D01*
X133368Y249629D01*
Y249077D01*
X133580Y248567D01*
X133838Y248308D01*
Y247569D01*
X133908Y247217D01*
X134107Y246920D01*
X135635Y245392D01*
X135932Y245193D01*
X136283Y245124D01*
X137681D01*
X138032Y245193D01*
X138330Y245392D01*
X138549Y245611D01*
X143407D01*
X144676Y244342D01*
Y243976D01*
X144887Y243467D01*
X145277Y243076D01*
X145787Y242865D01*
X146339D01*
X146849Y243076D01*
X147239Y243467D01*
X147730Y243564D01*
X147907Y243511D01*
X148163Y243340D01*
X148514Y243270D01*
X149895D01*
X150221Y242943D01*
X150731Y242732D01*
X151283D01*
X151793Y242943D01*
X152183Y243333D01*
X152395Y243843D01*
Y244395D01*
X152183Y244905D01*
X151793Y245295D01*
X151283Y245507D01*
X150731D01*
X150221Y245295D01*
X150031Y245105D01*
X148895D01*
X147411Y246589D01*
X147113Y246788D01*
X146762Y246858D01*
X146718D01*
X145198Y248377D01*
X144900Y248576D01*
X144549Y248646D01*
X138027D01*
X137768Y248905D01*
X137258Y249116D01*
X136706D01*
X136143Y249532D01*
Y249629D01*
X135932Y250139D01*
X135542Y250529D01*
X135032Y250740D01*
D02*
G37*
G36*
X141777Y236273D02*
X141225D01*
X140715Y236062D01*
X140325Y235671D01*
X140113Y235161D01*
Y235067D01*
X139582Y234536D01*
X139511Y234533D01*
X139426Y234595D01*
Y234951D01*
X139215Y235461D01*
X138824Y235852D01*
X138314Y236063D01*
X137762D01*
X137252Y235852D01*
X136862Y235461D01*
X136651Y234951D01*
Y234438D01*
X136644Y234392D01*
X136215Y233884D01*
X136020D01*
X135510Y233672D01*
X135119Y233282D01*
X134908Y232772D01*
Y232220D01*
X135119Y231710D01*
X135510Y231320D01*
X136020Y231109D01*
X136086D01*
X136189Y230954D01*
X138340Y228804D01*
Y218990D01*
X138410Y218639D01*
X138609Y218341D01*
X139597Y217353D01*
X139874Y217168D01*
X139781Y216944D01*
Y216392D01*
X139992Y215882D01*
X140382Y215492D01*
X140892Y215281D01*
X141444D01*
X141954Y215492D01*
X142344Y215882D01*
X142556Y216392D01*
Y216944D01*
X142344Y217454D01*
X141954Y217845D01*
X141920Y217859D01*
X141777Y218428D01*
X142125Y218869D01*
X142344Y218881D01*
X142745Y218842D01*
X142828Y218642D01*
X143218Y218252D01*
X143728Y218041D01*
X144280D01*
X144790Y218252D01*
X145180Y218642D01*
X145391Y219152D01*
Y219704D01*
X145180Y220214D01*
X144790Y220604D01*
X144280Y220816D01*
X143914D01*
X142575Y222155D01*
Y228343D01*
X143130Y228573D01*
X153613Y218090D01*
Y217724D01*
X153824Y217214D01*
X154214Y216824D01*
X154724Y216613D01*
X155276D01*
X155786Y216824D01*
X156176Y217214D01*
X156387Y217724D01*
Y218276D01*
X156176Y218786D01*
X155786Y219176D01*
X155276Y219387D01*
X154910D01*
X143775Y230522D01*
Y230675D01*
X143705Y231026D01*
X143506Y231324D01*
X142548Y232282D01*
Y233281D01*
X142478Y233632D01*
X142418Y233721D01*
Y233841D01*
X142677Y234099D01*
X142888Y234609D01*
Y235161D01*
X142677Y235671D01*
X142287Y236062D01*
X141777Y236273D01*
D02*
G37*
G36*
X126120Y231390D02*
X119982D01*
X119845Y231363D01*
X119706D01*
X119577Y231310D01*
X119441Y231282D01*
X119325Y231205D01*
X119196Y231152D01*
X119097Y231053D01*
X118982Y230976D01*
X118904Y230860D01*
X118806Y230762D01*
X118752Y230633D01*
X118675Y230517D01*
X118648Y230380D01*
X118595Y230252D01*
Y230112D01*
X118567Y229976D01*
X118595Y229839D01*
Y229700D01*
X118648Y229571D01*
X118675Y229434D01*
X118752Y229318D01*
X118806Y229190D01*
X118904Y229091D01*
X118982Y228975D01*
X119097Y228898D01*
X119196Y228799D01*
X119325Y228746D01*
X119441Y228669D01*
X119577Y228642D01*
X119706Y228588D01*
X119845D01*
X119982Y228561D01*
X125534D01*
X130946Y223149D01*
X131061Y223072D01*
X131160Y222974D01*
X131289Y222920D01*
X131404Y222843D01*
X131541Y222816D01*
X131670Y222762D01*
X131809D01*
X131946Y222735D01*
X132082Y222762D01*
X132222D01*
X132351Y222816D01*
X132487Y222843D01*
X132603Y222920D01*
X132732Y222974D01*
X132830Y223072D01*
X132946Y223149D01*
X133024Y223265D01*
X133122Y223364D01*
X133175Y223493D01*
X133253Y223608D01*
X133280Y223745D01*
X133333Y223874D01*
Y224013D01*
X133360Y224150D01*
X133333Y224286D01*
Y224426D01*
X133280Y224554D01*
X133253Y224691D01*
X133175Y224807D01*
X133122Y224936D01*
X133024Y225034D01*
X132946Y225150D01*
X127120Y230976D01*
X126661Y231282D01*
X126120Y231390D01*
D02*
G37*
G36*
X258216Y222387D02*
X257664D01*
X257154Y222176D01*
X256895Y221918D01*
X254634D01*
X254376Y222176D01*
X253866Y222387D01*
X253314D01*
X252804Y222176D01*
X252414Y221786D01*
X252203Y221276D01*
Y220724D01*
X252414Y220214D01*
X252804Y219824D01*
X253314Y219613D01*
X253866D01*
X254376Y219824D01*
X254634Y220082D01*
X256895D01*
X257154Y219824D01*
X257664Y219613D01*
X258216D01*
X258726Y219824D01*
X259116Y220214D01*
X259327Y220724D01*
Y221276D01*
X259116Y221786D01*
X258726Y222176D01*
X258216Y222387D01*
D02*
G37*
G36*
X209739Y219107D02*
X209187D01*
X208677Y218896D01*
X208640Y218859D01*
X207904D01*
X207440Y218766D01*
X207046Y218503D01*
X207046Y218503D01*
X205700Y217157D01*
X205281Y216984D01*
X204891Y216593D01*
X204679Y216083D01*
Y215531D01*
X204891Y215021D01*
X205281Y214631D01*
X205791Y214420D01*
X206343D01*
X206853Y214631D01*
X207243Y215021D01*
X207417Y215441D01*
X208407Y216431D01*
X208950D01*
X209187Y216333D01*
X209739D01*
X210249Y216544D01*
X210639Y216934D01*
X210851Y217444D01*
Y217996D01*
X210639Y218506D01*
X210249Y218896D01*
X209739Y219107D01*
D02*
G37*
G36*
X214687Y215630D02*
X214135D01*
X213625Y215419D01*
X213368Y215162D01*
X213014Y215077D01*
X212639Y215158D01*
X212387Y215410D01*
X211877Y215621D01*
X211325D01*
X210815Y215410D01*
X210425Y215020D01*
X210214Y214510D01*
Y214285D01*
X209305Y213376D01*
X209042Y212983D01*
X208950Y212518D01*
X208950Y212518D01*
Y212041D01*
X208791Y211882D01*
X208579Y211372D01*
Y210820D01*
X208791Y210310D01*
X209102Y209999D01*
X209235Y209647D01*
X209295Y209344D01*
X208797Y208845D01*
X208534Y208452D01*
X208444Y208001D01*
X208404Y207961D01*
X208193Y207451D01*
Y206899D01*
X208404Y206389D01*
X208794Y205998D01*
X209304Y205787D01*
X209856D01*
X210366Y205998D01*
X210756Y206389D01*
X210967Y206899D01*
Y207451D01*
X210929Y207544D01*
X212803Y209418D01*
X212803Y209418D01*
X213066Y209812D01*
X213159Y210276D01*
Y211278D01*
X214771Y212890D01*
X215197Y213067D01*
X215587Y213457D01*
X215798Y213967D01*
Y214519D01*
X215587Y215029D01*
X215197Y215419D01*
X214687Y215630D01*
D02*
G37*
G36*
X235676Y275292D02*
X235540Y275265D01*
X235400D01*
X235272Y275211D01*
X235135Y275184D01*
X235019Y275107D01*
X234891Y275053D01*
X234792Y274955D01*
X234676Y274877D01*
X231402Y271603D01*
X231096Y271145D01*
X230988Y270603D01*
Y242988D01*
X226324Y238324D01*
X226017Y237865D01*
X225909Y237324D01*
Y215500D01*
X225937Y215363D01*
Y215224D01*
X225990Y215095D01*
X226017Y214959D01*
X226095Y214843D01*
X226148Y214714D01*
X226246Y214616D01*
X226324Y214500D01*
X226440Y214422D01*
X226538Y214324D01*
X226667Y214270D01*
X226783Y214193D01*
X226919Y214166D01*
X227048Y214113D01*
X227187D01*
X227324Y214085D01*
X227461Y214113D01*
X227600D01*
X227729Y214166D01*
X227865Y214193D01*
X227981Y214270D01*
X228110Y214324D01*
X228208Y214422D01*
X228324Y214500D01*
X228402Y214616D01*
X228500Y214714D01*
X228554Y214843D01*
X228631Y214959D01*
X228658Y215095D01*
X228711Y215224D01*
Y215363D01*
X228739Y215500D01*
Y236738D01*
X233403Y241402D01*
X233709Y241861D01*
X233817Y242402D01*
Y270017D01*
X236677Y272877D01*
X236754Y272993D01*
X236853Y273091D01*
X236906Y273220D01*
X236983Y273336D01*
X237010Y273472D01*
X237064Y273601D01*
Y273741D01*
X237091Y273877D01*
X237064Y274014D01*
Y274153D01*
X237010Y274282D01*
X236983Y274418D01*
X236906Y274534D01*
X236853Y274663D01*
X236754Y274762D01*
X236677Y274877D01*
X236561Y274955D01*
X236462Y275053D01*
X236333Y275107D01*
X236218Y275184D01*
X236081Y275211D01*
X235952Y275265D01*
X235813D01*
X235676Y275292D01*
D02*
G37*
G36*
X158894Y215813D02*
X158342D01*
X157832Y215601D01*
X157442Y215211D01*
X157231Y214701D01*
Y214149D01*
X157442Y213639D01*
X157701Y213381D01*
Y207210D01*
X157442Y206951D01*
X157231Y206441D01*
Y205889D01*
X157442Y205379D01*
X157832Y204989D01*
X158342Y204778D01*
X158894D01*
X159404Y204989D01*
X159794Y205379D01*
X160005Y205889D01*
Y206441D01*
X159794Y206951D01*
X159536Y207210D01*
Y213381D01*
X159794Y213639D01*
X160005Y214149D01*
Y214701D01*
X159794Y215211D01*
X159404Y215601D01*
X158894Y215813D01*
D02*
G37*
G36*
X251780Y204904D02*
X251032D01*
X250341Y204617D01*
X249812Y204089D01*
X249526Y203398D01*
Y202650D01*
X249812Y201959D01*
X250341Y201431D01*
X251032Y201145D01*
X251780D01*
X252470Y201431D01*
X252999Y201959D01*
X253285Y202650D01*
Y203398D01*
X252999Y204089D01*
X252470Y204617D01*
X251780Y204904D01*
D02*
G37*
G36*
X144000Y208163D02*
X143448D01*
X142938Y207952D01*
X142548Y207561D01*
X142337Y207052D01*
Y206500D01*
X142510Y206081D01*
Y199793D01*
X141911Y199419D01*
X141725Y199496D01*
X141173D01*
X140663Y199285D01*
X140272Y198895D01*
X140061Y198385D01*
Y197833D01*
X140272Y197323D01*
X140531Y197065D01*
Y195221D01*
X140601Y194870D01*
X140800Y194572D01*
X147020Y188351D01*
X147318Y188152D01*
X147669Y188082D01*
X150955D01*
X151214Y187824D01*
X151724Y187613D01*
X152276D01*
X152786Y187824D01*
X153176Y188214D01*
X153387Y188724D01*
Y189276D01*
X153176Y189786D01*
X152786Y190176D01*
X152276Y190387D01*
X151724D01*
X151214Y190176D01*
X150955Y189918D01*
X148049D01*
X147153Y190814D01*
X147269Y191396D01*
X147660Y191786D01*
X147871Y192296D01*
Y192848D01*
X147660Y193358D01*
X147269Y193748D01*
X146850Y193922D01*
X144938Y195834D01*
Y206081D01*
X145112Y206500D01*
Y207052D01*
X144901Y207561D01*
X144510Y207952D01*
X144000Y208163D01*
D02*
G37*
G36*
X158355Y202161D02*
X157803D01*
X157293Y201950D01*
X156903Y201559D01*
X156691Y201050D01*
Y200909D01*
X156177Y200475D01*
X156137Y200474D01*
X155623D01*
X155113Y200262D01*
X154723Y199872D01*
X154512Y199362D01*
Y199321D01*
X153981Y199093D01*
X153952Y199122D01*
X153442Y199333D01*
X152890D01*
X152380Y199122D01*
X151990Y198732D01*
X151779Y198222D01*
Y197670D01*
X151990Y197160D01*
X152199Y196951D01*
X152159Y196672D01*
X152028Y196316D01*
X151603Y196140D01*
X151212Y195749D01*
X151001Y195239D01*
Y194687D01*
X151212Y194177D01*
X151603Y193787D01*
X152113Y193576D01*
X152665D01*
X153174Y193787D01*
X153433Y194046D01*
X154163D01*
X154514Y194115D01*
X154812Y194314D01*
X158728Y198231D01*
X158926Y198528D01*
X158996Y198879D01*
Y199729D01*
X159255Y199988D01*
X159466Y200498D01*
Y201050D01*
X159255Y201559D01*
X158865Y201950D01*
X158355Y202161D01*
D02*
G37*
G36*
X163371Y215629D02*
X162819D01*
X162310Y215418D01*
X161919Y215028D01*
X161708Y214518D01*
Y213966D01*
X161919Y213456D01*
X162185Y213190D01*
Y205415D01*
X161934Y205164D01*
X161723Y204654D01*
Y204102D01*
X161934Y203592D01*
X162237Y203289D01*
X162235Y202738D01*
X162214Y202630D01*
X161824Y202240D01*
X161613Y201730D01*
Y201178D01*
X161824Y200668D01*
X162074Y200418D01*
Y188007D01*
X161807Y187740D01*
X161596Y187230D01*
Y186678D01*
X161807Y186168D01*
X162197Y185778D01*
X162707Y185567D01*
X163259D01*
X163769Y185778D01*
X164159Y186168D01*
X164371Y186678D01*
Y187230D01*
X164159Y187740D01*
X163909Y187990D01*
Y200401D01*
X164176Y200668D01*
X164387Y201178D01*
Y201730D01*
X164176Y202240D01*
X163874Y202543D01*
X163875Y203094D01*
X163896Y203202D01*
X164286Y203592D01*
X164498Y204102D01*
Y204654D01*
X164286Y205164D01*
X164020Y205430D01*
Y213205D01*
X164272Y213456D01*
X164483Y213966D01*
Y214518D01*
X164272Y215028D01*
X163881Y215418D01*
X163371Y215629D01*
D02*
G37*
G36*
X251780Y182148D02*
X251032D01*
X250341Y181861D01*
X249812Y181333D01*
X249526Y180642D01*
Y179894D01*
X249812Y179203D01*
X250341Y178675D01*
X251032Y178389D01*
X251780D01*
X252470Y178675D01*
X252999Y179203D01*
X253285Y179894D01*
Y180642D01*
X252999Y181333D01*
X252470Y181861D01*
X251780Y182148D01*
D02*
G37*
G36*
X191601Y169386D02*
X191049D01*
X190539Y169175D01*
X190148Y168785D01*
X189937Y168275D01*
Y167723D01*
X190085Y167368D01*
X185530Y162813D01*
X185164D01*
X184654Y162602D01*
X184264Y162212D01*
X184053Y161702D01*
Y161150D01*
X184264Y160640D01*
X184654Y160250D01*
X185164Y160038D01*
X185716D01*
X186226Y160250D01*
X186617Y160640D01*
X186828Y161150D01*
Y161515D01*
X191787Y166475D01*
X191985Y166771D01*
X192111Y166823D01*
X192501Y167213D01*
X192712Y167723D01*
Y168275D01*
X192501Y168785D01*
X192111Y169175D01*
X191601Y169386D01*
D02*
G37*
G36*
X206457Y190029D02*
X205905D01*
X205395Y189818D01*
X205005Y189428D01*
X204794Y188918D01*
Y188366D01*
X205005Y187856D01*
X205043Y187818D01*
Y187310D01*
X205043Y187310D01*
X205086Y187090D01*
Y160953D01*
X205086Y160953D01*
X205178Y160488D01*
X205442Y160095D01*
X207072Y158464D01*
Y157831D01*
X205324Y156084D01*
X205061Y155690D01*
X204969Y155226D01*
X204969Y155225D01*
Y149106D01*
X204795Y148687D01*
Y148135D01*
X205007Y147625D01*
X205397Y147235D01*
X205907Y147024D01*
X206459D01*
X206969Y147235D01*
X207359Y147625D01*
X207570Y148135D01*
Y148593D01*
X207695Y148799D01*
X208043Y149113D01*
X208437D01*
X208946Y149324D01*
X209337Y149714D01*
X209548Y150224D01*
Y150776D01*
X209337Y151286D01*
X209178Y151445D01*
Y153985D01*
X210925Y155733D01*
X210925Y155733D01*
X211188Y156126D01*
X211281Y156591D01*
X211281Y156591D01*
Y159705D01*
X211281Y159705D01*
X211188Y160169D01*
X210925Y160563D01*
X210925Y160563D01*
X209295Y162194D01*
Y184037D01*
X209688Y184431D01*
X209952Y184824D01*
X210044Y185289D01*
X210044Y185289D01*
Y185850D01*
X210082Y185887D01*
X210293Y186397D01*
Y186949D01*
X210082Y187459D01*
X209691Y187849D01*
X209181Y188061D01*
X208629D01*
X208120Y187849D01*
X207663Y188242D01*
X207569Y188366D01*
Y188918D01*
X207357Y189428D01*
X206967Y189818D01*
X206457Y190029D01*
D02*
G37*
G36*
X220131Y136126D02*
X219580D01*
X219070Y135915D01*
X218679Y135524D01*
X218468Y135014D01*
Y134642D01*
X218195Y134445D01*
X217944Y134353D01*
X217914Y134347D01*
X217876Y134384D01*
X217748Y134438D01*
X217632Y134515D01*
X217495Y134542D01*
X217367Y134596D01*
X217227D01*
X217091Y134623D01*
X216954Y134596D01*
X216815D01*
X216686Y134542D01*
X216549Y134515D01*
X216433Y134438D01*
X216305Y134384D01*
X216206Y134286D01*
X216090Y134209D01*
X216013Y134093D01*
X215914Y133994D01*
X215861Y133865D01*
X215784Y133750D01*
X215756Y133613D01*
X215703Y133484D01*
Y133345D01*
X215676Y133208D01*
Y131143D01*
X215784Y130602D01*
X216090Y130143D01*
X220654Y125579D01*
X220770Y125502D01*
X220868Y125403D01*
X220997Y125350D01*
X221113Y125273D01*
X221250Y125245D01*
X221378Y125192D01*
X221518D01*
X221654Y125165D01*
X221791Y125192D01*
X221930D01*
X222059Y125245D01*
X222196Y125273D01*
X222311Y125350D01*
X222440Y125403D01*
X222539Y125502D01*
X222655Y125579D01*
X222732Y125695D01*
X222831Y125794D01*
X222884Y125922D01*
X222961Y126038D01*
X222988Y126175D01*
X223042Y126304D01*
Y126443D01*
X223069Y126579D01*
X223042Y126716D01*
Y126855D01*
X222988Y126984D01*
X222961Y127121D01*
X222884Y127237D01*
X222831Y127365D01*
X222732Y127464D01*
X222655Y127580D01*
X218505Y131729D01*
Y133208D01*
X218488Y133295D01*
X218534Y133355D01*
X219070Y133562D01*
X219489Y133389D01*
X221677Y131200D01*
X221850Y130781D01*
X222241Y130391D01*
X222751Y130180D01*
X223303D01*
X223812Y130391D01*
X224203Y130781D01*
X224414Y131291D01*
Y131843D01*
X224203Y132353D01*
X223812Y132743D01*
X223394Y132917D01*
X221205Y135105D01*
X221032Y135524D01*
X220641Y135915D01*
X220131Y136126D01*
D02*
G37*
G36*
X223348Y138136D02*
X222796D01*
X222287Y137925D01*
X221896Y137534D01*
X221685Y137024D01*
Y136472D01*
X221896Y135963D01*
X222287Y135572D01*
X222705Y135399D01*
X224894Y133210D01*
X225067Y132791D01*
X225458Y132401D01*
X225968Y132190D01*
X226519D01*
X227029Y132401D01*
X227420Y132791D01*
X227631Y133301D01*
Y133853D01*
X227420Y134363D01*
X227029Y134754D01*
X226610Y134927D01*
X224422Y137116D01*
X224249Y137534D01*
X223858Y137925D01*
X223348Y138136D01*
D02*
G37*
G36*
X185684Y151103D02*
X185132D01*
X184622Y150891D01*
X184231Y150501D01*
X184020Y149991D01*
Y149702D01*
X183797Y149334D01*
X183477Y149183D01*
X183153D01*
X182643Y148971D01*
X182253Y148581D01*
X182042Y148071D01*
Y147519D01*
X182253Y147009D01*
X182413Y146850D01*
Y122156D01*
X176288Y116032D01*
X160317D01*
X157158Y117545D01*
X156786Y116767D01*
X150171Y119936D01*
X148992Y120501D01*
X149364Y121279D01*
X145797Y122989D01*
X144002Y119244D01*
X147570Y117534D01*
X147942Y118312D01*
X149122Y117747D01*
X155737Y114577D01*
X155364Y113800D01*
X158932Y112090D01*
X159657Y113604D01*
X176791D01*
X176791Y113604D01*
X177255Y113696D01*
X177649Y113959D01*
X183640Y119950D01*
X184194Y119720D01*
Y111245D01*
X181086D01*
Y112108D01*
X177130D01*
Y107955D01*
X181086D01*
Y108818D01*
X189729D01*
Y107955D01*
X193685D01*
Y112108D01*
X189729D01*
Y111245D01*
X186622D01*
Y119720D01*
X187176Y119950D01*
X193166Y113959D01*
X193166Y113959D01*
X193560Y113696D01*
X194025Y113604D01*
X194025Y113604D01*
X211162D01*
X211887Y112090D01*
X215455Y113800D01*
X215082Y114578D01*
X218979Y116445D01*
X222876Y118312D01*
X223249Y117534D01*
X226817Y119244D01*
X225022Y122989D01*
X221455Y121279D01*
X221827Y120501D01*
X217930Y118634D01*
X214033Y116767D01*
X213661Y117545D01*
X210502Y116032D01*
X194528D01*
X188403Y122156D01*
Y146850D01*
X188562Y147009D01*
X188774Y147519D01*
Y148071D01*
X188562Y148581D01*
X188172Y148971D01*
X187662Y149183D01*
X187338D01*
X187019Y149334D01*
X186795Y149702D01*
Y149991D01*
X186584Y150501D01*
X186194Y150891D01*
X185684Y151103D01*
D02*
G37*
G36*
X228017Y117664D02*
X226323Y116852D01*
X227177Y115070D01*
X228871Y115882D01*
X228017Y117664D01*
D02*
G37*
G36*
X142802D02*
X141948Y115881D01*
X143641Y115070D01*
X144495Y116852D01*
X142802Y117664D01*
D02*
G37*
G36*
X225422Y116420D02*
X223728Y115609D01*
X224582Y113826D01*
X226276Y114638D01*
X225422Y116420D01*
D02*
G37*
G36*
X145397D02*
X144543Y114638D01*
X146237Y113826D01*
X147091Y115609D01*
X145397Y116420D01*
D02*
G37*
G36*
X216655Y112220D02*
X214962Y111409D01*
X215816Y109626D01*
X217509Y110438D01*
X216655Y112220D01*
D02*
G37*
G36*
X154164D02*
X153310Y110438D01*
X155003Y109626D01*
X155857Y111409D01*
X154164Y112220D01*
D02*
G37*
G36*
X156759Y110977D02*
X155905Y109194D01*
X157598Y108383D01*
X158452Y110165D01*
X156759Y110977D01*
D02*
G37*
G36*
X214060D02*
X212366Y110165D01*
X213220Y108383D01*
X214914Y109194D01*
X214060Y110977D01*
D02*
G37*
G36*
X194085Y106012D02*
X192207D01*
Y104035D01*
X194085D01*
Y106012D01*
D02*
G37*
G36*
X191207D02*
X189329D01*
Y104035D01*
X191207D01*
Y106012D01*
D02*
G37*
G36*
X181486D02*
X179609D01*
Y104035D01*
X181486D01*
Y106012D01*
D02*
G37*
G36*
X178609D02*
X176731D01*
Y104035D01*
X178609D01*
Y106012D01*
D02*
G37*
%LPD*%
D13*
X131796Y236085D02*
Y236586D01*
X131609Y235898D02*
X131796Y236085D01*
Y236586D02*
X131946Y236737D01*
Y243583D01*
X123658Y241669D02*
X123844Y241856D01*
X124457D02*
X124497Y241896D01*
X123844Y241856D02*
X124457D01*
X124497Y241896D02*
X128409D01*
X129828Y243852D02*
X131247Y245271D01*
X128409Y241896D02*
X129828Y243315D01*
Y243852D01*
X132645Y245271D02*
X133633Y244282D01*
Y243515D02*
Y244282D01*
X131247Y245271D02*
X132645D01*
X133633Y243515D02*
X137074Y240074D01*
X141630Y231902D02*
Y233281D01*
X142858Y230142D02*
Y230675D01*
X141630Y231902D02*
X142858Y230675D01*
X141501Y233410D02*
Y234885D01*
Y233410D02*
X141630Y233281D01*
X142858Y230142D02*
X155000Y218000D01*
X163103Y204385D02*
Y214234D01*
Y204385D02*
X163110Y204378D01*
X163095Y214242D02*
X163103Y214234D01*
X117404Y234006D02*
Y237802D01*
X123186Y243583D01*
X127710D01*
X110725Y227914D02*
Y229087D01*
X112205Y230567D01*
X109055Y226244D02*
X110725Y227914D01*
X107523Y226244D02*
X109055D01*
X105374Y224095D02*
X107523Y226244D01*
X112823Y218343D02*
Y221646D01*
X110374Y224095D02*
X112823Y221646D01*
Y218343D02*
X119037Y212129D01*
Y185714D02*
Y212129D01*
X114969Y181646D02*
X119037Y185714D01*
X117837Y189515D02*
Y211632D01*
X110374Y219095D02*
X117837Y211632D01*
X114969Y186646D02*
X117837Y189515D01*
X103858Y220611D02*
X105374Y219095D01*
Y219095D02*
Y219095D01*
X103858Y220611D02*
Y221473D01*
X103723Y221609D02*
X103858Y221473D01*
X191138Y167124D02*
Y167813D01*
X185440Y161426D02*
X191138Y167124D01*
Y167813D02*
X191325Y167999D01*
X253590Y221000D02*
X257940D01*
X136838Y231603D02*
Y231690D01*
X136295Y232232D02*
X136838Y231690D01*
X136295Y232232D02*
Y232496D01*
X139258Y218990D02*
Y229184D01*
X136838Y231603D02*
X139258Y229184D01*
X140982Y216855D02*
X141168Y216668D01*
X139258Y218990D02*
X140246Y218002D01*
X140612D01*
X140982Y216855D02*
Y217632D01*
X140612Y218002D02*
X140982Y217632D01*
X140129Y231706D02*
Y232395D01*
X141657Y221775D02*
Y230178D01*
X140129Y231706D02*
X141657Y230178D01*
X139943Y232582D02*
X140129Y232395D01*
X140902Y219731D02*
X140945Y219689D01*
X140902Y219731D02*
Y220833D01*
X140457Y221278D02*
X140902Y220833D01*
X140457Y221278D02*
Y229681D01*
X138038Y232100D02*
X140457Y229681D01*
X138038Y232100D02*
Y234676D01*
X148514Y244187D02*
X150939D01*
X151007Y244119D01*
X146762Y245940D02*
X148514Y244187D01*
X146338Y245940D02*
X146762D01*
X136982Y247728D02*
X144549D01*
X146338Y245940D01*
X138169Y246529D02*
X143787D01*
X146063Y244252D01*
X137681Y246041D02*
X138169Y246529D01*
X136283Y246041D02*
X137681D01*
X134756Y247569D02*
X136283Y246041D01*
X134756Y247569D02*
Y249353D01*
X178207Y218064D02*
X180848Y215424D01*
X177518Y218064D02*
X178207D01*
X174945Y220638D02*
X177518Y218064D01*
X174945Y220638D02*
Y221327D01*
X174758Y221513D02*
X174945Y221327D01*
X188547Y225047D02*
X192430Y228930D01*
X188547Y215798D02*
Y225047D01*
X176632Y240271D02*
X182223Y234680D01*
X186679D01*
X154987Y240804D02*
X162686D01*
X163206Y240283D01*
X163470D01*
X141657Y221775D02*
X144004Y219428D01*
X158618Y206165D02*
Y214425D01*
X162983Y186954D02*
X162992Y186963D01*
Y201446D02*
X163000Y201454D01*
X162992Y186963D02*
Y201446D01*
X141448Y195221D02*
Y198109D01*
Y195221D02*
X147669Y189000D01*
X152000D01*
X152389Y194963D02*
X154163D01*
X158079Y198879D01*
Y200774D01*
X155635Y199086D02*
X155899D01*
X153166Y197946D02*
X153353Y198132D01*
X154681D02*
X155635Y199086D01*
X153353Y198132D02*
X154681D01*
X200790Y183089D02*
X202327Y181552D01*
Y179205D02*
Y181552D01*
X167155Y226730D02*
X199590Y194296D01*
Y194296D02*
X200790Y193096D01*
X199590Y194296D02*
Y194296D01*
X200790Y183089D02*
Y193096D01*
X163555Y225239D02*
X197190Y191604D01*
X196421Y181134D02*
Y181204D01*
X197190Y181973D01*
Y191604D01*
X165955Y226233D02*
X198390Y193798D01*
Y193798D02*
Y193798D01*
X200358Y181134D02*
Y181204D01*
X199590Y181973D02*
Y192598D01*
X198390Y193798D02*
X199590Y192598D01*
Y181973D02*
X200358Y181204D01*
X198390Y179205D02*
Y192101D01*
X158755Y223251D02*
X185379Y196627D01*
X184610Y181204D02*
X185379Y181973D01*
X184610Y181134D02*
Y181204D01*
X185379Y181973D02*
Y196627D01*
X189000Y183068D02*
X190516Y181552D01*
Y179205D02*
Y181552D01*
X189000Y183068D02*
Y198097D01*
X162355Y224742D02*
X189000Y198097D01*
X187779Y181973D02*
X188547Y181204D01*
X161155Y224245D02*
X187779Y197621D01*
X188547Y181134D02*
Y181204D01*
X187779Y181973D02*
Y197621D01*
X186579Y179205D02*
Y197124D01*
X166544Y260722D02*
Y260722D01*
Y240972D02*
Y260722D01*
X158755Y223251D02*
Y233182D01*
X166544Y240972D01*
X167745Y240475D02*
Y261219D01*
X159955Y232685D02*
X167745Y240475D01*
X159955Y223748D02*
Y232685D01*
X168945Y239978D02*
Y261717D01*
X161155Y232188D02*
X168945Y239978D01*
X161155Y224245D02*
Y232188D01*
X170144Y239480D02*
Y262744D01*
X162355Y231691D02*
X170144Y239480D01*
X162355Y224742D02*
Y231691D01*
X171344Y238983D02*
Y263767D01*
X163555Y225239D02*
Y231194D01*
X171344Y238983D01*
X164755Y225736D02*
Y230697D01*
X172545Y238486D02*
Y261544D01*
X164755Y230697D02*
X172545Y238486D01*
X173744Y237989D02*
Y260358D01*
X165955Y226233D02*
Y230200D01*
X173744Y237989D01*
X167155Y229703D02*
X174944Y237492D01*
Y259861D01*
X167155Y226730D02*
Y229703D01*
X174944Y259861D02*
X178590Y263507D01*
X179625D02*
X179701Y263583D01*
X178590Y263507D02*
X179625D01*
X176974Y263588D02*
Y264439D01*
X177142Y264606D01*
X173744Y260358D02*
X176974Y263588D01*
X172545Y261544D02*
X174583Y263583D01*
X165372Y261895D02*
X166544Y260722D01*
X163647Y261895D02*
X165372D01*
X161787Y264606D02*
X161820D01*
X162659Y262884D02*
X163647Y261895D01*
X162659Y262884D02*
Y263767D01*
X161820Y264606D02*
X162659Y263767D01*
X164347Y263583D02*
X164422Y263507D01*
X165457D01*
X167745Y261219D01*
X167777Y262884D02*
X168945Y261717D01*
X167777Y262884D02*
Y263735D01*
X166905Y264606D02*
X167777Y263735D01*
X169465Y263424D02*
X170144Y262744D01*
X169465Y263424D02*
Y263583D01*
X172024Y264446D02*
Y264606D01*
X171344Y263767D02*
X172024Y264446D01*
X159955Y223748D02*
X186579Y197124D01*
X164755Y225736D02*
X198390Y192101D01*
D16*
X105374Y224095D02*
D03*
X110374D02*
D03*
X105374Y219095D02*
D03*
X110374D02*
D03*
X105374Y214095D02*
D03*
X110374D02*
D03*
D17*
X212774Y114818D02*
D03*
X224136Y120261D02*
D03*
X215581Y108959D02*
D03*
X226942Y114403D02*
D03*
D18*
X179109Y110031D02*
D03*
X191707D02*
D03*
X179109Y103535D02*
D03*
X191707D02*
D03*
D19*
X146683Y120261D02*
D03*
X158045Y114818D02*
D03*
X143876Y114403D02*
D03*
X155238Y108959D02*
D03*
D27*
X113435Y232412D02*
Y245662D01*
Y232412D02*
X114380Y231468D01*
X113435Y245662D02*
X130232Y262459D01*
X114380Y230035D02*
X134121Y210294D01*
X114380Y230035D02*
Y231468D01*
X130232Y262459D02*
Y266987D01*
X134121Y159718D02*
Y210294D01*
X227324Y215500D02*
Y237324D01*
X232402Y242402D02*
Y270603D01*
X227324Y237324D02*
X232402Y242402D01*
Y270603D02*
X235676Y273877D01*
X217091Y131143D02*
X221654Y126579D01*
X217091Y131143D02*
Y133208D01*
X194073Y225650D02*
X207850Y239427D01*
Y263583D01*
X134121Y159718D02*
X156150Y137689D01*
X119982Y229976D02*
X126120D01*
X131946Y224150D01*
X130224Y266995D02*
X130232Y266987D01*
X139488Y271468D02*
Y279782D01*
Y271468D02*
X140411Y270545D01*
X149173D01*
X128736Y282354D02*
Y282354D01*
X130224Y266995D02*
Y280866D01*
X128736Y282354D02*
X130224Y280866D01*
X207500Y313500D02*
X229307Y291693D01*
Y273286D02*
Y291693D01*
X214786Y270519D02*
X226540D01*
X229307Y273286D01*
X207850Y263583D02*
X214786Y270519D01*
D28*
X206256Y187310D02*
Y188566D01*
X206300Y160953D02*
Y187266D01*
X206256Y187310D02*
X206300Y187266D01*
X206181Y188642D02*
X206256Y188566D01*
X206300Y160953D02*
X208286Y158967D01*
X208830Y185289D02*
Y186598D01*
X208081Y161691D02*
Y184540D01*
X208830Y186598D02*
X208906Y186673D01*
X208081Y184540D02*
X208830Y185289D01*
X211945Y210276D02*
Y211780D01*
X214407Y214243D01*
X214411D01*
X207904Y217645D02*
X209388D01*
X206067Y215807D02*
X207904Y217645D01*
X209388D02*
X209463Y217720D01*
X209655Y207987D02*
X211945Y210276D01*
X209655Y207250D02*
Y207987D01*
X209580Y207175D02*
X209655Y207250D01*
X209967Y211096D02*
Y211202D01*
X210164Y211399D02*
Y212518D01*
X211404Y213759D02*
Y213931D01*
X211601Y214127D02*
Y214234D01*
X209967Y211202D02*
X210164Y211399D01*
Y212518D02*
X211404Y213759D01*
Y213931D02*
X211601Y214127D01*
X207964Y150803D02*
Y154488D01*
X210067Y156591D01*
Y159705D01*
X207964Y150803D02*
X208161Y150607D01*
Y150500D02*
Y150607D01*
X208081Y161691D02*
X210067Y159705D01*
X208286Y157329D02*
Y158967D01*
X206183Y148411D02*
Y155226D01*
X208286Y157329D01*
X223072Y136749D02*
X226243Y133577D01*
X219855Y134738D02*
X223026Y131567D01*
X143724Y195331D02*
Y206776D01*
Y195331D02*
X146484Y192572D01*
X187189Y147491D02*
X187386Y147689D01*
X187189Y121653D02*
Y147491D01*
X187386Y147689D02*
Y147795D01*
X187189Y121653D02*
X194025Y114818D01*
X183429Y147689D02*
X183627Y147491D01*
X176791Y114818D02*
X183627Y121653D01*
Y147491D01*
X183429Y147689D02*
Y147795D01*
X194025Y114818D02*
X212774D01*
X158045D02*
X176791D01*
X185408Y110031D02*
Y149715D01*
X218455Y117540D02*
X223426Y119921D01*
X213484Y115158D02*
X218455Y117540D01*
X149646Y118842D02*
X157335Y115158D01*
X147393Y119921D02*
X149646Y118842D01*
X185408Y110031D02*
X191707D01*
X179109D02*
X185408D01*
X212774Y114818D02*
X213484Y115158D01*
X223426Y119921D02*
X224136Y120261D01*
X146683D02*
X147393Y119921D01*
X157335Y115158D02*
X158045Y114818D01*
D29*
X197614Y263583D02*
X202732D01*
D30*
X109968Y181646D02*
D03*
X114969D02*
D03*
X109968Y186646D02*
D03*
X114969D02*
D03*
X109968Y191646D02*
D03*
X114969D02*
D03*
X109968Y196646D02*
D03*
X114969D02*
D03*
X109968Y201646D02*
D03*
X114969D02*
D03*
D31*
X161135Y305641D02*
D03*
X158185Y298340D02*
D03*
D32*
X166450Y167148D02*
D03*
X198555Y234745D02*
D03*
X132033Y247834D02*
D03*
X135378Y244549D02*
D03*
X132682Y227164D02*
D03*
X137074Y240074D02*
D03*
X155000Y218000D02*
D03*
X163095Y214242D02*
D03*
X163110Y204378D02*
D03*
X130227Y210978D02*
D03*
X123658Y241669D02*
D03*
X141501Y234885D02*
D03*
X112205Y230567D02*
D03*
X103723Y221609D02*
D03*
X103121Y216936D02*
D03*
X185000Y158500D02*
D03*
X261024Y200787D02*
D03*
X254331Y160630D02*
D03*
X247638Y227559D02*
D03*
X240945Y214173D02*
D03*
X247638Y147244D02*
D03*
X240945Y133858D02*
D03*
X234252Y281102D02*
D03*
X227559Y267717D02*
D03*
Y240945D02*
D03*
X234252Y227559D02*
D03*
Y200787D02*
D03*
X227559Y187402D02*
D03*
X234252Y147244D02*
D03*
Y120473D02*
D03*
X214173Y294488D02*
D03*
X220866Y281102D02*
D03*
Y147244D02*
D03*
X214173Y133858D02*
D03*
X200787Y294488D02*
D03*
X207480Y281102D02*
D03*
X200787Y240945D02*
D03*
X207480Y227559D02*
D03*
X200787Y133858D02*
D03*
X207480Y120473D02*
D03*
X200787Y107087D02*
D03*
X187402Y294488D02*
D03*
X194095Y281102D02*
D03*
X187402Y107087D02*
D03*
X174016Y294488D02*
D03*
X180709Y281102D02*
D03*
Y147244D02*
D03*
X174016Y133858D02*
D03*
Y107087D02*
D03*
X167323Y281102D02*
D03*
X160630Y160630D02*
D03*
X167323Y147244D02*
D03*
X160630Y107087D02*
D03*
X147244Y294488D02*
D03*
X153937Y281102D02*
D03*
X147244Y267717D02*
D03*
X153937Y174016D02*
D03*
X147244Y160630D02*
D03*
X153937Y147244D02*
D03*
X147244Y133858D02*
D03*
X153937Y120473D02*
D03*
X140551Y174016D02*
D03*
Y147244D02*
D03*
X133858Y133858D02*
D03*
X140551Y120473D02*
D03*
X120473Y214173D02*
D03*
X127165Y200787D02*
D03*
Y174016D02*
D03*
X120473Y160630D02*
D03*
X127165Y147244D02*
D03*
X120473Y133858D02*
D03*
X113779Y254331D02*
D03*
Y227559D02*
D03*
Y174016D02*
D03*
X107087Y160630D02*
D03*
X113779Y147244D02*
D03*
X191325Y167999D02*
D03*
X185440Y161426D02*
D03*
X117404Y234006D02*
D03*
X254000Y184000D02*
D03*
X243876Y207920D02*
D03*
X251385Y217795D02*
D03*
X234139Y288565D02*
D03*
X227000Y279500D02*
D03*
X235208Y277233D02*
D03*
X230147Y270701D02*
D03*
X262000Y219000D02*
D03*
X257940Y221000D02*
D03*
X253590D02*
D03*
X196957Y224367D02*
D03*
X160294Y203299D02*
D03*
X136500Y187500D02*
D03*
X131500D02*
D03*
X195500Y141500D02*
D03*
X200500Y144500D02*
D03*
X177500Y166000D02*
D03*
X188500Y156500D02*
D03*
X217091Y133208D02*
D03*
X221654Y126579D02*
D03*
X236748Y256242D02*
D03*
Y251911D02*
D03*
X241079Y256242D02*
D03*
Y251911D02*
D03*
X166212Y177961D02*
D03*
X200309Y170649D02*
D03*
X131905Y160717D02*
D03*
X214411Y214243D02*
D03*
X164927Y191124D02*
D03*
X164804Y242796D02*
D03*
X160027Y186926D02*
D03*
X164857Y184724D02*
D03*
X173252Y156755D02*
D03*
X190420Y147178D02*
D03*
X250279Y237534D02*
D03*
X217997Y193296D02*
D03*
X218021Y197934D02*
D03*
X230729Y217397D02*
D03*
X230747Y227560D02*
D03*
X225121Y223629D02*
D03*
X209463Y217720D02*
D03*
X209580Y207175D02*
D03*
X250500Y243000D02*
D03*
X234577Y268447D02*
D03*
X206067Y215807D02*
D03*
X156227Y230140D02*
D03*
X148940Y230827D02*
D03*
X241215Y180799D02*
D03*
X245000Y261000D02*
D03*
X255500Y244500D02*
D03*
X232000Y213500D02*
D03*
X223000Y230000D02*
D03*
X224975Y252104D02*
D03*
X229517Y254475D02*
D03*
X244599Y252454D02*
D03*
X244524Y256613D02*
D03*
X245016Y247974D02*
D03*
X183500Y263000D02*
D03*
X180500Y244000D02*
D03*
X143500Y242500D02*
D03*
X134756Y249353D02*
D03*
X180848Y215424D02*
D03*
X174758Y221513D02*
D03*
X146063Y244252D02*
D03*
X127710Y243583D02*
D03*
X188547Y215798D02*
D03*
X192430Y228930D02*
D03*
X186679Y234680D02*
D03*
X176632Y240271D02*
D03*
X163470Y240283D02*
D03*
X154987Y240804D02*
D03*
X151007Y244119D02*
D03*
X136982Y247728D02*
D03*
X131946Y243583D02*
D03*
X131609Y235898D02*
D03*
X136513Y211031D02*
D03*
X139943Y232582D02*
D03*
X138038Y234676D02*
D03*
X136295Y232496D02*
D03*
X141168Y216668D02*
D03*
X144004Y219428D02*
D03*
X140945Y219689D02*
D03*
X131946Y224150D02*
D03*
X119982Y229976D02*
D03*
X241545Y192633D02*
D03*
X233359Y189806D02*
D03*
X232518Y181186D02*
D03*
X237440Y174059D02*
D03*
X236090Y165504D02*
D03*
X227550Y164060D02*
D03*
X218889D02*
D03*
X210227D02*
D03*
X201566D02*
D03*
X192910Y164362D02*
D03*
X186785Y170487D02*
D03*
X183014Y165897D02*
D03*
X189139Y159773D02*
D03*
X197646Y158148D02*
D03*
X206308D02*
D03*
X214969D02*
D03*
X223631D02*
D03*
X232292D02*
D03*
X240328Y161380D02*
D03*
X243352Y169497D02*
D03*
X158618Y214425D02*
D03*
Y206165D02*
D03*
X209323Y269120D02*
D03*
X182000Y270000D02*
D03*
X148500Y242500D02*
D03*
X150587Y251075D02*
D03*
X149173Y270545D02*
D03*
X181515Y179056D02*
D03*
X162983Y186954D02*
D03*
X163000Y201454D02*
D03*
X203500Y302000D02*
D03*
X207500D02*
D03*
X223072Y136749D02*
D03*
X208161Y150500D02*
D03*
X206181Y188642D02*
D03*
X219855Y134738D02*
D03*
X206183Y148411D02*
D03*
X208906Y186673D02*
D03*
X223026Y131567D02*
D03*
X226243Y133577D02*
D03*
X156150Y137689D02*
D03*
X227324Y215500D02*
D03*
X235676Y273877D02*
D03*
X264591Y225000D02*
D03*
X261315Y238394D02*
D03*
X139488Y279782D02*
D03*
X141448Y198109D02*
D03*
X152000Y189000D02*
D03*
X227136Y206328D02*
D03*
X207500Y313500D02*
D03*
X194073Y225650D02*
D03*
X143724Y206776D02*
D03*
X146484Y192572D02*
D03*
X130232Y266987D02*
D03*
X128736Y282354D02*
D03*
X187386Y147795D02*
D03*
X183429D02*
D03*
X185408Y149715D02*
D03*
X152389Y194963D02*
D03*
X158079Y200774D02*
D03*
X234245Y167663D02*
D03*
X235004Y177244D02*
D03*
X215713Y176845D02*
D03*
X225358Y169153D02*
D03*
X227650Y179409D02*
D03*
X223066D02*
D03*
X215713Y167362D02*
D03*
X211601Y214234D02*
D03*
X209967Y211096D02*
D03*
X153166Y197946D02*
D03*
X155899Y199086D02*
D03*
X219102Y186208D02*
D03*
X210059Y183721D02*
D03*
X186579Y179205D02*
D03*
X184610Y181134D02*
D03*
X190516Y179205D02*
D03*
X188547Y181134D02*
D03*
X198390Y179205D02*
D03*
X196421Y181134D02*
D03*
X200358D02*
D03*
X202327Y179205D02*
D03*
X164347Y263583D02*
D03*
X161787Y264606D02*
D03*
X169465Y263583D02*
D03*
X166905Y264606D02*
D03*
X174583Y263583D02*
D03*
X172024Y264606D02*
D03*
X177142D02*
D03*
X179701Y263583D02*
D03*
X207850D02*
D03*
X197614D02*
D03*
X202732D02*
D03*
X172201Y224071D02*
D03*
X182043D02*
D03*
X185402Y229004D02*
D03*
X168842D02*
D03*
X177122D02*
D03*
M02*
