G04*
G04 #@! TF.GenerationSoftware,Altium Limited,Altium Designer,22.7.1 (60)*
G04*
G04 Layer_Color=32896*
%FSLAX25Y25*%
%MOIN*%
G70*
G04*
G04 #@! TF.SameCoordinates,BCCB9F90-4AA1-44C7-A5C0-69E822051F84*
G04*
G04*
G04 #@! TF.FilePolarity,Positive*
G04*
G01*
G75*
%ADD10C,0.01000*%
%ADD12C,0.02362*%
%ADD13C,0.00600*%
%ADD103C,0.00787*%
%ADD104C,0.00984*%
%ADD105C,0.00787*%
%ADD106C,0.01200*%
%ADD107C,0.00394*%
G36*
X152889Y189828D02*
X152929Y189730D01*
X153541Y186540D01*
X153537Y186540D01*
X153578Y186442D01*
X153644Y186414D01*
X156315Y185308D01*
X156380Y185281D01*
X156479Y185321D01*
X159167Y187144D01*
X159165Y187147D01*
X159263Y187188D01*
X159394Y187134D01*
X161682Y184825D01*
X161692Y184835D01*
X161747Y184704D01*
X161706Y184606D01*
X159883Y181918D01*
X159880Y181920D01*
X159840Y181822D01*
X159867Y181756D01*
X160973Y179085D01*
X160973D01*
X161000Y179019D01*
X161099Y178979D01*
X164288Y178367D01*
X164289Y178370D01*
X164387Y178330D01*
X164441Y178199D01*
X164427Y174948D01*
X164441D01*
X164387Y174817D01*
X164289Y174776D01*
X161099Y174165D01*
X161099Y174168D01*
X161000Y174127D01*
X160973Y174062D01*
X159867Y171391D01*
X159840Y171325D01*
X159880Y171227D01*
X161703Y168539D01*
X161706Y168541D01*
X161747Y168443D01*
X161692Y168312D01*
X159384Y166023D01*
X159394Y166013D01*
X159263Y165959D01*
X159165Y166000D01*
X156477Y167822D01*
X156479Y167825D01*
X156380Y167866D01*
X156315Y167839D01*
X155092Y167332D01*
X155026Y167305D01*
X154895Y167359D01*
X154867Y167426D01*
X152615Y172941D01*
Y172941D01*
X152588Y173006D01*
X152643Y173137D01*
X152702Y173162D01*
X152704Y173159D01*
X152843Y173216D01*
X153347Y173525D01*
X153796Y173909D01*
X154180Y174359D01*
X154489Y174863D01*
X154715Y175409D01*
X154853Y175984D01*
X154900Y176573D01*
X154853Y177163D01*
X154715Y177738D01*
X154489Y178284D01*
X154180Y178788D01*
X153796Y179237D01*
X153347Y179621D01*
X152843Y179930D01*
X152296Y180157D01*
X151722Y180295D01*
X151132Y180341D01*
X150543Y180295D01*
X149968Y180157D01*
X149422Y179930D01*
X148918Y179621D01*
X148468Y179237D01*
X148084Y178788D01*
X147775Y178284D01*
X147549Y177738D01*
X147411Y177163D01*
X147365Y176573D01*
X147411Y175984D01*
X147549Y175409D01*
X147775Y174863D01*
X148084Y174359D01*
X148468Y173909D01*
X148918Y173525D01*
X149422Y173216D01*
X149561Y173159D01*
X149562Y173162D01*
X149621Y173137D01*
X149676Y173006D01*
X149649Y172941D01*
X147397Y167426D01*
X147370Y167359D01*
X147238Y167305D01*
X147173Y167332D01*
X145949Y167839D01*
X145884Y167866D01*
X145786Y167825D01*
X143098Y166003D01*
X143100Y166000D01*
X143002Y165959D01*
X142870Y166013D01*
X140582Y168322D01*
X140572Y168312D01*
X140518Y168443D01*
X140558Y168541D01*
X142381Y171229D01*
X142384Y171227D01*
X142425Y171325D01*
X142397Y171391D01*
X141291Y174062D01*
X141264Y174127D01*
X141166Y174168D01*
X137976Y174780D01*
X137976Y174776D01*
X137878Y174817D01*
X137823Y174948D01*
X137837Y178199D01*
X137823D01*
X137878Y178330D01*
X137976Y178370D01*
X141165Y178982D01*
X141166Y178979D01*
X141264Y179019D01*
X141291Y179085D01*
X142397Y181756D01*
X142425Y181822D01*
X142384Y181920D01*
X140561Y184608D01*
X140558Y184606D01*
X140518Y184704D01*
X140572Y184835D01*
X142880Y187124D01*
X142870Y187134D01*
X143002Y187188D01*
X143100Y187147D01*
X145788Y185325D01*
X145786Y185321D01*
X145884Y185281D01*
X145949Y185308D01*
X148620Y186414D01*
X148686Y186442D01*
X148727Y186540D01*
X149339Y189729D01*
X149335Y189730D01*
X149376Y189828D01*
X149507Y189883D01*
X152757Y189868D01*
Y189883D01*
X152889Y189828D01*
D02*
G37*
G36*
X138774Y163045D02*
X138926Y162982D01*
X138927Y162986D01*
X138967Y162974D01*
X139279Y162807D01*
X139452Y162665D01*
X139453Y162666D01*
X139528Y162608D01*
X139672Y162420D01*
X139673Y162421D01*
X139724Y162355D01*
X139827Y162104D01*
X139827Y162104D01*
X139909Y161832D01*
X139920Y161720D01*
X139925Y161721D01*
X139959Y161282D01*
X139958Y161267D01*
X139958Y161267D01*
X139959Y161251D01*
X139925Y160813D01*
X139920Y160814D01*
X139909Y160702D01*
X139827Y160430D01*
X139827Y160430D01*
X139725Y160184D01*
X139673Y160115D01*
X139672Y160116D01*
X139531Y159932D01*
X139453Y159872D01*
X139452Y159873D01*
X139286Y159736D01*
X138972Y159569D01*
X138927Y159555D01*
X138926Y159558D01*
X138778Y159497D01*
X138347Y159440D01*
X138339Y159441D01*
X138339Y159441D01*
X138331Y159440D01*
X137954Y159490D01*
X137955Y159491D01*
X137912Y159496D01*
X137612Y159621D01*
X137615Y159627D01*
X137444Y159718D01*
X137146Y159963D01*
X137061Y160066D01*
X137589Y160540D01*
X137672Y160432D01*
X137888Y160266D01*
X137916Y160254D01*
X137917Y160256D01*
X138085Y160187D01*
X138304Y160158D01*
X138311Y160159D01*
X138311Y160159D01*
X138334Y160156D01*
X138618Y160193D01*
X138716Y160233D01*
X138719Y160224D01*
X138736Y160227D01*
X138973Y160385D01*
X139008Y160438D01*
X139005Y160441D01*
X139092Y160554D01*
X139183Y160775D01*
X139184Y160783D01*
X139179Y160784D01*
X139210Y160885D01*
X139244Y161238D01*
X139242Y161267D01*
X139242Y161267D01*
X139244Y161296D01*
X139209Y161651D01*
X139179Y161751D01*
X139184Y161752D01*
X139183Y161762D01*
X139091Y161984D01*
X139005Y162097D01*
X139008Y162099D01*
X138971Y162153D01*
X138735Y162311D01*
X138720Y162314D01*
X138716Y162304D01*
X138617Y162345D01*
X138334Y162383D01*
X138311Y162380D01*
X138311Y162380D01*
X138305Y162380D01*
X138085Y162351D01*
X137919Y162283D01*
X137918Y162285D01*
X137886Y162271D01*
X137666Y162103D01*
X137589Y162002D01*
X137062Y162472D01*
X137061Y162472D01*
X137147Y162576D01*
X137449Y162824D01*
X137615Y162913D01*
X137612Y162920D01*
X137916Y163046D01*
X137955Y163051D01*
X137954Y163052D01*
X138331Y163101D01*
X138339Y163100D01*
X138339Y163100D01*
X138347Y163101D01*
X138774Y163045D01*
D02*
G37*
G36*
X156481Y163055D02*
X156656Y162982D01*
X156657Y162983D01*
X156749Y162944D01*
X156972Y162773D01*
X157054Y162667D01*
X157067Y162667D01*
Y163046D01*
X157781D01*
Y159496D01*
X157067D01*
Y161610D01*
X157073Y161610D01*
X157075Y161626D01*
X157043Y161873D01*
X157019Y161931D01*
X157023Y161932D01*
X157015Y161970D01*
X156875Y162180D01*
X156875Y162179D01*
X156871Y162185D01*
X156652Y162332D01*
X156644Y162333D01*
X156640Y162323D01*
X156565Y162354D01*
X156369Y162380D01*
X156360Y162378D01*
X156360Y162386D01*
X156351Y162387D01*
X156081Y162334D01*
X156081Y162334D01*
X156078Y162334D01*
X155857Y162186D01*
X155852Y162179D01*
X155852Y162180D01*
X155712Y161970D01*
X155704Y161932D01*
X155708Y161931D01*
X155685Y161873D01*
X155652Y161626D01*
X155654Y161610D01*
X155660Y159496D01*
X154946D01*
Y161856D01*
X154934Y161856D01*
X154933Y161864D01*
X154969Y162139D01*
X154969Y162139D01*
X154983Y162242D01*
X155043Y162386D01*
X155092Y162505D01*
X155249Y162710D01*
X155331Y162773D01*
X155330Y162774D01*
X155534Y162930D01*
X155723Y163008D01*
X155723Y163009D01*
X155844Y163059D01*
X156130Y163096D01*
X156130Y163095D01*
X156152Y163098D01*
X156481Y163055D01*
D02*
G37*
G36*
X140973D02*
X141148Y162982D01*
X141148Y162983D01*
X141241Y162944D01*
X141464Y162773D01*
X141546Y162667D01*
X141559Y162667D01*
Y163046D01*
X142273D01*
Y159496D01*
X141559D01*
Y161629D01*
X141565Y161629D01*
X141567Y161651D01*
X141534Y161900D01*
X141507Y161967D01*
X141511Y161969D01*
X141506Y161994D01*
X141387Y162172D01*
X141347Y162199D01*
X141348Y162201D01*
X141154Y162331D01*
X140868Y162387D01*
X140868Y162387D01*
X140868Y162386D01*
X140627Y162338D01*
X140630Y162329D01*
X140494Y162273D01*
X140395Y162197D01*
X139880Y162813D01*
X139880Y162813D01*
X140039Y162936D01*
X140241Y163019D01*
X140241Y163019D01*
X140337Y163059D01*
X140621Y163096D01*
X140622Y163096D01*
X140621Y163095D01*
X140644Y163098D01*
X140973Y163055D01*
D02*
G37*
G36*
X167184Y163061D02*
X167197Y163058D01*
X167195Y163053D01*
X167258Y163045D01*
X167496Y162946D01*
X167493Y162941D01*
X167635Y162865D01*
X167725Y162791D01*
X167724Y162790D01*
X167869Y162678D01*
X167902Y162636D01*
X167902Y162636D01*
X168085Y162397D01*
X168197Y162127D01*
X168192Y162126D01*
X168240Y161968D01*
X168260Y161773D01*
X168262Y161774D01*
X168292Y161308D01*
X168290Y161275D01*
X168282Y161275D01*
X168290Y161275D01*
X168290Y161275D01*
X168290D01*
X168293Y161241D01*
X168262Y160768D01*
X168260Y160768D01*
X168240Y160569D01*
X168192Y160412D01*
X168197Y160411D01*
X168085Y160141D01*
X167902Y159902D01*
X167901Y159903D01*
X167862Y159853D01*
X167724Y159747D01*
X167725Y159746D01*
X167641Y159677D01*
X167493Y159598D01*
X167496Y159593D01*
X167264Y159497D01*
X167195Y159488D01*
X167197Y159482D01*
X167192Y159481D01*
X166835Y159446D01*
X166818Y159447D01*
X166818Y159448D01*
X166801Y159446D01*
X166452Y159480D01*
X166443Y159483D01*
X166444Y159488D01*
X166378Y159497D01*
X166145Y159593D01*
X166147Y159598D01*
X165992Y159681D01*
X165914Y159745D01*
X165915Y159747D01*
X165771Y159858D01*
X165736Y159903D01*
X165735Y159902D01*
X165553Y160140D01*
X165441Y160411D01*
X165445Y160412D01*
X165399Y160566D01*
X165379Y160768D01*
X165377Y160768D01*
X165346Y161241D01*
X165348Y161275D01*
X165348Y161275D01*
X165346Y161308D01*
X165377Y161774D01*
X165379Y161773D01*
X165398Y161971D01*
X165445Y162126D01*
X165441Y162127D01*
X165553Y162399D01*
X165735Y162636D01*
X165735Y162636D01*
X165763Y162673D01*
X165915Y162790D01*
X165914Y162792D01*
X165998Y162861D01*
X166147Y162941D01*
X166144Y162946D01*
X166384Y163045D01*
X166444Y163053D01*
X166444Y163057D01*
X166459Y163062D01*
X166801Y163096D01*
X166818Y163094D01*
X166818Y163094D01*
X166835Y163096D01*
X167184Y163061D01*
D02*
G37*
G36*
X148396D02*
X148408Y163058D01*
X148407Y163053D01*
X148470Y163045D01*
X148708Y162946D01*
X148705Y162941D01*
X148847Y162865D01*
X148936Y162791D01*
X148935Y162790D01*
X149081Y162678D01*
X149113Y162636D01*
X149113Y162636D01*
X149297Y162397D01*
X149408Y162127D01*
X149404Y162126D01*
X149452Y161968D01*
X149471Y161773D01*
X149474Y161774D01*
X149504Y161307D01*
X149502Y161275D01*
X149494Y161275D01*
X149502Y161275D01*
X149502Y161275D01*
X149502D01*
X149504Y161241D01*
X149473Y160768D01*
X149471Y160768D01*
X149452Y160569D01*
X149404Y160412D01*
X149408Y160411D01*
X149297Y160141D01*
X149113Y159902D01*
X149112Y159903D01*
X149074Y159853D01*
X148935Y159747D01*
X148936Y159746D01*
X148854Y159678D01*
X148705Y159598D01*
X148708Y159593D01*
X148476Y159497D01*
X148407Y159488D01*
X148408Y159482D01*
X148403Y159481D01*
X148047Y159446D01*
X148029Y159447D01*
X148029Y159448D01*
X148013Y159446D01*
X147663Y159480D01*
X147655Y159483D01*
X147656Y159488D01*
X147589Y159497D01*
X147356Y159593D01*
X147359Y159598D01*
X147204Y159681D01*
X147126Y159745D01*
X147127Y159747D01*
X146982Y159858D01*
X146948Y159903D01*
X146947Y159902D01*
X146765Y160140D01*
X146653Y160411D01*
X146657Y160412D01*
X146610Y160566D01*
X146590Y160768D01*
X146589Y160768D01*
X146558Y161241D01*
X146560Y161275D01*
X146560Y161275D01*
X146558Y161308D01*
X146589Y161774D01*
X146591Y161773D01*
X146610Y161971D01*
X146657Y162126D01*
X146653Y162127D01*
X146765Y162399D01*
X146947Y162636D01*
X146947Y162636D01*
X146975Y162673D01*
X147127Y162790D01*
X147125Y162792D01*
X147210Y162861D01*
X147359Y162941D01*
X147356Y162946D01*
X147595Y163045D01*
X147656Y163053D01*
X147655Y163057D01*
X147671Y163062D01*
X148013Y163096D01*
X148029Y163094D01*
X148029Y163094D01*
X148047Y163096D01*
X148396Y163061D01*
D02*
G37*
G36*
X163069Y163097D02*
X163069Y163096D01*
X163082Y163098D01*
X163398Y163056D01*
X163572Y162984D01*
X163572Y162985D01*
X163678Y162941D01*
X163939Y162740D01*
X163989Y162675D01*
X163987Y163046D01*
X164701D01*
Y153845D01*
X163987D01*
Y155959D01*
X163993Y155959D01*
X163995Y155975D01*
X163963Y156223D01*
X163939Y156280D01*
X163943Y156281D01*
X163935Y156319D01*
X163795Y156529D01*
X163795Y156529D01*
X163791Y156535D01*
X163572Y156681D01*
X163564Y156683D01*
X163560Y156672D01*
X163485Y156703D01*
X163289Y156729D01*
X163279Y156728D01*
X163280Y156735D01*
X163271Y156737D01*
X163001Y156683D01*
X163001Y156684D01*
X162998Y156683D01*
X162777Y156535D01*
X162772Y156529D01*
X162772Y156529D01*
X162632Y156319D01*
X162624Y156281D01*
X162628Y156280D01*
X162605Y156223D01*
X162572Y155975D01*
X162574Y155959D01*
X162580Y153845D01*
X161866D01*
Y156205D01*
X161854Y156205D01*
X161853Y156213D01*
X161889Y156489D01*
X161889Y156489D01*
X161903Y156591D01*
X161962Y156736D01*
X162012Y156854D01*
X162169Y157060D01*
X162251Y157122D01*
X162250Y157123D01*
X162454Y157280D01*
X162643Y157358D01*
X162643Y157358D01*
X162764Y157408D01*
X163050Y157446D01*
X163050Y157445D01*
X163072Y157448D01*
X163401Y157404D01*
X163576Y157332D01*
X163577Y157332D01*
X163669Y157294D01*
X163892Y157123D01*
X163974Y157016D01*
X163987Y157016D01*
X163987Y159862D01*
X163738Y159658D01*
X163568Y159567D01*
X163569Y159565D01*
X163370Y159482D01*
X163087Y159445D01*
X163069Y159448D01*
X163069Y159444D01*
X163060Y159443D01*
X162766Y159482D01*
X162766Y159483D01*
X162723Y159488D01*
X162506Y159578D01*
X162506Y159578D01*
X162468Y159593D01*
X162215Y159787D01*
X162119Y159913D01*
Y159913D01*
X162033Y160024D01*
X161927Y160281D01*
X161917Y160357D01*
X161910Y160356D01*
X161875Y160713D01*
X161879Y160713D01*
X161854Y161223D01*
X161856Y161267D01*
X161856Y161267D01*
X161854Y161311D01*
X161879Y161824D01*
X161875Y161824D01*
X161910Y162181D01*
X161917Y162180D01*
X161927Y162254D01*
X162035Y162517D01*
X162119Y162626D01*
X162119Y162626D01*
X162212Y162747D01*
X162477Y162950D01*
X162505Y162962D01*
X162506Y162961D01*
X162729Y163054D01*
X162766Y163059D01*
X162766Y163060D01*
X163060Y163099D01*
X163069Y163097D01*
D02*
G37*
G36*
X151413Y163099D02*
X151413Y163094D01*
X151432Y163096D01*
X151791Y163061D01*
X151932Y163018D01*
X151934Y163026D01*
X152242Y162898D01*
X152357Y162810D01*
X152471Y162722D01*
X152612Y162539D01*
X152642Y162467D01*
X152642Y162467D01*
X152708Y162307D01*
X152746Y162016D01*
X152743Y161992D01*
X152743Y161992D01*
X152746Y161973D01*
X152709Y161693D01*
X152664Y161584D01*
X152664Y161585D01*
X152620Y161479D01*
X152489Y161309D01*
X152447Y161276D01*
X152447Y161275D01*
X152271Y161140D01*
X152118Y161076D01*
X152118Y161076D01*
X151982Y161020D01*
X151714Y160985D01*
X151085Y160929D01*
X151085Y160930D01*
X150924Y160909D01*
X150893Y160896D01*
X150894Y160895D01*
X150852Y160886D01*
X150758Y160824D01*
X150758Y160823D01*
X150730Y160805D01*
X150674Y160720D01*
X150672Y160721D01*
X150669Y160717D01*
X150643Y160587D01*
X150645Y160581D01*
X150644Y160581D01*
X150642Y160572D01*
X150672Y160421D01*
X150699Y160381D01*
X150699Y160382D01*
X150753Y160301D01*
X150848Y160238D01*
X150846Y160234D01*
X151036Y160155D01*
X151073Y160150D01*
X151072Y160149D01*
X151339Y160114D01*
X151351Y160115D01*
X151351Y160112D01*
X151365Y160110D01*
X151781Y160165D01*
X151957Y160238D01*
X151957Y160238D01*
X152150Y160318D01*
X152480Y160571D01*
X152969Y160087D01*
X152974Y160082D01*
X152658Y159822D01*
X152247Y159603D01*
X152245Y159602D01*
X152244Y159605D01*
X151853Y159486D01*
X151421Y159444D01*
X151407Y159445D01*
X151407Y159446D01*
X151388Y159444D01*
X150964Y159486D01*
X150838Y159524D01*
X150835Y159512D01*
X150833Y159512D01*
X150438Y159676D01*
X150361Y159735D01*
X150362Y159736D01*
X150198Y159861D01*
X150047Y160058D01*
X150038Y160080D01*
X150040Y160081D01*
X149961Y160272D01*
X149927Y160527D01*
X149930Y160546D01*
X149926Y160546D01*
X149925Y160557D01*
X149968Y160880D01*
X149992Y160938D01*
X149993Y160938D01*
X150078Y161143D01*
X150175Y161269D01*
X150175Y161269D01*
X150227Y161337D01*
X150393Y161465D01*
X150492Y161506D01*
X150492Y161506D01*
X150647Y161570D01*
X150708Y161578D01*
X150708Y161580D01*
X150733Y161588D01*
X150965Y161611D01*
X151553Y161651D01*
X151553Y161648D01*
X151757Y161675D01*
X151782Y161685D01*
X151781Y161689D01*
X151822Y161698D01*
X151926Y161767D01*
X151927Y161766D01*
X151932Y161769D01*
X152001Y161872D01*
X152000Y161872D01*
X152007Y161882D01*
X152027Y161986D01*
X152028Y161986D01*
X152030Y161995D01*
X151999Y162150D01*
X151912Y162282D01*
X151891Y162295D01*
X151890Y162295D01*
X151779Y162369D01*
X151703Y162384D01*
X151704Y162389D01*
X151435Y162425D01*
X151413Y162422D01*
X151413Y162423D01*
X151391Y162426D01*
X151041Y162380D01*
X150900Y162322D01*
X150896Y162332D01*
X150895Y162332D01*
X150481Y162110D01*
X150458Y162091D01*
X150021Y162604D01*
X150021Y162605D01*
X150197Y162749D01*
X150571Y162949D01*
X150614Y162962D01*
X150615Y162961D01*
X150911Y163050D01*
X150981Y163057D01*
X150981Y163059D01*
X151398Y163100D01*
X151413Y163099D01*
D02*
G37*
G36*
X159866Y163098D02*
X159866Y163099D01*
X160217Y163052D01*
X160372Y162988D01*
X160376Y162996D01*
X160377Y162996D01*
X160690Y162828D01*
X160857Y162691D01*
X160858Y162692D01*
X160927Y162638D01*
X161068Y162455D01*
X161070Y162456D01*
X161101Y162415D01*
X161217Y162136D01*
X161212Y162134D01*
X161287Y161889D01*
X161302Y161736D01*
X161305Y161736D01*
X161342Y161275D01*
X161340Y161257D01*
X161340Y161257D01*
X161342Y161236D01*
X161304Y160755D01*
X161300Y160756D01*
X161286Y160619D01*
X161204Y160347D01*
X161205Y160346D01*
X161110Y160118D01*
X161043Y160031D01*
X161042Y160031D01*
X160947Y159906D01*
X160818Y159808D01*
X160821Y159803D01*
X160784Y159773D01*
X160423Y159580D01*
X160296Y159542D01*
X160296Y159542D01*
X160088Y159479D01*
X159758Y159447D01*
X159758Y159446D01*
X159753Y159446D01*
X159390Y159481D01*
X159066Y159580D01*
X159069Y159586D01*
X158884Y159662D01*
X158755Y159761D01*
X158754Y159760D01*
X158564Y159916D01*
X158474Y160026D01*
X158991Y160467D01*
X158986Y160462D01*
X159001Y160443D01*
X159247Y160254D01*
X159355Y160210D01*
X159355Y160210D01*
X159499Y160151D01*
X159765Y160116D01*
X159771Y160116D01*
X159771Y160117D01*
X159783Y160116D01*
X160041Y160150D01*
X160108Y160178D01*
X160108Y160178D01*
X160240Y160233D01*
X160381Y160341D01*
X160385Y160337D01*
X160405Y160351D01*
X160555Y160575D01*
X160563Y160615D01*
X160559Y160617D01*
X160588Y160685D01*
X160626Y160979D01*
X160623Y161001D01*
X158405Y161001D01*
Y161589D01*
X158394Y161588D01*
X158391Y161615D01*
X158448Y162044D01*
X158514Y162206D01*
X158515Y162206D01*
X158587Y162379D01*
X158795Y162651D01*
X158840Y162685D01*
X158838Y162687D01*
X159120Y162904D01*
X159318Y162986D01*
X159318Y162986D01*
X159471Y163049D01*
X159855Y163100D01*
X159866Y163098D01*
D02*
G37*
G36*
X135388D02*
X135388Y163099D01*
X135739Y163052D01*
X135894Y162988D01*
X135898Y162996D01*
X135899Y162996D01*
X136212Y162828D01*
X136379Y162691D01*
X136380Y162692D01*
X136449Y162638D01*
X136590Y162455D01*
X136591Y162456D01*
X136623Y162415D01*
X136739Y162136D01*
X136734Y162134D01*
X136809Y161889D01*
X136824Y161736D01*
X136827Y161736D01*
X136864Y161276D01*
X136862Y161257D01*
X136862Y161257D01*
X136864Y161236D01*
X136826Y160755D01*
X136821Y160756D01*
X136808Y160619D01*
X136725Y160347D01*
X136727Y160346D01*
X136632Y160118D01*
X136565Y160031D01*
X136565Y160031D01*
X136469Y159906D01*
X136340Y159808D01*
X136343Y159803D01*
X136306Y159773D01*
X135945Y159580D01*
X135819Y159542D01*
X135818Y159542D01*
X135610Y159479D01*
X135280Y159447D01*
X135280Y159446D01*
X135275Y159446D01*
X134912Y159481D01*
X134588Y159580D01*
X134590Y159586D01*
X134406Y159662D01*
X134277Y159761D01*
X134276Y159760D01*
X134086Y159916D01*
X133996Y160026D01*
X134513Y160467D01*
X134508Y160462D01*
X134523Y160443D01*
X134769Y160254D01*
X134877Y160210D01*
X134877Y160210D01*
X135020Y160151D01*
X135287Y160116D01*
X135293Y160116D01*
X135293Y160117D01*
X135305Y160116D01*
X135563Y160150D01*
X135630Y160178D01*
X135630Y160178D01*
X135762Y160233D01*
X135903Y160341D01*
X135907Y160337D01*
X135927Y160351D01*
X136077Y160575D01*
X136085Y160615D01*
X136081Y160617D01*
X136110Y160685D01*
X136148Y160979D01*
X136145Y161001D01*
X133927Y161001D01*
Y161589D01*
X133916Y161588D01*
X133913Y161615D01*
X133970Y162044D01*
X134037Y162206D01*
X134037Y162206D01*
X134109Y162379D01*
X134317Y162651D01*
X134362Y162685D01*
X134360Y162687D01*
X134642Y162904D01*
X134840Y162986D01*
X134840Y162986D01*
X134993Y163049D01*
X135377Y163100D01*
X135388Y163098D01*
D02*
G37*
G36*
X145918Y160686D02*
X145931Y160686D01*
X145932Y160677D01*
X145896Y160401D01*
X145896Y160401D01*
X145882Y160297D01*
X145822Y160153D01*
Y160153D01*
X145773Y160034D01*
X145616Y159830D01*
X145534Y159767D01*
X145535Y159766D01*
X145335Y159613D01*
X145141Y159533D01*
X145141Y159533D01*
X145023Y159484D01*
X144728Y159445D01*
X144728Y159447D01*
X144706Y159444D01*
X144381Y159486D01*
X144207Y159559D01*
X144207Y159558D01*
X144115Y159596D01*
X143893Y159767D01*
X143812Y159871D01*
X143798Y159871D01*
Y159496D01*
X143084D01*
Y163046D01*
X143798D01*
Y160929D01*
X143791Y160929D01*
X143789Y160912D01*
X143822Y160662D01*
X143845Y160606D01*
X143842Y160605D01*
X143850Y160566D01*
X143989Y160357D01*
X143989Y160357D01*
X143992Y160353D01*
X144213Y160205D01*
X144218Y160204D01*
X144219Y160205D01*
X144489Y160151D01*
X144497Y160153D01*
X144497Y160160D01*
X144506Y160159D01*
X144704Y160185D01*
X144777Y160215D01*
X144781Y160205D01*
X144791Y160207D01*
X145010Y160354D01*
X145013Y160357D01*
X145013Y160357D01*
X145152Y160566D01*
X145160Y160605D01*
X145156Y160606D01*
X145180Y160662D01*
X145213Y160912D01*
X145211Y160929D01*
X145204Y163046D01*
X145918D01*
Y160686D01*
D02*
G37*
G36*
X156358Y157404D02*
X156534Y157332D01*
X156534Y157332D01*
X156626Y157294D01*
X156850Y157123D01*
X156931Y157016D01*
X156944Y157016D01*
Y157395D01*
X157658D01*
Y153845D01*
X156944D01*
Y155979D01*
X156950Y155979D01*
X156953Y156000D01*
X156920Y156249D01*
X156892Y156316D01*
X156896Y156318D01*
X156891Y156344D01*
X156773Y156521D01*
X156732Y156548D01*
X156733Y156550D01*
X156539Y156680D01*
X156253Y156737D01*
X156253Y156737D01*
X156253Y156735D01*
X156012Y156687D01*
X156015Y156679D01*
X155879Y156623D01*
X155780Y156547D01*
X155265Y157162D01*
X155265Y157162D01*
X155425Y157285D01*
X155626Y157369D01*
X155626Y157369D01*
X155722Y157408D01*
X156007Y157446D01*
X156007Y157446D01*
X156007Y157445D01*
X156029Y157448D01*
X156358Y157404D01*
D02*
G37*
G36*
X141877D02*
X142053Y157332D01*
X142053Y157332D01*
X142146Y157294D01*
X142369Y157123D01*
X142450Y157016D01*
X142464Y157016D01*
Y157395D01*
X143178D01*
Y153845D01*
X142464D01*
Y155979D01*
X142469Y155979D01*
X142472Y156000D01*
X142439Y156249D01*
X142411Y156316D01*
X142416Y156318D01*
X142411Y156344D01*
X142292Y156521D01*
X142251Y156548D01*
X142253Y156550D01*
X142058Y156680D01*
X141773Y156737D01*
X141772Y156737D01*
X141772Y156735D01*
X141531Y156687D01*
X141534Y156679D01*
X141398Y156623D01*
X141300Y156547D01*
X140784Y157162D01*
X140784Y157162D01*
X140944Y157285D01*
X141145Y157369D01*
X141145Y157369D01*
X141241Y157408D01*
X141526Y157446D01*
X141526Y157446D01*
X141526Y157445D01*
X141549Y157448D01*
X141877Y157404D01*
D02*
G37*
G36*
X159922Y157440D02*
X159922Y157438D01*
X159963Y157443D01*
X160284Y157411D01*
X160283Y157407D01*
X160403Y157391D01*
X160597Y157311D01*
X160597Y157311D01*
X160717Y157261D01*
X160974Y157064D01*
X161087Y156916D01*
X160542Y156487D01*
X160461Y156608D01*
X160301Y156715D01*
X160298Y156710D01*
X160246Y156732D01*
X160113Y156749D01*
X160113D01*
X159896Y156778D01*
X159887Y156777D01*
X159887Y156771D01*
X159841Y156777D01*
X159575Y156742D01*
X159576Y156740D01*
X159439Y156713D01*
X159353Y156656D01*
X159354Y156655D01*
X159284Y156609D01*
X159219Y156511D01*
X159217Y156512D01*
X159204Y156493D01*
X159169Y156318D01*
X159172Y156304D01*
X159178Y155928D01*
X160140D01*
X160140Y155939D01*
X160149Y155941D01*
X160531Y155890D01*
X160627Y155851D01*
X160627Y155849D01*
X160780Y155786D01*
X160967Y155642D01*
X160981Y155624D01*
X160981Y155625D01*
X161128Y155433D01*
X161190Y155283D01*
X161191Y155284D01*
X161232Y155185D01*
X161271Y154887D01*
X161269Y154874D01*
X161268Y154874D01*
X161270Y154860D01*
X161233Y154579D01*
X161179Y154448D01*
X161179Y154448D01*
X161135Y154341D01*
X160975Y154133D01*
X160935Y154102D01*
X160938Y154099D01*
X160741Y153948D01*
X160561Y153874D01*
X160562Y153872D01*
X160470Y153833D01*
X160045Y153778D01*
X160045Y153783D01*
X160030Y153781D01*
X159734Y153810D01*
X159734Y153813D01*
X159612Y153829D01*
X159490Y153879D01*
X159486Y153871D01*
X159477Y153873D01*
X159286Y154000D01*
X159190Y154144D01*
X159178Y154145D01*
Y153832D01*
X158487D01*
Y156263D01*
X158480Y156263D01*
X158509Y156564D01*
X158513Y156563D01*
X158527Y156664D01*
X158589Y156816D01*
X158589Y156816D01*
X158632Y156918D01*
X158767Y157094D01*
X158881Y157181D01*
X158878Y157185D01*
X158934Y157228D01*
X159285Y157373D01*
X159336Y157380D01*
X159337Y157379D01*
X159405Y157399D01*
X159870Y157445D01*
X159922Y157440D01*
D02*
G37*
G36*
X145452D02*
X145452Y157438D01*
X145494Y157443D01*
X145814Y157411D01*
X145813Y157407D01*
X145933Y157391D01*
X146128Y157311D01*
X146128Y157311D01*
X146248Y157261D01*
X146504Y157064D01*
X146618Y156916D01*
X146072Y156487D01*
X145992Y156608D01*
X145831Y156715D01*
X145829Y156710D01*
X145776Y156732D01*
X145643Y156749D01*
X145427Y156778D01*
X145417Y156777D01*
X145418Y156771D01*
X145371Y156777D01*
X145106Y156742D01*
X145106Y156740D01*
X144969Y156713D01*
X144884Y156656D01*
X144884Y156655D01*
X144815Y156609D01*
X144749Y156511D01*
X144747Y156512D01*
X144734Y156493D01*
X144700Y156318D01*
X144702Y156304D01*
X144709Y155928D01*
X145670D01*
X145670Y155939D01*
X145680Y155941D01*
X146062Y155890D01*
X146158Y155851D01*
X146158Y155849D01*
X146311Y155786D01*
X146498Y155642D01*
X146511Y155624D01*
X146512Y155625D01*
X146659Y155433D01*
X146721Y155283D01*
X146721Y155284D01*
X146762Y155185D01*
X146801Y154887D01*
X146800Y154874D01*
X146799Y154874D01*
X146801Y154860D01*
X146764Y154579D01*
X146709Y154448D01*
X146710Y154448D01*
X146665Y154341D01*
X146506Y154133D01*
X146465Y154102D01*
X146468Y154099D01*
X146271Y153948D01*
X146092Y153874D01*
X146092Y153872D01*
X146000Y153833D01*
X145575Y153778D01*
Y153783D01*
X145560Y153781D01*
X145264Y153810D01*
X145265Y153813D01*
X145142Y153829D01*
X145020Y153879D01*
X145017Y153871D01*
X145007Y153873D01*
X144817Y154000D01*
X144721Y154144D01*
X144709Y154145D01*
Y153832D01*
X144017D01*
Y156263D01*
X144010Y156263D01*
X144040Y156564D01*
X144044Y156563D01*
X144057Y156664D01*
X144120Y156816D01*
X144120Y156816D01*
X144162Y156918D01*
X144297Y157094D01*
X144411Y157181D01*
X144409Y157185D01*
X144465Y157228D01*
X144816Y157373D01*
X144867Y157380D01*
X144867Y157379D01*
X144935Y157399D01*
X145401Y157445D01*
X145452Y157440D01*
D02*
G37*
G36*
X139275Y157448D02*
X139275Y157448D01*
X139626Y157402D01*
X139781Y157337D01*
X139784Y157345D01*
X139786Y157345D01*
X140098Y157178D01*
X140266Y157040D01*
X140266Y157041D01*
X140335Y156988D01*
X140476Y156804D01*
X140478Y156805D01*
X140509Y156764D01*
X140625Y156485D01*
X140621Y156483D01*
X140695Y156238D01*
X140710Y156085D01*
X140714Y156086D01*
X140750Y155625D01*
X140749Y155606D01*
X140748Y155606D01*
X140750Y155585D01*
X140712Y155104D01*
X140708Y155105D01*
X140694Y154968D01*
X140612Y154696D01*
X140613Y154696D01*
X140518Y154467D01*
X140451Y154380D01*
X140451Y154380D01*
X140355Y154256D01*
X140226Y154157D01*
X140229Y154153D01*
X140192Y154123D01*
X139831Y153929D01*
X139705Y153891D01*
X139705Y153892D01*
X139496Y153828D01*
X139166Y153796D01*
X139166Y153796D01*
X139161Y153795D01*
X138799Y153831D01*
X138474Y153929D01*
X138477Y153935D01*
X138293Y154011D01*
X138163Y154111D01*
X138162Y154110D01*
X137973Y154265D01*
X137883Y154375D01*
X138400Y154817D01*
X138395Y154812D01*
X138409Y154793D01*
X138655Y154604D01*
X138764Y154559D01*
X138764Y154559D01*
X138907Y154500D01*
X139173Y154465D01*
X139180Y154466D01*
X139179Y154467D01*
X139192Y154465D01*
X139449Y154499D01*
X139516Y154527D01*
X139516Y154528D01*
X139648Y154582D01*
X139789Y154690D01*
X139793Y154686D01*
X139813Y154700D01*
X139964Y154925D01*
X139971Y154965D01*
X139968Y154966D01*
X139996Y155034D01*
X140035Y155328D01*
X140032Y155350D01*
X137814Y155350D01*
Y155938D01*
X137803Y155938D01*
X137799Y155964D01*
X137856Y156394D01*
X137923Y156555D01*
X137923Y156555D01*
X137995Y156728D01*
X138204Y157000D01*
X138249Y157035D01*
X138247Y157037D01*
X138529Y157253D01*
X138727Y157335D01*
X138727Y157335D01*
X138879Y157399D01*
X139264Y157449D01*
X139275Y157448D01*
D02*
G37*
G36*
X160542Y156487D02*
X160540Y156486D01*
X160542Y156487D01*
X160542Y156487D01*
D02*
G37*
G36*
X146073D02*
X146071Y156486D01*
X146072Y156487D01*
X146073Y156487D01*
D02*
G37*
G36*
X150820Y153845D02*
X150190D01*
X149448Y156328D01*
X149435D01*
X148691Y153845D01*
X148063D01*
X146927Y157395D01*
X147684D01*
X148363Y154909D01*
X148378D01*
X149180Y157395D01*
X149701D01*
X150505Y154909D01*
X150518D01*
X151199Y157395D01*
X151954D01*
X150820Y153845D01*
D02*
G37*
G36*
X153099Y157023D02*
X153349Y157229D01*
X153520Y157320D01*
X153518Y157323D01*
X153726Y157409D01*
X154001Y157446D01*
X154016Y157444D01*
X154016Y157447D01*
X154026Y157448D01*
X154323Y157409D01*
X154322Y157408D01*
X154361Y157403D01*
X154584Y157310D01*
X154584Y157311D01*
X154615Y157298D01*
X154868Y157104D01*
X154966Y156975D01*
X154966Y156975D01*
X155055Y156860D01*
X155160Y156607D01*
X155170Y156529D01*
X155176Y156530D01*
X155211Y156176D01*
X155207Y156175D01*
X155231Y155668D01*
X155229Y155624D01*
X155230Y155624D01*
X155232Y155580D01*
X155207Y155066D01*
X155211Y155066D01*
X155176Y154707D01*
X155170Y154708D01*
X155159Y154627D01*
X155056Y154379D01*
X154967Y154262D01*
X154865Y154130D01*
X154623Y153944D01*
X154583Y153928D01*
X154583Y153928D01*
X154367Y153838D01*
X154322Y153832D01*
X154322Y153831D01*
X154026Y153792D01*
X154016Y153793D01*
X154016Y153795D01*
X154004Y153793D01*
X153687Y153835D01*
X153515Y153906D01*
X153515Y153906D01*
X153404Y153952D01*
X153141Y154153D01*
X153096Y154212D01*
X153099Y153845D01*
X152384D01*
Y158828D01*
X153099D01*
Y157023D01*
D02*
G37*
G36*
X135742Y151704D02*
Y151396D01*
X137283D01*
X137283Y151088D01*
X137899Y151088D01*
Y150780D01*
X138823D01*
Y150472D01*
X139748Y150472D01*
X139748Y150164D01*
X140364D01*
X140364Y149856D01*
X140980Y149856D01*
Y149548D01*
X141288D01*
Y149239D01*
X141596D01*
X141596Y148931D01*
X141904Y148931D01*
Y148623D01*
X142213Y148623D01*
Y148315D01*
X142521Y148315D01*
Y148007D01*
X142829D01*
Y147699D01*
X143137D01*
Y147391D01*
X143445Y147391D01*
X143445Y147082D01*
X143753D01*
X143753Y146774D01*
X144061Y146774D01*
X144061Y145850D01*
X143445D01*
Y146158D01*
X141596Y146158D01*
X141596Y146466D01*
X139748Y146466D01*
Y146774D01*
X138515D01*
Y147082D01*
X137591D01*
Y147391D01*
X135742Y147391D01*
X135742Y147699D01*
X131120Y147699D01*
Y147391D01*
X130196Y147391D01*
X130196Y147082D01*
X129271D01*
Y146774D01*
X128655D01*
X128655Y146466D01*
X128039Y146466D01*
Y146158D01*
X127731Y146158D01*
X127731Y145542D01*
X127423Y145542D01*
X127423Y145234D01*
X127115Y145234D01*
X127115Y144926D01*
X126806D01*
X126806Y144309D01*
X126498Y144309D01*
Y144001D01*
X126190Y144001D01*
Y143385D01*
X125882D01*
X125882Y143077D01*
X125574D01*
X125574Y138147D01*
X125882D01*
Y142153D01*
X126190D01*
Y142769D01*
X126806D01*
Y143077D01*
X127731D01*
X127731Y143385D01*
X128039D01*
Y143693D01*
X128655Y143693D01*
X128655Y144001D01*
X128963D01*
Y144309D01*
X129271Y144309D01*
Y144617D01*
X129580D01*
X129580Y144926D01*
X129888D01*
Y145542D01*
X130196Y145542D01*
X130196Y145850D01*
X130504Y145850D01*
Y146466D01*
X130812D01*
Y147082D01*
X131120D01*
Y147391D01*
X131737Y147391D01*
Y147082D01*
X132045D01*
Y146774D01*
X132353Y146774D01*
Y146466D01*
X132661D01*
Y146158D01*
X132969Y146158D01*
X132969Y145850D01*
X133277D01*
X133277Y145542D01*
X133893D01*
Y145234D01*
X134201D01*
Y144926D01*
X134818Y144926D01*
Y144617D01*
X135126D01*
Y144309D01*
X135742D01*
Y144001D01*
X136358D01*
Y143693D01*
X136975D01*
X136975Y143385D01*
X137899Y143385D01*
X137899Y143077D01*
X138823Y143077D01*
X138823Y142769D01*
X140056D01*
X140056Y142461D01*
X141288Y142461D01*
X141288Y142153D01*
X141904Y142153D01*
Y141228D01*
X141596Y141228D01*
X141596Y141536D01*
X141288Y141536D01*
Y141844D01*
X140364D01*
X140364Y142153D01*
X138207D01*
Y141844D01*
X137899Y141844D01*
X137899Y141536D01*
X137591D01*
Y139379D01*
X137899Y139379D01*
X137899Y138763D01*
X138207D01*
Y138455D01*
X138823Y138455D01*
Y138147D01*
X139748Y138147D01*
Y137839D01*
X141288Y137839D01*
Y136298D01*
X140980D01*
Y135066D01*
X140672D01*
X140672Y134449D01*
X140364Y134449D01*
Y133833D01*
X140056Y133833D01*
X140056Y133525D01*
X134202D01*
X134201Y133217D01*
X139748Y133217D01*
Y132909D01*
X139440Y132909D01*
X139440Y132601D01*
X138515D01*
Y132909D01*
X137591Y132909D01*
X137591Y132601D01*
X138207D01*
Y132293D01*
X139131Y132293D01*
Y131984D01*
X138515D01*
X138207Y131984D01*
X138207Y132293D01*
X137899D01*
Y131676D01*
X138207D01*
X138207Y131368D01*
X139748D01*
Y130752D01*
X139440Y130752D01*
Y130444D01*
X139131D01*
X139131Y130136D01*
X140056Y130136D01*
Y130444D01*
X140980D01*
X140980Y129519D01*
X141288D01*
Y127979D01*
X140980Y127979D01*
X140980Y127363D01*
X140672Y127363D01*
X140672Y127055D01*
X140056Y127055D01*
X140056Y127363D01*
X139440D01*
X139440Y127671D01*
X139131D01*
Y129211D01*
X138823Y129211D01*
Y125514D01*
X125574D01*
X125574Y126438D01*
X125882D01*
X125882Y127363D01*
X126190Y127363D01*
Y128287D01*
X127423Y128287D01*
Y127979D01*
X127731D01*
X127731Y128287D01*
X128347D01*
X128347Y129211D01*
X128655D01*
Y130752D01*
X128039D01*
X128039Y130136D01*
X128347Y130136D01*
Y129519D01*
X128039Y129519D01*
Y128595D01*
X127731Y128595D01*
X127731Y128287D01*
X127423Y128287D01*
Y128903D01*
X127115Y128903D01*
X127115Y128595D01*
X126190Y128595D01*
X126190Y129211D01*
X126498Y129211D01*
Y129519D01*
X125882D01*
Y129211D01*
X125574D01*
X125574Y129519D01*
X125266D01*
X125266Y129828D01*
X125574D01*
Y130444D01*
X125882Y130444D01*
X125882Y130752D01*
X126498Y130752D01*
X126498Y131060D01*
X126806Y131060D01*
X127115Y131060D01*
X127423D01*
X127423Y130752D01*
X128039Y130752D01*
Y131368D01*
X126498Y131368D01*
X126498Y131060D01*
X125882D01*
Y130752D01*
X125574D01*
Y130444D01*
X125266D01*
X125266Y130136D01*
X124958Y130136D01*
Y129519D01*
X123417Y129519D01*
Y129828D01*
X123109D01*
X123109Y130444D01*
X122801D01*
X122801Y131368D01*
X123109Y131368D01*
Y131676D01*
X123417Y131676D01*
Y132293D01*
X123725Y132293D01*
X123725Y132601D01*
X124033D01*
X124033Y132909D01*
X124650D01*
Y133217D01*
X125574Y133217D01*
X125574Y133525D01*
X126806D01*
X126806Y133217D01*
X127731D01*
X127731Y133525D01*
X126806Y133525D01*
Y133833D01*
X126190D01*
Y134141D01*
X125574D01*
X125574Y134449D01*
X125266D01*
X125266Y134758D01*
X124650D01*
Y135066D01*
X124341D01*
X124341Y135374D01*
X124033D01*
X124033Y135682D01*
X123725Y135682D01*
Y135990D01*
X123417D01*
Y136606D01*
X123109Y136606D01*
X123109Y137223D01*
X122801Y137223D01*
Y138147D01*
X122493Y138147D01*
X122493Y139379D01*
X122185Y139379D01*
X122185Y141536D01*
X122493D01*
X122493Y143385D01*
X122801Y143385D01*
X122801Y144309D01*
X123109Y144309D01*
Y144926D01*
X123417D01*
Y145542D01*
X124958Y145542D01*
X124958Y145850D01*
X125266Y145850D01*
X125266Y146158D01*
X125574Y146158D01*
X125574Y146466D01*
X125266D01*
X125266Y146158D01*
X124958Y146158D01*
X124958Y145850D01*
X123109Y145850D01*
Y146158D01*
X122801D01*
Y146466D01*
X122493D01*
Y148007D01*
X122801Y148007D01*
Y148315D01*
X123725Y148315D01*
X123725Y148623D01*
X124650Y148623D01*
X124650Y148931D01*
X125266D01*
X125266Y149239D01*
X125574Y149239D01*
Y149548D01*
X126190D01*
Y149856D01*
X126806D01*
X126806Y150164D01*
X127423Y150164D01*
X127423Y149856D01*
X127731D01*
X127731Y149239D01*
X128039D01*
Y149856D01*
X127731D01*
Y150472D01*
X128347Y150472D01*
Y150780D01*
X129271D01*
X129271Y151088D01*
X130196Y151088D01*
X130196Y151396D01*
X131428D01*
X131428Y151704D01*
X135742Y151704D01*
D02*
G37*
G36*
X130196Y146774D02*
Y146158D01*
X129888Y146158D01*
Y145850D01*
X129580D01*
X129580Y145234D01*
X129271D01*
Y144926D01*
X128963Y144926D01*
X128963Y144617D01*
X128655Y144617D01*
Y144309D01*
X128347D01*
Y144001D01*
X127731D01*
X127731Y143693D01*
X127115Y143693D01*
X127115Y143385D01*
X126498D01*
X126498Y143693D01*
X126806Y143693D01*
Y144001D01*
X127115D01*
Y144617D01*
X127423Y144617D01*
Y144926D01*
X127731D01*
Y145234D01*
X128039Y145234D01*
Y145850D01*
X128347D01*
Y146158D01*
X128963Y146158D01*
X128963Y146466D01*
X129888D01*
Y146774D01*
X130196Y146774D01*
D02*
G37*
G36*
X144061Y148315D02*
Y148007D01*
X144369D01*
X144369Y147699D01*
X144678D01*
Y147391D01*
X144986D01*
Y147082D01*
X145294Y147082D01*
X145294Y146774D01*
X145602Y146774D01*
Y146466D01*
X145910Y146466D01*
Y146158D01*
X146526Y146158D01*
Y145850D01*
X146835D01*
Y145542D01*
X147143Y145542D01*
Y145234D01*
X147451D01*
Y144926D01*
X147759Y144926D01*
Y144001D01*
X147143D01*
X147143Y144309D01*
X146835D01*
X146835Y144617D01*
X146218D01*
Y144926D01*
X145294Y144926D01*
Y145234D01*
X144986D01*
Y145542D01*
X144678Y145542D01*
X144678Y146158D01*
X144369Y146158D01*
Y147082D01*
X144061D01*
X144061Y147391D01*
X143753Y147391D01*
X143753Y147699D01*
X143445D01*
X143445Y148007D01*
X143137D01*
X143137Y148315D01*
X144061Y148315D01*
D02*
G37*
G36*
X135434Y147082D02*
X137283D01*
Y146774D01*
X138207D01*
Y146466D01*
X139440D01*
Y146158D01*
X141288D01*
X141288Y145850D01*
X143137Y145850D01*
X143137Y145542D01*
X143753Y145542D01*
Y145234D01*
X144061D01*
Y144309D01*
X144369D01*
X144369Y144001D01*
X144678D01*
Y143693D01*
X144986Y143693D01*
X144986Y143385D01*
X145602D01*
X145602Y143077D01*
X145294D01*
X145294Y142769D01*
X140364D01*
Y143077D01*
X139748Y143077D01*
Y143385D01*
X138515D01*
X138515Y143693D01*
X138207Y143693D01*
X137899Y143693D01*
X137283Y143693D01*
X137283Y144001D01*
X136666D01*
X136667Y144309D01*
X136358Y144309D01*
X136358Y144617D01*
X135742Y144617D01*
Y144926D01*
X135126D01*
X135126Y145234D01*
X134510D01*
Y145542D01*
X134201Y145542D01*
Y145850D01*
X133585D01*
Y146158D01*
X133277D01*
X133277Y146466D01*
X132969D01*
Y146774D01*
X132661Y146774D01*
X132661Y147082D01*
X132353D01*
Y147391D01*
X135434D01*
Y147082D01*
D02*
G37*
G36*
X142829Y142461D02*
X142829Y142153D01*
X143753Y142153D01*
X143753Y141844D01*
X144061D01*
Y141536D01*
X144369D01*
X144369Y141228D01*
X144678D01*
X144678Y141536D01*
X144369D01*
Y141844D01*
X144061Y141844D01*
X144061Y142461D01*
X144986D01*
Y141228D01*
X144678D01*
X144678Y140920D01*
X144061Y140920D01*
X144061Y140612D01*
X144678Y140612D01*
Y140304D01*
X144986D01*
Y139996D01*
X144678D01*
Y138147D01*
X144369D01*
Y137531D01*
X144369Y137223D01*
X144369Y134758D01*
X144061D01*
X144061Y134449D01*
X143753Y134449D01*
Y133833D01*
X143445Y133833D01*
Y133525D01*
X142521Y133525D01*
Y133833D01*
X142829Y133833D01*
X142829Y134757D01*
X143137D01*
Y136298D01*
X143445D01*
Y141228D01*
X143753Y141228D01*
Y140920D01*
X144061D01*
Y141228D01*
X143753Y141228D01*
Y141536D01*
X143137D01*
Y137839D01*
X142829D01*
Y135682D01*
X142521D01*
Y134449D01*
X142213Y134449D01*
Y133525D01*
X141904D01*
Y132909D01*
X141596Y132909D01*
Y132293D01*
X141288D01*
X141288Y131676D01*
X140980D01*
Y131368D01*
X140672D01*
X140672Y131060D01*
X140364Y131060D01*
X140364Y130752D01*
X140056D01*
Y131676D01*
X139131D01*
Y131984D01*
X139440Y131984D01*
X139440Y132293D01*
X140056D01*
X140056Y132909D01*
X140364D01*
X140364Y133217D01*
X140672Y133217D01*
Y133833D01*
X140980D01*
Y134141D01*
Y134449D01*
X141288Y134449D01*
Y135374D01*
X141596D01*
X141596Y135990D01*
X141904D01*
Y137839D01*
X141596Y137839D01*
X141596Y139071D01*
X141904D01*
X141904Y140920D01*
X142213Y140920D01*
X142213Y142153D01*
X142521D01*
X142521Y142461D01*
X142829Y142461D01*
D02*
G37*
G36*
X144986Y140920D02*
X144986Y140612D01*
X144678Y140612D01*
Y140920D01*
X144986Y140920D01*
D02*
G37*
G36*
X139748Y141844D02*
Y141536D01*
X140056Y141536D01*
X140056Y141228D01*
X140364D01*
X140364Y140612D01*
X140056D01*
Y140304D01*
X139748D01*
X139748Y139996D01*
X139131Y139996D01*
X138823Y139996D01*
X138515D01*
Y140612D01*
X138207Y140612D01*
X138207Y141228D01*
X138515D01*
Y141536D01*
X138823D01*
Y141844D01*
X139748Y141844D01*
D02*
G37*
G36*
X141288Y140304D02*
Y139688D01*
X140364D01*
X140364Y140612D01*
X141288Y140612D01*
Y140304D01*
D02*
G37*
%LPC*%
G36*
X166837Y162380D02*
X166818Y162378D01*
X166818Y162378D01*
X166799Y162380D01*
X166588Y162353D01*
X166480Y162308D01*
X166477Y162315D01*
X166299Y162196D01*
X166243Y162112D01*
X166242Y162113D01*
X166197Y162054D01*
X166102Y161825D01*
X166101Y161813D01*
X166102Y161813D01*
X166074Y161597D01*
X166077Y161597D01*
X166053Y161292D01*
X166055Y161267D01*
X166055D01*
X166055Y161267D01*
X166068Y161267D01*
X166055Y161267D01*
X166053Y161241D01*
X166077Y160938D01*
X166074Y160938D01*
X166102Y160722D01*
X166101Y160722D01*
X166103Y160709D01*
X166193Y160490D01*
X166243Y160426D01*
X166243Y160426D01*
X166299Y160342D01*
X166477Y160223D01*
X166480Y160231D01*
X166588Y160186D01*
X166799Y160158D01*
X166818Y160161D01*
X166818Y160161D01*
X166837Y160158D01*
X167050Y160186D01*
X167157Y160231D01*
X167161Y160223D01*
X167334Y160339D01*
X167392Y160426D01*
X167392Y160426D01*
X167449Y160500D01*
X167530Y160696D01*
X167534Y160724D01*
X167533Y160724D01*
X167562Y160942D01*
X167557Y160942D01*
X167577Y161249D01*
X167576Y161275D01*
X167575Y161275D01*
X167577Y161300D01*
X167557Y161599D01*
X167562Y161599D01*
X167534Y161812D01*
X167534Y161813D01*
X167531Y161838D01*
X167446Y162042D01*
X167392Y162112D01*
X167392Y162112D01*
X167334Y162199D01*
X167161Y162315D01*
X167157Y162308D01*
X167050Y162352D01*
X166837Y162380D01*
D02*
G37*
G36*
X148049D02*
X148029Y162378D01*
X148030Y162378D01*
X148011Y162380D01*
X147800Y162353D01*
X147692Y162308D01*
X147689Y162315D01*
X147511Y162196D01*
X147455Y162112D01*
X147454Y162113D01*
X147408Y162054D01*
X147314Y161825D01*
X147312Y161813D01*
X147314Y161813D01*
X147285Y161597D01*
X147289Y161597D01*
X147265Y161292D01*
X147267Y161267D01*
X147267D01*
X147265Y161242D01*
X147289Y160938D01*
X147285Y160938D01*
X147314Y160722D01*
X147313Y160722D01*
X147314Y160709D01*
X147405Y160490D01*
X147454Y160426D01*
X147455Y160426D01*
X147511Y160342D01*
X147689Y160223D01*
X147692Y160231D01*
X147800Y160186D01*
X148011Y160158D01*
X148030Y160161D01*
X148029Y160161D01*
X148049Y160158D01*
X148262Y160186D01*
X148369Y160231D01*
X148372Y160223D01*
X148546Y160339D01*
X148604Y160426D01*
X148604Y160426D01*
X148661Y160500D01*
X148742Y160696D01*
X148746Y160724D01*
X148745Y160724D01*
X148774Y160942D01*
X148769Y160942D01*
X148789Y161249D01*
X148787Y161275D01*
X148787Y161275D01*
X148789Y161299D01*
X148769Y161599D01*
X148774Y161599D01*
X148745Y161812D01*
X148746Y161813D01*
X148743Y161838D01*
X148658Y162042D01*
X148604Y162112D01*
X148604Y162112D01*
X148546Y162199D01*
X148372Y162315D01*
X148369Y162308D01*
X148262Y162352D01*
X148049Y162380D01*
D02*
G37*
%LPD*%
G36*
X147279Y161267D02*
X147267Y161267D01*
X147267Y161267D01*
X147279Y161267D01*
D02*
G37*
%LPC*%
G36*
X163275Y162382D02*
X163059Y162354D01*
X163059Y162351D01*
X162942Y162328D01*
X162882Y162288D01*
X162882Y162287D01*
X162786Y162223D01*
X162692Y162082D01*
X162680Y162025D01*
X162681Y162025D01*
X162619Y161823D01*
X162567Y161292D01*
X162569Y161267D01*
X162570Y161267D01*
X162567Y161241D01*
X162619Y160714D01*
X162681Y160511D01*
X162680Y160511D01*
X162691Y160456D01*
X162785Y160316D01*
X162882Y160251D01*
X162882Y160250D01*
X162941Y160211D01*
X163059Y160187D01*
X163059Y160184D01*
X163275Y160156D01*
X163286Y160157D01*
Y160158D01*
X163297Y160156D01*
X163513Y160185D01*
X163512Y160188D01*
X163622Y160210D01*
X163688Y160254D01*
X163688Y160254D01*
X163779Y160315D01*
X163875Y160459D01*
X163888Y160523D01*
X163889Y160523D01*
X163947Y160715D01*
X164000Y161258D01*
X164000Y161267D01*
X164000Y161267D01*
X164000Y161275D01*
X163947Y161823D01*
X163889Y162014D01*
X163888Y162014D01*
X163875Y162079D01*
X163779Y162223D01*
X163688Y162284D01*
X163688Y162284D01*
X163621Y162329D01*
X163512Y162351D01*
X163513Y162354D01*
X163297Y162382D01*
X163286Y162381D01*
X163286Y162381D01*
X163275Y162382D01*
D02*
G37*
G36*
X163987Y159871D02*
Y159862D01*
X163992Y159866D01*
X163987Y159871D01*
D02*
G37*
%LPD*%
G36*
X163286Y160158D02*
X163286Y160158D01*
X163286Y160165D01*
X163286Y160158D01*
D02*
G37*
%LPC*%
G36*
X159876Y162421D02*
X159866Y162420D01*
X159866Y162419D01*
X159857Y162421D01*
X159660Y162395D01*
X159579Y162361D01*
X159574Y162373D01*
X159572Y162373D01*
X159341Y162219D01*
X159335Y162210D01*
X159335Y162210D01*
X159183Y161982D01*
X159175Y161944D01*
X159181Y161943D01*
X159147Y161862D01*
X159111Y161589D01*
X160616Y161589D01*
X160624Y161589D01*
X160587Y161871D01*
X160557Y161943D01*
X160562Y161944D01*
X160554Y161985D01*
X160403Y162210D01*
X160403Y162210D01*
X160398Y162218D01*
X160168Y162372D01*
X160162Y162373D01*
X160158Y162361D01*
X160078Y162394D01*
X159876Y162421D01*
D02*
G37*
G36*
X135398Y162421D02*
X135388Y162420D01*
X135388Y162419D01*
X135380Y162421D01*
X135182Y162395D01*
X135101Y162361D01*
X135096Y162373D01*
X135094Y162373D01*
X134863Y162219D01*
X134857Y162210D01*
X134857Y162210D01*
X134705Y161982D01*
X134697Y161944D01*
X134703Y161943D01*
X134669Y161862D01*
X134633Y161589D01*
X136138Y161589D01*
X136146Y161589D01*
X136109Y161871D01*
X136079Y161943D01*
X136084Y161944D01*
X136075Y161985D01*
X135925Y162210D01*
X135925Y162210D01*
X135920Y162218D01*
X135690Y162372D01*
X135684Y162373D01*
X135680Y162361D01*
X135600Y162394D01*
X135398Y162421D01*
D02*
G37*
G36*
X160010Y155348D02*
X159178Y155340D01*
Y155079D01*
X159172Y155079D01*
X159168Y155050D01*
X159206Y154763D01*
X159212Y154749D01*
X159217Y154750D01*
X159225Y154708D01*
X159270Y154641D01*
X159270Y154641D01*
X159302Y154594D01*
X159342Y154567D01*
X159342Y154566D01*
X159415Y154517D01*
X159585Y154483D01*
X159585Y154481D01*
X159899Y154450D01*
X159958Y154456D01*
X159958Y154454D01*
X159978Y154451D01*
X160257Y154488D01*
X160255Y154495D01*
X160326Y154509D01*
X160458Y154597D01*
X160456Y154598D01*
X160497Y154625D01*
X160574Y154742D01*
X160574Y154742D01*
X160590Y154765D01*
X160618Y154906D01*
X160618Y154909D01*
X160616Y154908D01*
X160619Y154926D01*
X160588Y155085D01*
X160582Y155093D01*
X160580Y155092D01*
X160515Y155190D01*
X160465Y155224D01*
X160465Y155223D01*
X160367Y155289D01*
X160276Y155307D01*
X160278Y155313D01*
X160010Y155348D01*
D02*
G37*
G36*
X145541D02*
X144709Y155340D01*
Y155079D01*
X144702Y155079D01*
X144699Y155050D01*
X144736Y154763D01*
X144742Y154749D01*
X144747Y154750D01*
X144756Y154708D01*
X144801Y154641D01*
X144801Y154641D01*
X144832Y154594D01*
X144873Y154567D01*
X144872Y154566D01*
X144946Y154517D01*
X145116Y154483D01*
X145115Y154481D01*
X145429Y154450D01*
X145488Y154456D01*
X145488Y154454D01*
X145509Y154451D01*
X145788Y154488D01*
X145786Y154495D01*
X145856Y154509D01*
X145988Y154597D01*
X145987Y154598D01*
X146027Y154625D01*
X146105Y154742D01*
X146105Y154742D01*
X146121Y154765D01*
X146149Y154906D01*
X146148Y154909D01*
X146146Y154908D01*
X146150Y154926D01*
X146118Y155085D01*
X146113Y155093D01*
X146110Y155092D01*
X146045Y155190D01*
X145995Y155224D01*
X145995Y155223D01*
X145897Y155289D01*
X145807Y155307D01*
X145808Y155313D01*
X145541Y155348D01*
D02*
G37*
G36*
X139284Y156770D02*
X139275Y156769D01*
X139275Y156769D01*
X139266Y156770D01*
X139068Y156744D01*
X138987Y156710D01*
X138982Y156723D01*
X138980Y156722D01*
X138750Y156568D01*
X138743Y156559D01*
X138743Y156559D01*
X138591Y156332D01*
X138584Y156294D01*
X138589Y156292D01*
X138556Y156211D01*
X138520Y155938D01*
X140025Y155938D01*
X140033Y155938D01*
X139996Y156220D01*
X139966Y156292D01*
X139970Y156294D01*
X139962Y156335D01*
X139812Y156559D01*
X139812Y156559D01*
X139807Y156567D01*
X139576Y156721D01*
X139571Y156722D01*
X139566Y156711D01*
X139486Y156744D01*
X139284Y156770D01*
D02*
G37*
G36*
X153099Y157023D02*
X153095Y157020D01*
X153099Y157016D01*
Y157023D01*
D02*
G37*
G36*
X153809Y156732D02*
X153798Y156730D01*
X153798Y156730D01*
X153787Y156731D01*
X153573Y156703D01*
X153574Y156700D01*
X153467Y156679D01*
X153399Y156633D01*
X153399Y156633D01*
X153309Y156573D01*
X153212Y156427D01*
X153199Y156363D01*
X153199Y156363D01*
X153138Y156162D01*
X153085Y155629D01*
X153086Y155624D01*
X153086Y155624D01*
X153085Y155614D01*
X153138Y155073D01*
X153199Y154874D01*
X153199Y154874D01*
X153212Y154810D01*
X153309Y154665D01*
X153399Y154604D01*
X153399Y154604D01*
X153467Y154559D01*
X153574Y154537D01*
X153573Y154534D01*
X153787Y154506D01*
X153798Y154507D01*
X153798Y154507D01*
X153809Y154505D01*
X154026Y154534D01*
X154025Y154536D01*
X154145Y154560D01*
X154203Y154599D01*
X154203Y154600D01*
X154301Y154665D01*
X154394Y154805D01*
X154405Y154860D01*
X154405Y154860D01*
X154466Y155062D01*
X154518Y155595D01*
X154516Y155624D01*
X154516Y155624D01*
X154518Y155649D01*
X154467Y156173D01*
X154405Y156377D01*
X154405Y156377D01*
X154394Y156432D01*
X154301Y156572D01*
X154203Y156637D01*
X154203Y156638D01*
X154145Y156677D01*
X154025Y156701D01*
X154026Y156703D01*
X153809Y156732D01*
D02*
G37*
%LPD*%
G36*
X153798Y156730D02*
X153798Y156722D01*
X153798Y156730D01*
X153798Y156730D01*
D02*
G37*
%LPC*%
G36*
X128347Y149239D02*
X128039Y149239D01*
X128039Y148931D01*
X128347Y148931D01*
Y149239D01*
D02*
G37*
G36*
X126806Y148623D02*
X126498Y148623D01*
X126498Y148007D01*
X126190D01*
Y147391D01*
X125882D01*
Y146774D01*
X126190D01*
X126190Y147391D01*
X126498D01*
X126498Y147699D01*
X126806D01*
X126806Y148623D01*
D02*
G37*
G36*
X125882Y146774D02*
X125574D01*
X125574Y146466D01*
X125882D01*
Y146774D01*
D02*
G37*
G36*
X132353Y142769D02*
X129580D01*
X129580Y142461D01*
X128655D01*
Y142153D01*
X128039D01*
Y141844D01*
X127423D01*
Y141536D01*
X127115D01*
Y141228D01*
X126806D01*
Y140612D01*
X126498Y140612D01*
Y140304D01*
X126806D01*
Y139688D01*
X127115Y139688D01*
Y139379D01*
X127731D01*
Y139071D01*
X128347D01*
X128347Y138763D01*
X132045Y138763D01*
X132045Y139071D01*
X132661D01*
X132661Y139379D01*
X132969Y139379D01*
Y139996D01*
X133277D01*
X133277Y142153D01*
X132969D01*
Y142461D01*
X132353D01*
Y142769D01*
D02*
G37*
G36*
X136666Y139071D02*
X134201D01*
X134202Y138147D01*
X134510D01*
X134510Y137839D01*
X134818D01*
Y138455D01*
X134510D01*
Y138763D01*
X136358Y138763D01*
Y138455D01*
X136050Y138455D01*
Y138147D01*
X135742D01*
Y137839D01*
X134818Y137839D01*
Y137531D01*
X136050Y137531D01*
X136050Y137839D01*
X136358Y137839D01*
Y138147D01*
X136666D01*
Y139071D01*
D02*
G37*
G36*
X126190Y138147D02*
X125882D01*
X125882Y137223D01*
X126190Y137223D01*
Y138147D01*
D02*
G37*
G36*
X126498Y137223D02*
X126190D01*
X126190Y136606D01*
X126498Y136606D01*
Y137223D01*
D02*
G37*
G36*
X126806Y136606D02*
X126498D01*
X126498Y135990D01*
X126806Y135990D01*
Y135682D01*
X127115D01*
X127115Y135374D01*
X127731D01*
X127731Y135066D01*
X128039D01*
Y134758D01*
X128655Y134757D01*
Y134449D01*
X129580Y134449D01*
Y134141D01*
X130504D01*
Y133833D01*
X132353Y133833D01*
Y133525D01*
X132969Y133525D01*
X133277Y133525D01*
X134202D01*
Y133833D01*
X132353Y133833D01*
Y134141D01*
X130504Y134141D01*
Y134449D01*
X129580Y134449D01*
Y134757D01*
X128963D01*
Y135066D01*
X128347D01*
Y135374D01*
X127731Y135374D01*
Y135682D01*
X127423D01*
X127423Y135990D01*
X127115Y135990D01*
X127115Y136298D01*
X126806D01*
Y136606D01*
D02*
G37*
G36*
X129888Y133833D02*
X129580D01*
X129580Y133525D01*
X129271Y133525D01*
Y133217D01*
X129580D01*
X129580Y133525D01*
X129888Y133525D01*
Y132601D01*
X129580Y132601D01*
Y131984D01*
X129271D01*
X129271Y131368D01*
X128963D01*
X128963Y131060D01*
X128655Y131060D01*
Y130752D01*
X128963D01*
X128963Y131060D01*
X129271Y131060D01*
Y131368D01*
X129580D01*
X129580Y131984D01*
X129888D01*
X129888Y132601D01*
X130812Y132601D01*
Y132909D01*
X130196D01*
X130196Y133525D01*
X129888Y133525D01*
Y133833D01*
D02*
G37*
G36*
X129271Y133217D02*
X127731D01*
X127731Y132909D01*
X128963D01*
X128963Y132601D01*
X128655D01*
Y131984D01*
X128347Y131984D01*
X128347Y131676D01*
X128039Y131676D01*
Y131368D01*
X128347D01*
X128347Y131676D01*
X128655Y131676D01*
Y131984D01*
X128963D01*
Y132293D01*
X129271Y132293D01*
Y133217D01*
D02*
G37*
G36*
X137591Y132601D02*
X130812D01*
Y132293D01*
X136975Y132293D01*
Y131984D01*
X137283Y131984D01*
Y132293D01*
X137591Y132293D01*
Y132601D01*
D02*
G37*
G36*
X136975Y131984D02*
X136666D01*
X136666Y131368D01*
X136975Y131368D01*
Y131984D01*
D02*
G37*
G36*
X137591Y131676D02*
Y131368D01*
X137283D01*
Y131060D01*
X137591D01*
Y131368D01*
X137899Y131368D01*
X137899Y131676D01*
X137591Y131676D01*
D02*
G37*
G36*
X136666Y131368D02*
X136358D01*
Y131060D01*
X136666D01*
X136666Y131368D01*
D02*
G37*
G36*
X137283Y131060D02*
X136975D01*
X136975Y130752D01*
X137283D01*
Y131060D01*
D02*
G37*
G36*
X135742Y131060D02*
Y130752D01*
X134510Y130752D01*
X134510Y130444D01*
X133893D01*
Y130136D01*
X133585D01*
X133585Y129519D01*
X133277D01*
X133277Y128595D01*
X133277Y128287D01*
X134201D01*
Y127671D01*
X135742D01*
X135742Y127363D01*
X136050Y127363D01*
Y127671D01*
X136666Y127671D01*
Y128903D01*
X136975Y128903D01*
X136975Y129211D01*
X136666Y129211D01*
Y130444D01*
X136050D01*
X136050Y130752D01*
X136358D01*
Y131060D01*
X135742Y131060D01*
D02*
G37*
G36*
X136975Y130752D02*
X136666D01*
Y130444D01*
X136975Y130444D01*
X136975Y130752D01*
D02*
G37*
%LPD*%
G36*
X132045Y142153D02*
X132353D01*
X132353Y140920D01*
X132045D01*
X132045Y140612D01*
X130812D01*
X130812Y140920D01*
X130504Y140920D01*
Y141536D01*
X130196Y141536D01*
Y141844D01*
X130504D01*
Y142153D01*
X130812D01*
Y142461D01*
X132045D01*
X132045Y142153D01*
D02*
G37*
G36*
X130196Y141536D02*
Y140612D01*
X129888D01*
Y140304D01*
X129271Y140304D01*
Y140612D01*
X128963D01*
X128963Y141536D01*
X129580D01*
X130196Y141536D01*
D02*
G37*
G36*
X135434Y130136D02*
X135742Y130136D01*
X136050Y130136D01*
Y129828D01*
X136358Y129828D01*
Y127979D01*
X135742D01*
X135742Y128595D01*
X135434Y128595D01*
X135434Y128287D01*
X135126Y128287D01*
X135126Y127979D01*
X134510D01*
Y128903D01*
X134201Y128903D01*
Y128595D01*
X133585D01*
X133585Y129519D01*
X133893Y129519D01*
X133893Y129828D01*
X134201Y129828D01*
Y130136D01*
X134818Y130136D01*
Y130444D01*
X135434D01*
Y130136D01*
D02*
G37*
D10*
X201100Y149500D02*
X200967Y150471D01*
X200576Y151371D01*
X199957Y152131D01*
X199156Y152696D01*
X198232Y153025D01*
X197254Y153092D01*
X196294Y152892D01*
X195424Y152441D01*
X194707Y151772D01*
X194198Y150934D01*
X193933Y149990D01*
Y149010D01*
X194198Y148066D01*
X194707Y147228D01*
X195424Y146559D01*
X196294Y146108D01*
X197254Y145908D01*
X198232Y145975D01*
X199156Y146304D01*
X199957Y146869D01*
X200576Y147629D01*
X200967Y148529D01*
X201100Y149500D01*
X113955Y140469D02*
X114819Y140998D01*
X115634Y141598D01*
X116395Y142266D01*
X117096Y142997D01*
X117732Y143786D01*
X118298Y144625D01*
X118790Y145511D01*
X119204Y146435D01*
X119537Y147391D01*
X119788Y148372D01*
X119953Y149372D01*
X120032Y150381D01*
X120025Y151394D01*
X119931Y152402D01*
X119750Y153399D01*
X119485Y154376D01*
X119137Y155327D01*
X118709Y156245D01*
X118204Y157123D01*
X117626Y157954D01*
X116979Y158733D01*
X116267Y159453D01*
X115496Y160110D01*
X114672Y160698D01*
X113800Y161214D01*
X112887Y161653D01*
X111940Y162012D01*
X110966Y162289D01*
X109972Y162481D01*
X108965Y162587D01*
X107952Y162607D01*
X106942Y162540D01*
X105940Y162386D01*
X104956Y162148D01*
X103996Y161826D01*
X173712Y317147D02*
X173891Y316170D01*
X174153Y315210D01*
X174493Y314277D01*
X174912Y313375D01*
X175404Y312511D01*
X175968Y311693D01*
X176598Y310924D01*
X177291Y310211D01*
X178041Y309559D01*
X178843Y308972D01*
X179692Y308455D01*
X180582Y308011D01*
X181505Y307643D01*
X182456Y307355D01*
X183428Y307147D01*
X184415Y307022D01*
X185408Y306980D01*
X186401Y307022D01*
X187387Y307147D01*
X188359Y307355D01*
X189310Y307643D01*
X190234Y308011D01*
X191123Y308455D01*
X191972Y308972D01*
X192774Y309559D01*
X193525Y310211D01*
X194217Y310924D01*
X194848Y311693D01*
X195411Y312511D01*
X195904Y313375D01*
X196322Y314277D01*
X196663Y315210D01*
X196924Y316170D01*
X197104Y317147D01*
X266819Y161826D02*
X265859Y162148D01*
X264875Y162386D01*
X263874Y162540D01*
X262863Y162607D01*
X261851Y162587D01*
X260844Y162481D01*
X259849Y162289D01*
X258875Y162012D01*
X257928Y161653D01*
X257016Y161214D01*
X256144Y160698D01*
X255320Y160110D01*
X254549Y159453D01*
X253837Y158733D01*
X253189Y157954D01*
X252611Y157123D01*
X252106Y156245D01*
X251678Y155327D01*
X251330Y154376D01*
X251065Y153399D01*
X250885Y152402D01*
X250791Y151394D01*
X250783Y150381D01*
X250862Y149372D01*
X251028Y148372D01*
X251278Y147391D01*
X251611Y146435D01*
X252026Y145511D01*
X252518Y144625D01*
X253083Y143786D01*
X253719Y142997D01*
X254420Y142266D01*
X255181Y141598D01*
X255997Y140998D01*
X256860Y140469D01*
X102469Y166646D02*
Y186646D01*
Y196646D02*
Y216646D01*
Y166646D02*
X124469D01*
Y216646D01*
X102469D02*
X124469D01*
X154032Y291738D02*
X174474Y283479D01*
X162733Y313275D02*
X183175Y305016D01*
X254555Y174048D02*
X259792D01*
X254555Y209244D02*
X259792D01*
X197500Y153102D02*
Y163908D01*
X195698Y161509D02*
X197500Y163908D01*
X199302Y161509D01*
X209509Y147698D02*
X211908Y149500D01*
X209509Y151302D02*
X211908Y149500D01*
X201100D02*
X211908D01*
D12*
X153311Y210492D02*
X152866Y211416D01*
X151867Y211644D01*
X151066Y211005D01*
Y209980D01*
X151867Y209341D01*
X152866Y209569D01*
X153311Y210492D01*
X178508Y211673D02*
X178063Y212597D01*
X177064Y212825D01*
X176263Y212186D01*
Y211161D01*
X177064Y210522D01*
X178063Y210750D01*
X178508Y211673D01*
D13*
X235164Y130512D02*
X238669Y124903D01*
X212286Y116217D02*
X215791Y110608D01*
X201766Y158700D02*
X199100Y154702D01*
Y158700D02*
X201766Y154702D01*
X211734Y295833D02*
X212401Y296499D01*
X213734D01*
X214400Y295833D01*
Y293167D01*
X213734Y292501D01*
X212401D01*
X211734Y293167D01*
Y294500D01*
X213067D01*
X210401Y292501D02*
Y296499D01*
X207735Y292501D01*
Y296499D01*
X206403D02*
Y292501D01*
X204403D01*
X203737Y293167D01*
Y295833D01*
X204403Y296499D01*
X206403D01*
X224443Y283780D02*
Y281114D01*
X223110Y279781D01*
X221777Y281114D01*
Y283780D01*
X218445Y279781D02*
X219778D01*
X220444Y280448D01*
Y281781D01*
X219778Y282447D01*
X218445D01*
X217778Y281781D01*
Y281114D01*
X220444D01*
X216445Y282447D02*
Y279781D01*
Y281114D01*
X215779Y281781D01*
X215112Y282447D01*
X214446D01*
X205782Y279781D02*
X208448D01*
X205782Y282447D01*
Y283113D01*
X206449Y283780D01*
X207782D01*
X208448Y283113D01*
X203982Y286583D02*
X205480Y290291D01*
X206585Y287688D01*
X204113Y288686D01*
X203377Y290422D02*
X203008Y291289D01*
X201772Y291789D01*
X200905Y291420D01*
X199906Y288949D01*
X200275Y288081D01*
X201510Y287582D01*
X202378Y287950D01*
X203377Y290422D01*
X199669Y291920D02*
X199301Y292787D01*
X198065Y293286D01*
X197197Y292918D01*
X196199Y290447D01*
X196567Y289579D01*
X197803Y289080D01*
X198670Y289448D01*
X199669Y291920D01*
X194713Y290328D02*
X195712Y292800D01*
X195094Y293049D01*
X194226Y292681D01*
X193477Y290827D01*
X194226Y292681D01*
X193858Y293549D01*
X192991Y293180D01*
X192242Y291327D01*
X191006Y291826D02*
X192004Y294298D01*
X191268Y296033D01*
X189533Y295296D01*
X188534Y292825D01*
X189283Y294678D01*
X191755Y293680D01*
X188796Y297031D02*
X187298Y293324D01*
X188047Y295178D01*
X187679Y296045D01*
X186443Y296545D01*
X185575Y296176D01*
X184827Y294322D01*
X196714Y286385D02*
X196346Y287253D01*
X195110Y287752D01*
X194243Y287384D01*
X193993Y286766D01*
X194361Y285898D01*
X194979Y285649D01*
X194361Y285898D01*
X193493Y285530D01*
X193244Y284912D01*
X193612Y284045D01*
X194848Y283545D01*
X195716Y283913D01*
X191758Y284793D02*
X192008Y285411D01*
X191390Y285661D01*
X191140Y285043D01*
X191758Y284793D01*
X190167Y289749D02*
X187695Y290748D01*
X187445Y290130D01*
X188918Y286660D01*
X188669Y286042D01*
X186459Y291247D02*
X185460Y288775D01*
X183725Y288039D01*
X182989Y289774D01*
X183987Y292246D01*
X205366Y147900D02*
Y147233D01*
X204033Y145901D01*
X202700Y147233D01*
Y147900D01*
X204033Y145901D02*
Y143901D01*
X127832Y245603D02*
Y242270D01*
X127166Y241604D01*
X125833D01*
X125166Y242270D01*
Y245603D01*
X121168D02*
X122501Y244936D01*
X123834Y243603D01*
Y242270D01*
X123167Y241604D01*
X121834D01*
X121168Y242270D01*
Y242937D01*
X121834Y243603D01*
X123834D01*
X166981Y220679D02*
Y224677D01*
X164982D01*
X164316Y224011D01*
Y222678D01*
X164982Y222012D01*
X166981D01*
X165649D02*
X164316Y220679D01*
X160317D02*
X162983D01*
X160317Y223344D01*
Y224011D01*
X160983Y224677D01*
X162316D01*
X162983Y224011D01*
X158984Y220679D02*
X157651D01*
X158318D01*
Y224677D01*
X158984Y224011D01*
X112817Y236683D02*
X116816D01*
Y238682D01*
X116149Y239349D01*
X114816D01*
X114150Y238682D01*
Y236683D01*
Y238016D02*
X112817Y239349D01*
Y243347D02*
Y240681D01*
X115483Y243347D01*
X116149D01*
X116816Y242681D01*
Y241348D01*
X116149Y240681D01*
Y244680D02*
X116816Y245346D01*
Y246679D01*
X116149Y247346D01*
X113484D01*
X112817Y246679D01*
Y245346D01*
X113484Y244680D01*
X116149D01*
X132112Y223793D02*
X132779Y224459D01*
X134112D01*
X134778Y223793D01*
Y221127D01*
X134112Y220460D01*
X132779D01*
X132112Y221127D01*
X128114Y220460D02*
X130780D01*
X128114Y223126D01*
Y223793D01*
X128780Y224459D01*
X130113D01*
X130780Y223793D01*
X126781Y224459D02*
X124115D01*
Y223793D01*
X126781Y221127D01*
Y220460D01*
X120249Y223793D02*
X120916Y224459D01*
X122248D01*
X122915Y223793D01*
Y221127D01*
X122248Y220460D01*
X120916D01*
X120249Y221127D01*
X116251Y220460D02*
X118916D01*
X116251Y223126D01*
Y223793D01*
X116917Y224459D01*
X118250D01*
X118916Y223793D01*
X112252Y224459D02*
X113585Y223793D01*
X114918Y222460D01*
Y221127D01*
X114251Y220460D01*
X112918D01*
X112252Y221127D01*
Y221793D01*
X112918Y222460D01*
X114918D01*
X224780Y137784D02*
X228171Y139903D01*
X227112Y141599D01*
X226193Y141811D01*
X225063Y141104D01*
X224851Y140186D01*
X225910Y138491D01*
X225204Y139621D02*
X223368Y140045D01*
X222661Y141175D02*
X221955Y142306D01*
X222308Y141741D01*
X225699Y143860D01*
X225487Y142941D01*
X221461Y144354D02*
X220542Y144567D01*
X219836Y145697D01*
X220048Y146615D01*
X222309Y148028D01*
X223227Y147816D01*
X223933Y146686D01*
X223721Y145767D01*
X223156Y145414D01*
X222238Y145626D01*
X221178Y147322D01*
X212455Y141355D02*
X212667Y142274D01*
X213798Y142980D01*
X214716Y142768D01*
X216129Y140507D01*
X215917Y139589D01*
X214786Y138883D01*
X213868Y139094D01*
X210830Y136410D02*
X213091Y137823D01*
X209417Y138671D01*
X209064Y139236D01*
X209276Y140155D01*
X210407Y140861D01*
X211325Y140649D01*
X208004Y134644D02*
X205885Y138036D01*
X208640Y137400D01*
X206379Y135987D01*
X246201Y135798D02*
X246059Y130994D01*
X243940Y134385D02*
X248320Y132407D01*
X244929Y130288D02*
X243516Y132548D01*
X241680Y132972D01*
X241255Y131136D01*
X242668Y128875D01*
X241609Y130570D01*
X243869Y131983D01*
X239277Y126756D02*
X241538Y128169D01*
X237864Y129017D01*
X237511Y129582D01*
X237723Y130500D01*
X238854Y131207D01*
X239772Y130995D01*
X223429Y128584D02*
X226820Y130702D01*
X225760Y132398D01*
X224842Y132610D01*
X223712Y131904D01*
X223500Y130985D01*
X224559Y129290D01*
X223853Y130420D02*
X222016Y130844D01*
X221310Y131975D02*
X220603Y133105D01*
X220957Y132540D01*
X224348Y134659D01*
X224136Y133740D01*
X222370Y136566D02*
X222582Y137485D01*
X221876Y138615D01*
X220957Y138827D01*
X220392Y138474D01*
X220180Y137556D01*
X219262Y137768D01*
X218696Y137415D01*
X218484Y136496D01*
X219191Y135366D01*
X220109Y135154D01*
X220674Y135507D01*
X220886Y136425D01*
X221805Y136213D01*
X222370Y136566D01*
X220886Y136425D02*
X220180Y137556D01*
X229189Y140539D02*
X232580Y142658D01*
X231521Y144354D01*
X230602Y144566D01*
X229472Y143859D01*
X229260Y142941D01*
X230319Y141246D01*
X229613Y142376D02*
X227776Y142800D01*
X227070Y143930D02*
X226364Y145061D01*
X226717Y144495D01*
X230108Y146615D01*
X229896Y145696D01*
X228695Y148875D02*
X227283Y151136D01*
X226717Y150783D01*
X225869Y147109D01*
X225304Y146756D01*
X212454Y134941D02*
X212666Y135860D01*
X213796Y136566D01*
X214715Y136354D01*
X216127Y134093D01*
X215915Y133175D01*
X214785Y132468D01*
X213867Y132680D01*
X210829Y129996D02*
X213089Y131409D01*
X209416Y132257D01*
X209063Y132822D01*
X209275Y133740D01*
X210405Y134447D01*
X211324Y134235D01*
X205319Y131268D02*
X207579Y132681D01*
X208639Y130985D01*
X207155Y130844D01*
X206590Y130491D01*
X206378Y129573D01*
X207084Y128443D01*
X208003Y128230D01*
X209133Y128937D01*
X209345Y129855D01*
X254039Y225473D02*
X253241Y229392D01*
X251282Y228993D01*
X250762Y228207D01*
X251028Y226901D01*
X251814Y226381D01*
X253773Y226779D01*
X252467Y226514D02*
X251426Y224942D01*
X250120Y224676D02*
X248814Y224410D01*
X249467Y224543D01*
X248670Y228462D01*
X249456Y227941D01*
X261096Y226329D02*
X261894Y222411D01*
X259934Y222012D01*
X259148Y222533D01*
X258617Y225145D01*
X259137Y225931D01*
X261096Y226329D01*
X257975Y221614D02*
X256669Y221348D01*
X257322Y221481D01*
X256525Y225399D01*
X257311Y224879D01*
X258303Y244893D02*
X257201Y248736D01*
X255279Y248185D01*
X254822Y247361D01*
X255189Y246080D01*
X256014Y245623D01*
X257936Y246174D01*
X256654Y245806D02*
X255740Y244158D01*
X254459Y243790D02*
X253178Y243423D01*
X253818Y243607D01*
X252716Y247450D01*
X253541Y246993D01*
X250338Y246075D02*
X249513Y246532D01*
X248232Y246165D01*
X247775Y245340D01*
X247959Y244700D01*
X248783Y244243D01*
X249424Y244426D01*
X248783Y244243D01*
X248326Y243418D01*
X248510Y242778D01*
X249334Y242321D01*
X250615Y242688D01*
X251072Y243513D01*
X235969Y206287D02*
Y210286D01*
X233970D01*
X233303Y209619D01*
Y208286D01*
X233970Y207620D01*
X235969D01*
X234636D02*
X233303Y206287D01*
X229971D02*
Y210286D01*
X231971Y208286D01*
X229305D01*
X235969Y211486D02*
Y215484D01*
X233970D01*
X233303Y214818D01*
Y213485D01*
X233970Y212819D01*
X235969D01*
X234636D02*
X233303Y211486D01*
X231971Y214818D02*
X231304Y215484D01*
X229971D01*
X229305Y214818D01*
Y214152D01*
X229971Y213485D01*
X230638D01*
X229971D01*
X229305Y212819D01*
Y212152D01*
X229971Y211486D01*
X231304D01*
X231971Y212152D01*
X214415Y166509D02*
X215082Y167176D01*
X216415D01*
X217081Y166509D01*
Y163843D01*
X216415Y163177D01*
X215082D01*
X214415Y163843D01*
X213082Y163177D02*
X211750D01*
X212416D01*
Y167176D01*
X213082Y166509D01*
X209750Y163177D02*
X208417D01*
X209084D01*
Y167176D01*
X209750Y166509D01*
X237664Y167285D02*
X238331Y167952D01*
X239663D01*
X240330Y167285D01*
Y164619D01*
X239663Y163953D01*
X238331D01*
X237664Y164619D01*
X236331D02*
X235665Y163953D01*
X234332D01*
X233665Y164619D01*
Y167285D01*
X234332Y167952D01*
X235665D01*
X236331Y167285D01*
Y166619D01*
X235665Y165952D01*
X233665D01*
X148981Y117529D02*
Y121528D01*
X146982D01*
X146315Y120861D01*
Y119528D01*
X146982Y118862D01*
X148981D01*
X147648D02*
X146315Y117529D01*
X144982Y118196D02*
X144316Y117529D01*
X142983D01*
X142316Y118196D01*
Y120861D01*
X142983Y121528D01*
X144316D01*
X144982Y120861D01*
Y120195D01*
X144316Y119528D01*
X142316D01*
X178696Y141348D02*
Y145347D01*
X176697D01*
X176030Y144680D01*
Y143347D01*
X176697Y142681D01*
X178696D01*
X177363D02*
X176030Y141348D01*
X172031Y145347D02*
X173364Y144680D01*
X174697Y143347D01*
Y142015D01*
X174031Y141348D01*
X172698D01*
X172031Y142015D01*
Y142681D01*
X172698Y143347D01*
X174697D01*
X156963Y121542D02*
Y124208D01*
X157629Y124874D01*
X158962D01*
X159629Y124208D01*
Y121542D01*
X158962Y120876D01*
X157629D01*
X158296Y122208D02*
X156963Y120876D01*
X157629D02*
X156963Y121542D01*
X155630Y120876D02*
X154297D01*
X154963D01*
Y124874D01*
X155630Y124208D01*
X153205Y135388D02*
X153871Y136055D01*
X155204D01*
X155871Y135388D01*
Y132722D01*
X155204Y132056D01*
X153871D01*
X153205Y132722D01*
X151872Y132056D02*
X150539D01*
X151206D01*
Y136055D01*
X151872Y135388D01*
X148540D02*
X147873Y136055D01*
X146540D01*
X145874Y135388D01*
Y134722D01*
X146540Y134055D01*
X147207D01*
X146540D01*
X145874Y133389D01*
Y132722D01*
X146540Y132056D01*
X147873D01*
X148540Y132722D01*
X190073Y145347D02*
Y141348D01*
X188074D01*
X187407Y142015D01*
Y142681D01*
X188074Y143347D01*
X190073D01*
X188074D01*
X187407Y144014D01*
Y144680D01*
X188074Y145347D01*
X190073D01*
X186074D02*
X183408D01*
Y144680D01*
X186074Y142015D01*
Y141348D01*
X183408D01*
X182075D02*
X180743D01*
X181409D01*
Y145347D01*
X182075Y144680D01*
X223951Y218558D02*
X224617Y219225D01*
X225950D01*
X226617Y218558D01*
Y215892D01*
X225950Y215226D01*
X224617D01*
X223951Y215892D01*
X222618Y215226D02*
X221285D01*
X221951D01*
Y219225D01*
X222618Y218558D01*
X219285D02*
X218619Y219225D01*
X217286D01*
X216620Y218558D01*
Y215892D01*
X217286Y215226D01*
X218619D01*
X219285Y215892D01*
Y218558D01*
X249695Y259210D02*
X250362Y258544D01*
Y257211D01*
X249695Y256544D01*
X247029D01*
X246363Y257211D01*
Y258544D01*
X247029Y259210D01*
X246363Y263209D02*
Y260543D01*
X249029Y263209D01*
X249695D01*
X250362Y262542D01*
Y261209D01*
X249695Y260543D01*
X246363Y267207D02*
Y264542D01*
X249029Y267207D01*
X249695D01*
X250362Y266541D01*
Y265208D01*
X249695Y264542D01*
X208832Y301872D02*
Y298540D01*
X208166Y297874D01*
X206833D01*
X206167Y298540D01*
Y301872D01*
X202834Y297874D02*
Y301872D01*
X204834Y299873D01*
X202168D01*
X196781Y302978D02*
X197448Y303644D01*
X198781D01*
X199447Y302978D01*
Y300312D01*
X198781Y299645D01*
X197448D01*
X196781Y300312D01*
X195449Y299645D02*
X194116D01*
X194782D01*
Y303644D01*
X195449Y302978D01*
X192116Y303644D02*
X189451D01*
Y302978D01*
X192116Y300312D01*
Y299645D01*
X218884Y302978D02*
X219550Y303644D01*
X220883D01*
X221550Y302978D01*
Y300312D01*
X220883Y299645D01*
X219550D01*
X218884Y300312D01*
X217551Y299645D02*
X216218D01*
X216884D01*
Y303644D01*
X217551Y302978D01*
X211553Y303644D02*
X212886Y302978D01*
X214219Y301645D01*
Y300312D01*
X213552Y299645D01*
X212219D01*
X211553Y300312D01*
Y300978D01*
X212219Y301645D01*
X214219D01*
X238313Y229990D02*
Y233989D01*
X236314D01*
X235648Y233322D01*
Y231989D01*
X236314Y231323D01*
X238313D01*
X236981D02*
X235648Y229990D01*
X234315D02*
X232982D01*
X233648D01*
Y233989D01*
X234315Y233322D01*
X228317Y233989D02*
X230982D01*
Y231989D01*
X229649Y232656D01*
X228983D01*
X228317Y231989D01*
Y230656D01*
X228983Y229990D01*
X230316D01*
X230982Y230656D01*
X249510Y229990D02*
Y233989D01*
X247511D01*
X246844Y233322D01*
Y231989D01*
X247511Y231323D01*
X249510D01*
X248177D02*
X246844Y229990D01*
X245512D02*
X244179D01*
X244845D01*
Y233989D01*
X245512Y233322D01*
X240180Y229990D02*
Y233989D01*
X242179Y231989D01*
X239513D01*
X243912Y271016D02*
Y275014D01*
X241912D01*
X241246Y274348D01*
Y273015D01*
X241912Y272348D01*
X243912D01*
X242579D02*
X241246Y271016D01*
X239913D02*
X238580D01*
X239247D01*
Y275014D01*
X239913Y274348D01*
X233915Y275014D02*
X235248Y274348D01*
X236581Y273015D01*
Y271682D01*
X235914Y271016D01*
X234581D01*
X233915Y271682D01*
Y272348D01*
X234581Y273015D01*
X236581D01*
X257727Y239445D02*
X258829Y235601D01*
X256908Y235050D01*
X256083Y235507D01*
X255348Y238069D01*
X255805Y238894D01*
X257727Y239445D01*
X254067Y237702D02*
X253243Y238159D01*
X251961Y237792D01*
X251505Y236967D01*
X251688Y236327D01*
X252513Y235870D01*
X253153Y236053D01*
X252513Y235870D01*
X252056Y235045D01*
X252239Y234405D01*
X253064Y233948D01*
X254345Y234315D01*
X254802Y235139D01*
X137584Y287040D02*
Y283041D01*
X135585D01*
X134918Y283707D01*
Y286373D01*
X135585Y287040D01*
X137584D01*
X130920Y283041D02*
X133586D01*
X130920Y285707D01*
Y286373D01*
X131586Y287040D01*
X132919D01*
X133586Y286373D01*
X145219Y270955D02*
Y266956D01*
X142553D01*
X141220D02*
X139887D01*
X140554D01*
Y270955D01*
X141220Y270288D01*
X145463Y240139D02*
Y244138D01*
X143464D01*
X142797Y243472D01*
Y242139D01*
X143464Y241472D01*
X145463D01*
X144130D02*
X142797Y240139D01*
X141464Y244138D02*
X138798D01*
Y243472D01*
X141464Y240806D01*
Y240139D01*
X154179D02*
Y244138D01*
X152179D01*
X151513Y243472D01*
Y242139D01*
X152179Y241472D01*
X154179D01*
X152846D02*
X151513Y240139D01*
X147514Y244138D02*
X150180D01*
Y242139D01*
X148847Y242805D01*
X148181D01*
X147514Y242139D01*
Y240806D01*
X148181Y240139D01*
X149513D01*
X150180Y240806D01*
X146344Y288838D02*
X147011Y289504D01*
X148344D01*
X149010Y288838D01*
Y286172D01*
X148344Y285506D01*
X147011D01*
X146344Y286172D01*
X145011Y285506D02*
X143679D01*
X144345D01*
Y289504D01*
X145011Y288838D01*
X139680Y285506D02*
Y289504D01*
X141679Y287505D01*
X139013D01*
X137481Y248080D02*
Y244747D01*
X136815Y244081D01*
X135482D01*
X134816Y244747D01*
Y248080D01*
X130817Y244081D02*
X133483D01*
X130817Y246747D01*
Y247413D01*
X131483Y248080D01*
X132816D01*
X133483Y247413D01*
X125695Y248154D02*
Y252153D01*
X123696D01*
X123029Y251486D01*
Y250153D01*
X123696Y249487D01*
X125695D01*
X124362D02*
X123029Y248154D01*
X121697Y251486D02*
X121030Y252153D01*
X119697D01*
X119031Y251486D01*
Y250820D01*
X119697Y250153D01*
X119031Y249487D01*
Y248820D01*
X119697Y248154D01*
X121030D01*
X121697Y248820D01*
Y249487D01*
X121030Y250153D01*
X121697Y250820D01*
Y251486D01*
X121030Y250153D02*
X119697D01*
X123029Y258770D02*
X123696Y259436D01*
X125029D01*
X125695Y258770D01*
Y256104D01*
X125029Y255437D01*
X123696D01*
X123029Y256104D01*
X121697Y255437D02*
X120364D01*
X121030D01*
Y259436D01*
X121697Y258770D01*
X115699Y255437D02*
X118364D01*
X115699Y258103D01*
Y258770D01*
X116365Y259436D01*
X117698D01*
X118364Y258770D01*
X215778Y222462D02*
X216444Y221795D01*
Y220462D01*
X215778Y219796D01*
X213112D01*
X212445Y220462D01*
Y221795D01*
X213112Y222462D01*
X212445Y226460D02*
Y223795D01*
X215111Y226460D01*
X215778D01*
X216444Y225794D01*
Y224461D01*
X215778Y223795D01*
Y227793D02*
X216444Y228460D01*
Y229793D01*
X215778Y230459D01*
X213112D01*
X212445Y229793D01*
Y228460D01*
X213112Y227793D01*
X215778D01*
X171763Y243178D02*
X172429Y243845D01*
X173762D01*
X174429Y243178D01*
Y240513D01*
X173762Y239846D01*
X172429D01*
X171763Y240513D01*
X167764Y239846D02*
X170430D01*
X167764Y242512D01*
Y243178D01*
X168430Y243845D01*
X169763D01*
X170430Y243178D01*
X166431D02*
X165765Y243845D01*
X164432D01*
X163765Y243178D01*
Y242512D01*
X164432Y241845D01*
X165098D01*
X164432D01*
X163765Y241179D01*
Y240513D01*
X164432Y239846D01*
X165765D01*
X166431Y240513D01*
X223652Y223795D02*
X224318Y223128D01*
Y221795D01*
X223652Y221129D01*
X220986D01*
X220320Y221795D01*
Y223128D01*
X220986Y223795D01*
X220320Y227793D02*
Y225127D01*
X222985Y227793D01*
X223652D01*
X224318Y227127D01*
Y225794D01*
X223652Y225127D01*
X220320Y229126D02*
Y230459D01*
Y229793D01*
X224318D01*
X223652Y229126D01*
X204045Y229034D02*
X204711Y228367D01*
Y227034D01*
X204045Y226368D01*
X201379D01*
X200712Y227034D01*
Y228367D01*
X201379Y229034D01*
X200712Y230366D02*
Y231699D01*
Y231033D01*
X204711D01*
X204045Y230366D01*
Y233699D02*
X204711Y234365D01*
Y235698D01*
X204045Y236365D01*
X203378D01*
X202712Y235698D01*
X202045Y236365D01*
X201379D01*
X200712Y235698D01*
Y234365D01*
X201379Y233699D01*
X202045D01*
X202712Y234365D01*
X203378Y233699D01*
X204045D01*
X202712Y234365D02*
Y235698D01*
X209241Y229034D02*
X209908Y228367D01*
Y227034D01*
X209241Y226368D01*
X206576D01*
X205909Y227034D01*
Y228367D01*
X206576Y229034D01*
X205909Y230366D02*
Y231699D01*
Y231033D01*
X209908D01*
X209241Y230366D01*
X206576Y233699D02*
X205909Y234365D01*
Y235698D01*
X206576Y236365D01*
X209241D01*
X209908Y235698D01*
Y234365D01*
X209241Y233699D01*
X208575D01*
X207909Y234365D01*
Y236365D01*
X192487Y238902D02*
Y242901D01*
X190487D01*
X189821Y242234D01*
Y240902D01*
X190487Y240235D01*
X192487D01*
X191154D02*
X189821Y238902D01*
X188488D02*
X187155D01*
X187821D01*
Y242901D01*
X188488Y242234D01*
X182490Y238902D02*
X185156D01*
X182490Y241568D01*
Y242234D01*
X183156Y242901D01*
X184489D01*
X185156Y242234D01*
X243309Y187325D02*
Y191323D01*
X241310D01*
X240644Y190657D01*
Y189324D01*
X241310Y188658D01*
X243309D01*
X241976D02*
X240644Y187325D01*
X239311D02*
X237978D01*
X238644D01*
Y191323D01*
X239311Y190657D01*
X235979Y187325D02*
X234646D01*
X235312D01*
Y191323D01*
X235979Y190657D01*
X243309Y199136D02*
Y203134D01*
X241310D01*
X240644Y202468D01*
Y201135D01*
X241310Y200469D01*
X243309D01*
X241976D02*
X240644Y199136D01*
X239311D02*
X237978D01*
X238644D01*
Y203134D01*
X239311Y202468D01*
X235979D02*
X235312Y203134D01*
X233979D01*
X233313Y202468D01*
Y199802D01*
X233979Y199136D01*
X235312D01*
X235979Y199802D01*
Y202468D01*
X141325Y192548D02*
Y196547D01*
X139326D01*
X138659Y195880D01*
Y194547D01*
X139326Y193881D01*
X141325D01*
X139992D02*
X138659Y192548D01*
X134661D02*
X137327D01*
X134661Y195214D01*
Y195880D01*
X135327Y196547D01*
X136660D01*
X137327Y195880D01*
X134131Y201183D02*
X134798Y200517D01*
Y199184D01*
X134131Y198517D01*
X131465D01*
X130799Y199184D01*
Y200517D01*
X131465Y201183D01*
X130799Y202516D02*
Y203849D01*
Y203183D01*
X134798D01*
X134131Y202516D01*
X134798Y208514D02*
Y205848D01*
X132798D01*
X133465Y207181D01*
Y207848D01*
X132798Y208514D01*
X131465D01*
X130799Y207848D01*
Y206515D01*
X131465Y205848D01*
X164316Y214854D02*
Y211521D01*
X163649Y210855D01*
X162316D01*
X161650Y211521D01*
Y214854D01*
X160317Y214187D02*
X159651Y214854D01*
X158318D01*
X157651Y214187D01*
Y213521D01*
X158318Y212854D01*
X158984D01*
X158318D01*
X157651Y212188D01*
Y211521D01*
X158318Y210855D01*
X159651D01*
X160317Y211521D01*
X189201Y236833D02*
X189867Y237499D01*
X191200D01*
X191867Y236833D01*
Y234167D01*
X191200Y233501D01*
X189867D01*
X189201Y234167D01*
X187868Y237499D02*
X185202D01*
Y236833D01*
X187868Y234167D01*
Y233501D01*
X166376Y236439D02*
X167042Y237106D01*
X168375D01*
X169042Y236439D01*
Y233773D01*
X168375Y233107D01*
X167042D01*
X166376Y233773D01*
X165043Y233107D02*
X163710D01*
X164377D01*
Y237106D01*
X165043Y236439D01*
X162245Y200448D02*
X162912Y201115D01*
X164245D01*
X164911Y200448D01*
Y197782D01*
X164245Y197116D01*
X162912D01*
X162245Y197782D01*
X160912Y200448D02*
X160246Y201115D01*
X158913D01*
X158247Y200448D01*
Y199782D01*
X158913Y199115D01*
X158247Y198449D01*
Y197782D01*
X158913Y197116D01*
X160246D01*
X160912Y197782D01*
Y198449D01*
X160246Y199115D01*
X160912Y199782D01*
Y200448D01*
X160246Y199115D02*
X158913D01*
X228691Y183201D02*
Y182535D01*
X227358Y181202D01*
X226025Y182535D01*
Y183201D01*
X227358Y181202D02*
Y179202D01*
X222026D02*
X224692D01*
X222026Y181868D01*
Y182535D01*
X222692Y183201D01*
X224025D01*
X224692Y182535D01*
X198274Y170743D02*
X198940Y171410D01*
X200273D01*
X200939Y170743D01*
Y168077D01*
X200273Y167411D01*
X198940D01*
X198274Y168077D01*
X194275Y167411D02*
X196941D01*
X194275Y170077D01*
Y170743D01*
X194941Y171410D01*
X196274D01*
X196941Y170743D01*
X184811Y170683D02*
X185478Y171350D01*
X186811D01*
X187477Y170683D01*
Y168017D01*
X186811Y167351D01*
X185478D01*
X184811Y168017D01*
X180813Y171350D02*
X182146Y170683D01*
X183478Y169350D01*
Y168017D01*
X182812Y167351D01*
X181479D01*
X180813Y168017D01*
Y168684D01*
X181479Y169350D01*
X183478D01*
X150636Y195880D02*
X151302Y196547D01*
X152635D01*
X153302Y195880D01*
Y193214D01*
X152635Y192548D01*
X151302D01*
X150636Y193214D01*
X146637Y196547D02*
X149303D01*
Y194547D01*
X147970Y195214D01*
X147303D01*
X146637Y194547D01*
Y193214D01*
X147303Y192548D01*
X148636D01*
X149303Y193214D01*
X190198Y231550D02*
X190864Y232217D01*
X192197D01*
X192864Y231550D01*
Y228885D01*
X192197Y228218D01*
X190864D01*
X190198Y228885D01*
X186866Y228218D02*
Y232217D01*
X188865Y230218D01*
X186199D01*
X226217Y204738D02*
X226883Y205405D01*
X228216D01*
X228883Y204738D01*
Y202073D01*
X228216Y201406D01*
X226883D01*
X226217Y202073D01*
X224884Y204738D02*
X224218Y205405D01*
X222885D01*
X222218Y204738D01*
Y204072D01*
X222885Y203405D01*
X223551D01*
X222885D01*
X222218Y202739D01*
Y202073D01*
X222885Y201406D01*
X224218D01*
X224884Y202073D01*
X169042Y231003D02*
Y230337D01*
X167709Y229004D01*
X166376Y230337D01*
Y231003D01*
X167709Y229004D02*
Y227005D01*
X165043D02*
X163710D01*
X164377D01*
Y231003D01*
X165043Y230337D01*
X231227Y250745D02*
X227894D01*
X227228Y251411D01*
Y252744D01*
X227894Y253411D01*
X231227D01*
Y257409D02*
Y254743D01*
X229227D01*
X229894Y256076D01*
Y256743D01*
X229227Y257409D01*
X227894D01*
X227228Y256743D01*
Y255410D01*
X227894Y254743D01*
X120639Y165046D02*
X121972D01*
X121305D01*
Y161714D01*
X121972Y161047D01*
X122638D01*
X123304Y161714D01*
X116640Y161047D02*
X119306D01*
X116640Y163713D01*
Y164380D01*
X117306Y165046D01*
X118639D01*
X119306Y164380D01*
X223613Y199106D02*
Y195773D01*
X222946Y195107D01*
X221613D01*
X220947Y195773D01*
Y199106D01*
X219614Y195107D02*
X218281D01*
X218948D01*
Y199106D01*
X219614Y198439D01*
X147046Y300309D02*
X148379D01*
X147712D01*
Y296976D01*
X148379Y296310D01*
X149045D01*
X149712Y296976D01*
X145713Y299642D02*
X145047Y300309D01*
X143714D01*
X143047Y299642D01*
Y298976D01*
X143714Y298309D01*
X144380D01*
X143714D01*
X143047Y297643D01*
Y296976D01*
X143714Y296310D01*
X145047D01*
X145713Y296976D01*
X252941Y165637D02*
X254274D01*
X253608D01*
Y162304D01*
X254274Y161638D01*
X254941D01*
X255607Y162304D01*
X251608Y161638D02*
X250275D01*
X250942D01*
Y165637D01*
X251608Y164970D01*
D103*
X234938Y132976D02*
X234446D01*
X234938D01*
X259220Y233561D02*
X258728D01*
X259220D01*
X262123Y220366D02*
X261631D01*
X262123D01*
X232811Y249549D02*
Y258605D01*
X245016Y249549D02*
Y258605D01*
X202272Y310740D02*
X208728D01*
X202272Y303260D02*
X208728D01*
X136382Y206555D02*
Y219153D01*
X156067Y206555D02*
Y219153D01*
X136382D02*
X156067D01*
X136382Y206555D02*
X156067D01*
X136728Y249664D02*
Y261475D01*
X140272Y249664D02*
Y261475D01*
X136728Y249664D02*
X140272D01*
X136728Y261475D02*
X140272D01*
X173390Y215610D02*
X209610D01*
X173390Y179390D02*
X209610D01*
X173390D02*
Y215610D01*
X209610Y179390D02*
Y215610D01*
X159719Y116535D02*
Y119291D01*
X155782D02*
X159719D01*
Y107480D02*
Y110236D01*
X155782Y107480D02*
X159719D01*
X129051Y273916D02*
X131413D01*
X129051Y263995D02*
X131413D01*
X203518Y129724D02*
Y139764D01*
X167297Y129724D02*
Y139764D01*
X203518Y103543D02*
Y113583D01*
X167297Y103543D02*
Y113583D01*
Y139764D02*
X203518D01*
X167297Y103543D02*
X203518D01*
D104*
X132768Y241791D02*
X132029Y242217D01*
Y241365D01*
X132768Y241791D01*
X246098Y245317D02*
X245360Y245743D01*
Y244891D01*
X246098Y245317D01*
X157563Y202126D02*
X156825Y202552D01*
Y201700D01*
X157563Y202126D01*
X144307Y262558D02*
X143569Y262984D01*
Y262131D01*
X144307Y262558D01*
X174472Y219941D02*
X173734Y220367D01*
Y219515D01*
X174472Y219941D01*
D105*
X210500Y310937D02*
D03*
D106*
X198100Y149500D02*
X197500Y150100D01*
X196900Y149500D01*
X197500Y148900D01*
X198100Y149500D01*
D107*
X137679Y275648D02*
X139563D01*
Y281947D01*
X137679D02*
X139563D01*
M02*
